<?xml version="1.0" encoding="UTF-8" standalone="no"?>
<!-- Generator: Adobe Illustrator 13.0.2, SVG Export Plug-In  -->

<svg
   xmlns:dc="http://purl.org/dc/elements/1.1/"
   xmlns:cc="http://creativecommons.org/ns#"
   xmlns:rdf="http://www.w3.org/1999/02/22-rdf-syntax-ns#"
   xmlns:svg="http://www.w3.org/2000/svg"
   xmlns="http://www.w3.org/2000/svg"
   xmlns:sodipodi="http://sodipodi.sourceforge.net/DTD/sodipodi-0.dtd"
   xmlns:inkscape="http://www.inkscape.org/namespaces/inkscape"
   version="1.1"
   x="0px"
   y="0px"
   width="256"
   height="300"
   viewBox="-2.47 -0.206 256 300"
   enable-background="new -2.47 -0.206 256 256"
   xml:space="preserve"
   id="svg3336"
   inkscape:version="0.48.4 r9939"
   sodipodi:docname="pressgang.svg"><metadata
     id="metadata3631"><rdf:RDF><cc:Work
         rdf:about=""><dc:format>image/svg+xml</dc:format><dc:type
           rdf:resource="http://purl.org/dc/dcmitype/StillImage" /><dc:title /></cc:Work></rdf:RDF></metadata><sodipodi:namedview
     pagecolor="#ffffff"
     bordercolor="#666666"
     borderopacity="1"
     objecttolerance="10"
     gridtolerance="10"
     guidetolerance="10"
     inkscape:pageopacity="0"
     inkscape:pageshadow="2"
     inkscape:window-width="1920"
     inkscape:window-height="1060"
     id="namedview3629"
     showgrid="false"
     inkscape:zoom="2.6054688"
     inkscape:cx="74.84258"
     inkscape:cy="128"
     inkscape:window-x="1918"
     inkscape:window-y="33"
     inkscape:window-maximized="1"
     inkscape:current-layer="svg3336" /><defs
     id="defs3338" /><path
     d="m 194.67819,42.231151 c -66.037,-48.5970003 -144.216998,-10 -144.216998,-10 l 2.801,30.688 5.227,1.977 c -0.596,-6.345 -0.721,-10.803 -0.721,-10.803 l 0.734,-5.875 -0.734,5.875 c 0,0 0.125,4.458 0.721,10.803 l 20.006,7.549 116.182998,-30.214 z"
     id="path3340"
     inkscape:connector-curvature="0"
     style="fill:#b0c2cc" /><path
     d="m 203.81619,123.06515 c -0.508,-11.3 -7.646,-21.413 -7.693,-42.729999 -0.045,-18.413 -11.883,-26.963 -11.883,-26.963 -23.771,-9.418 -58.538,-7.967 -58.538,-7.967 l -1.342,0.025 c 0,0 -34.792998,-0.164 -58.199998,10.126 0,0 -4.373,3.44 -7.562,10.419 1.161,11.628 3.889,28.759 10.178,37.041999 10.03,13.212 14.308,26.212 14.308,26.212 l -0.116,1.433 0.116,-1.433 c 0,0 -4.278,-13 -14.308,-26.212 -6.289,-8.281999 -9.017,-25.413999 -10.178,-37.041999 -1.969,4.303 -3.488,9.94 -3.246,16.962 0.743,21.300999 -5.948,31.676999 -6.038,42.984999 -0.091,11.309 1.636,23.877 7.109,29.265 l 141.364998,-2.616 c 5.274,-5.594 6.535,-18.206 6.028,-29.506 z"
     id="path3342"
     inkscape:connector-curvature="0"
     style="fill:#5a6d82" /><path
     d="m 54.605192,82.251151 c 0,0.233 0.009,0.475 0.017,0.716 0.021,0.509 0.031,1.019 0.039,1.524 0.384,20.199999 -5.961,30.104999 -6.077,41.426999 -0.008,0.911 -0.004,1.817 0.013,2.741 0.216,10.618 1.994,21.745 7.315,27.045 l 1.028,-1.045 c -4.766,-4.609 -6.716,-15.564 -6.885,-26.027 -0.017,-0.906 -0.017,-1.804 -0.009,-2.706 0.052,-10.752 6.449,-20.947 6.082,-41.466999 -0.013,-0.509 -0.025,-1.027 -0.043,-1.549 -0.008,-0.229 -0.012,-0.461 -0.017,-0.686 -0.113,-6.069 1.109,-10.393 2.763,-14.067 -0.147,-1.251 -0.268,-2.46 -0.372,-3.6 -2.184,4.37 -3.988,10.235 -3.854,17.694 z"
     id="path3344"
     inkscape:connector-curvature="0"
     style="fill:#4a5d75" /><polygon
     points="198.71,149.371 198.706,149.371 198.703,149.38 "
     id="polygon3346"
     style="fill:#4a5d75"
     transform="translate(-0.38380809,3.7001507)" /><path
     d="m 204.63119,125.77115 c -0.016,-0.915 -0.05,-1.834 -0.089,-2.737 -0.541,-11.309 -7.312,-20.972 -7.675,-41.166999 -0.014,-0.509 -0.019,-1.023 -0.019,-1.528 0,-0.242 -0.003,-0.479 -0.008,-0.713 -0.345,-18.309 -12.056,-26.748 -12.115,-26.812 l -0.1,-0.082 -0.126,-0.048 c -20.622,-8.158 -49.195,-8.201 -56.869,-8.062 -1.265,0.021 -1.951,0.052 -1.959,0.052 l -1.321,0.026 c 0.009,0 -0.686,-0.009 -1.946,0.018 -7.67,0.151 -36.225998,1.247 -56.537998,10.16 l -0.121,0.056 -0.095,0.086 c -0.035,0.034 -4.014,3.194 -7.191,9.539 0.104,1.14 0.225,2.349 0.372,3.6 0.747,-1.67 1.588,-3.207 2.429,-4.713 2.426,-4.317 4.856,-6.802 5.322,-7.281 19.902,-8.71 48.276998,-9.85 55.846998,-9.984 1.244,-0.026 1.925,-0.021 1.925,-0.021 l 1.364,-0.021 c 0.018,0 0.687,-0.03 1.939,-0.056 7.57,-0.143 35.97,-0.052 56.185,7.92 0.22,0.199 0.818,0.768 1.652,1.718 3.198,3.63 9.642,10.691 9.885,23.934 0.003,0.229 0.008,0.458 0.013,0.687 -0.005,0.518 0.003,1.04 0.014,1.549 0.382,20.514999 7.226,30.467999 7.678,41.206999 0.039,0.894 0.068,1.8 0.081,2.703 0.22,10.458 -1.326,21.473 -5.913,26.272 l 1.07,1.001 c 5.114,-5.494 6.479,-16.69 6.309,-27.303 z"
     id="path3348"
     inkscape:connector-curvature="0"
     style="fill:#4a5d75" /><path
     d="m 192.25419,127.63115 -109.208998,2.029 -0.078,1.001 0.078,-1.001 -22.004,0.406 c 0,0 -4.165,33.348 -13.19,46.114 l 8.899,12.759 c 0,0 3.993,6.061 12.306,3.005 8.305,-3.065 22.863,-7.209 22.699,0.232 -0.065,2.962 -4.878,8.045 -9.875,13.985 -7.493,8.891 -16.212,19.225 -16.329,23.479 -0.189,7.097 -0.841,7.46 0.246,13.105 1.088,5.654 32.885,15.693 61.704998,15.158 l 3.109,-0.061 c 28.822,-0.518 60.231,-11.731 61.107,-17.429 0.876,-5.68 0.22,-6.018 -0.24,-13.095 -0.259,-3.963 -8.104,-13.26 -15.602,-21.393 -5.895,-6.396 -11.83,-11.826 -12.027,-15.089 -0.434,-7.424 14.269,-3.824 22.681,-1.07 8.413,2.754 12.184,-3.453 12.184,-3.453 l 8.423,-13.078 c -9.488,-12.421 -14.883,-45.604 -14.883,-45.604 z"
     id="path3350"
     inkscape:connector-curvature="0"
     style="fill:#4a5d75" /><path
     d="m 207.70919,172.79615 c -4.613,-6.025 -8.353,-17.394 -10.868,-27.2 -2.521,-9.807 -3.862,-18.06 -3.867,-18.077 l -1.449,0.233 c 0.028,0.052 5.228,32.467 14.718,45.511 l -8.146,12.655 c -0.016,0.017 -0.133,0.216 -0.418,0.561 -0.884,1.062 -3.086,3.193 -6.836,3.263 -1.195,0.017 -2.552,-0.163 -4.085,-0.674 -4.854,-1.57 -11.744,-3.453 -16.841,-3.366 -1.868,0.035 -3.517,0.328 -4.782,1.088 -1.276,0.76 -2.079,2.123 -2.028,3.824 0,0.086 0.009,0.189 0.018,0.302 0.328,4.196 9.789,11.844 15.689,19.104 5.913,7.13 11.778,14.425 11.862,17.351 0.279,4.316 0.633,6.164 0.667,8.105 0.023,1.261 -0.081,2.607 -0.422,4.826 -0.013,0.795 -1.969,2.685 -5.444,4.445 -10.376,5.499 -33.415,11.913 -54.879,12.301 l -3.108,0.062 c -14.308,0.267 -29.410998,-2.106 -41.029998,-5.24 -5.806,-1.571 -10.748,-3.323 -14.265,-5.023 -3.54,-1.641 -5.563,-3.453 -5.611,-4.256 -0.423,-2.192 -0.569,-3.54 -0.596,-4.792 -0.039,-1.951 0.246,-3.797 0.367,-8.132 -0.03,-2.926 5.563,-10.437 11.214,-17.774 5.632,-7.484 14.739,-15.46 14.92,-19.707 0,-0.095 0,-0.172 0,-0.251 -0.013,-1.718 -0.868,-3.056 -2.167,-3.755 -1.299,-0.725 -2.957,-0.958 -4.825,-0.923 -5.098,0.104 -11.909,2.235 -16.7,3.997 -1.524,0.552 -2.87,0.793 -4.062,0.811 -2.508,0.052 -4.337,-0.837 -5.576,-1.743 -0.613,-0.457 -1.07,-0.915 -1.369,-1.253 -0.302,-0.336 -0.427,-0.543 -0.427,-0.543 l -8.624,-12.345 c 9.012,-13.38 12.996,-45.958 13.021,-46.02 l -1.454,-0.189 c -0.004,0.017 -1.036,8.313 -3.199,18.214 -2.145,9.885 -5.464,21.383 -9.854,27.581 l -0.298,0.414 9.194,13.173 c 0.039,0.061 2.818,4.266 8.611,4.179 1.364,-0.025 2.878,-0.294 4.545,-0.907 4.705,-1.742 11.485,-3.823 16.22,-3.901 1.727,-0.034 3.16,0.208 4.07,0.726 0.911,0.544 1.377,1.208 1.424,2.512 0,0.069 0,0.13 0,0.199 0.013,3.185 -9.09,11.412 -14.735,18.757 -5.624,7.484 -11.317,14.547 -11.538,18.699 -0.121,4.273 -0.401,6.077 -0.363,8.209 0.022,1.372 0.182,2.849 0.618,5.085 0.5,2.02 2.857,3.582 6.491,5.395 10.934,5.248 34.253998,10.8 56.024998,10.402 l 3.107,-0.052 c 14.511,-0.268 29.617,-3.212 41.254,-6.819 5.819,-1.796 10.767,-3.773 14.347,-5.655 3.562,-1.941 5.862,-3.59 6.286,-5.636 0.346,-2.263 0.461,-3.722 0.427,-5.093 -0.034,-2.143 -0.393,-3.929 -0.659,-8.193 -0.385,-4.151 -6.326,-10.988 -12.228,-18.266 -5.91,-7.122 -15.366,-15.012 -15.466,-18.197 -0.011,-0.096 -0.011,-0.146 -0.013,-0.208 -0.006,-1.285 0.444,-1.977 1.324,-2.546 0.893,-0.544 2.313,-0.854 4.044,-0.881 4.736,-0.094 11.585,1.735 16.359,3.298 1.68,0.553 3.206,0.769 4.566,0.742 5.792,-0.12 8.426,-4.429 8.468,-4.515 l 8.692,-13.484 -0.316,-0.408 z"
     id="path3352"
     inkscape:connector-curvature="0"
     style="fill:#4a5d75" /><path
     d="m 117.76819,129.18515 -34.770998,-0.199 c 0.052,0.147 0.086,0.242 0.086,0.242 l -0.116,1.433 0.116,-1.433 c 0,0 -0.035,-0.095 -0.086,-0.242 l -22.225,-0.138 c 0,0 -2.827,28.816 -12.922,47.332 l 8.891,12.268 c 0,0 3.664,-12.017 17.42,-10.981 13.752,1.036 13.571,7.183 13.571,7.183 0,0 13.163998,1.053 22.219998,-9.772 9.06,-10.833 13.579,-34.813 13.579,-34.813 0,0 2.085,-6.839 -5.763,-10.88 z"
     id="path3354"
     inkscape:connector-curvature="0"
     style="fill:#8598a8" /><path
     d="m 118.11019,128.53015 -0.341,0.656 0.004,-0.742 0,0 -35.038998,-0.19 c 0.225,0.604 0.35,0.976 0.35,0.976 l -0.043,0.484 34.550998,0.189 c 4.614,2.487 5.392,5.792 5.456,7.942 0.026,1.217 -0.232,1.993 -0.216,2.003 -0.025,0.086 -1.139,6.034 -3.396,13.336 -2.24,7.312 -5.637,15.963 -10.044,21.211 -7.083,8.477 -16.789998,9.486 -20.298998,9.548 -0.28,0 -0.513,0 -0.703,0 -0.406,-1.821 -2.754,-6.415 -14.174,-7.201 -0.729,-0.051 -1.433,-0.077 -2.106,-0.06 -9.975,0.208 -14.213,7.277 -15.56,10.256 l -7.834,-10.808 c 9.12,-17.084 12.228,-42.161 12.716,-46.529 l 21.611,0.112 0.043,-0.484 c 0,0 -0.125,-0.371 -0.35,-0.976 l -22.625,-0.129 -0.061,0.665 c -0.004,0.017 -0.703,7.156 -2.671,16.643 -1.96,9.471 -5.185,21.254 -10.169,30.404 l -0.22,0.397 10.027,13.846 0.427,-1.406 c 0,-0.01 0.181,-0.613 0.661,-1.598 1.458,-2.936 5.339,-8.762 14.031,-8.935 0.63,-0.009 1.287,0.009 1.969,0.061 12.996,1.07 12.819,6.293 12.896,6.432 0,0.033 0,0.06 0.005,0.077 l 0.047,0.622 0.622,0.051 c 0.021,0 0.549,0.043 1.451,0.026 3.699,-0.069 13.884998,-1.114 21.390998,-10.065 9.258,-11.119 13.704,-35.108 13.734,-35.151 -0.005,0.026 0.289,-0.941 0.267,-2.374 -0.025,-2.539 -1.169,-6.597 -6.408,-9.289 z"
     id="path3356"
     inkscape:connector-curvature="0"
     style="fill:#4a5d75" /><path
     d="m 135.52519,128.84015 56.759,-2.417 c 0,0 6.043,33.001 14.853,46.813 l -8.431,12.586 c 0,0 -4.103,-11.869 -17.816,-10.324 -13.713,1.545 -13.294,7.674 -13.294,7.674 0,0 -13.117,1.537 -22.565,-8.96 -9.456,-10.471 -14.861,-34.271 -14.861,-34.271 0,0 -2.332,-6.749 5.355,-11.101"
     id="path3358"
     inkscape:connector-curvature="0"
     style="fill:#8598a8" /><path
     d="m 198.00719,186.06515 c -0.005,0.008 -0.206,-0.596 -0.716,-1.562 l 0,0 c -0.516,-0.95 -1.318,-2.228 -2.492,-3.487 l 0,0 c -2.333,-2.539 -6.052,-5.024 -11.865,-4.921 l 0,0 c -0.638,0.009 -1.286,0.052 -1.964,0.129 l 0,0 c -12.788,1.536 -12.586,6.639 -12.649,6.89 l 0,0 0.095,0.707 -0.742,0.078 c -0.022,0.009 -0.544,0.061 -1.442,0.077 l 0,0 c -3.704,0.069 -13.924,-0.587 -21.749,-9.262 l 0,0 c -9.66,-10.765 -14.995,-34.573 -15.003,-34.538 l 0,0 c -0.021,-0.053 -0.346,-1.002 -0.376,-2.452 l 0,0 c -0.073,-2.521 0.915,-6.63 6.061,-9.505 l 0,0 0.357,0.622 -0.033,-0.717 57.399,-2.456 0.112,0.626 c 0.006,0.017 1.507,8.226 4.113,18.179 l 0,0 c 2.6,9.937 6.321,21.615 10.636,28.366 l 0,0 0.259,0.407 -9.516,14.208 -0.485,-1.389 0,0 z m 0.829,-1.752 7.419,-11.093 c -8.083,-13.122 -13.7,-41.471 -14.576,-46.029 l 0,0 -55.951,2.382 c -4.522,2.65 -5.175,5.981 -5.162,8.132 l 0,0 c 0.026,1.226 0.293,1.977 0.315,2.072 l 0,0 c 0.009,0.009 1.337,5.904 3.863,13.13 l 0,0 c 2.512,7.216 6.224,15.729 10.829,20.821 l 0,0 c 7.377,8.209 17.118,8.848 20.633,8.787 l 0,0 c 0.271,0 0.508,-0.017 0.703,-0.026 l 0,0 c 0.336,-1.838 2.508,-6.509 13.896,-7.717 l 0,0 c 0.722,-0.086 1.42,-0.129 2.103,-0.139 l 0,0 c 9.979,-0.162 14.477,6.744 15.928,9.68 l 0,0 z"
     id="path3360"
     inkscape:connector-curvature="0"
     style="fill:#4a5d75" /><path
     d="m 72.319192,185.90915 c -0.937,3.046 -3.215,4.955 -5.098,4.272 -1.873,-0.683 -2.641,-3.695 -1.705,-6.741 0.941,-3.048 3.221,-4.965 5.098,-4.273 1.881,0.674 2.637,3.695 1.705,6.742 z"
     id="path3362"
     inkscape:connector-curvature="0"
     style="fill:#5a6d82" /><path
     d="m 134.16919,184.53615 c -1.139,-10.264 -7.086,-27.909 -7.086,-27.909 0,0 -5.137,17.86 -5.896,28.151 -0.721,9.711 3.047,3.608 5.663,-0.372 0.315,-0.465 0.573,-0.846 0.803,-1.147 0.237,0.293 0.514,0.664 0.841,1.114 2.758,3.884 6.75,9.84 5.675,0.163 z"
     id="path3364"
     inkscape:connector-curvature="0"
     style="fill:#231f20" /><path
     d="m 183.04119,183.86315 c 1.049,3.005 3.402,4.834 5.249,4.084 1.856,-0.76 2.505,-3.799 1.459,-6.804 -1.052,-3.003 -3.399,-4.833 -5.257,-4.082 -1.845,0.751 -2.5,3.79 -1.451,6.802 z"
     id="path3366"
     inkscape:connector-curvature="0"
     style="fill:#5a6d82" /><path
     d="m 57.026192,115.65015 c 0,0 -3.587,6.134 -0.004,12.915 l 25.837,0.017 c -0.613,-1.71 -2.53,-6.678 -5.935,-12.923 l -19.898,-0.009 z"
     id="path3368"
     inkscape:connector-curvature="0"
     style="fill:#b0c2cc" /><path
     d="m 132.57619,115.68015 -55.651998,-0.021 c 3.405,6.245 5.322,11.213 5.935,12.923 l 49.708998,0.017 0.008,-12.919 z"
     id="path3370"
     inkscape:connector-curvature="0"
     style="fill:#b0c2cc" /><path
     d="m 132.57619,116.41315 v -1.467 l -56.053998,-0.026 c 0.28,0.505 0.531,0.98 0.794,1.468 l 55.259998,0.025 z"
     id="path3372"
     inkscape:connector-curvature="0"
     style="fill:#b0c2cc" /><path
     d="m 56.163192,122.20215 c 0,-1.813 0.376,-3.375 0.756,-4.477 0.207,-0.608 0.41,-1.062 0.552,-1.346 l 19.846,0.009 c -0.264,-0.488 -0.514,-0.963 -0.794,-1.468 l -19.916,-0.008 -0.216,0.367 c -0.035,0.06 -1.687,2.883 -1.692,6.923 -0.004,2.011 0.415,4.324 1.67,6.698 l 0.208,0.397 26.497,0.017 0.009,-0.086 c 0,0 -0.164,-0.501 -0.505,-1.381 l -25.107,-0.009 c -0.984,-2.011 -1.308,-3.936 -1.308,-5.636 z"
     id="path3374"
     inkscape:connector-curvature="0"
     style="fill:#b0c2cc" /><path
     d="m 83.074192,129.31515 49.493998,0.018 v -1.468 l -49.989998,-0.017 c 0.341,0.88 0.505,1.381 0.505,1.381 l -0.009,0.086 z"
     id="path3376"
     inkscape:connector-curvature="0"
     style="fill:#b0c2cc" /><path
     d="m 120.47019,115.67515 75.555,0.031 c 0,0 3.574,6.138 -0.003,12.918 l -75.557,-0.035"
     id="path3378"
     inkscape:connector-curvature="0"
     style="fill:#b0c2cc" /><path
     d="m 120.47019,129.32415 v -1.459 l 75.102,0.026 c 0.971,-2.007 1.303,-3.928 1.303,-5.633 l 0,0 c 0,-1.813 -0.371,-3.372 -0.753,-4.477 l 0,0 c -0.204,-0.604 -0.408,-1.057 -0.544,-1.342 l 0,0 -75.104,-0.035 v -1.463 l 75.966,0.03 0.215,0.363 c 0.031,0.064 1.684,2.892 1.689,6.923 l 0,0 c 0,2.011 -0.429,4.329 -1.682,6.711 l 0,0 -0.201,0.388 -75.991,-0.032 0,0 z"
     id="path3380"
     inkscape:connector-curvature="0"
     style="fill:#b0c2cc" /><linearGradient
     id="SVGID_1_"
     gradientUnits="userSpaceOnUse"
     x1="125.9761"
     y1="-9.3823004"
     x2="127.0766"
     y2="133.69141"><stop
       offset="0"
       style="stop-color:#FFFFFF"
       id="stop3383" /><stop
       offset="0.2684"
       style="stop-color:#F9FBFC"
       id="stop3385" /><stop
       offset="0.6133"
       style="stop-color:#E9EFF2"
       id="stop3387" /><stop
       offset="0.9988"
       style="stop-color:#CFDBE2"
       id="stop3389" /><stop
       offset="1"
       style="stop-color:#CFDBE2"
       id="stop3391" /></linearGradient><polyline
     points="123.042,123.638 126.936,138.883 127.1,141.326 127.311,140.368 127.553,141.317   127.63,138.875 130.955,123.491 "
     id="polyline3393"
     style="fill:url(#SVGID_1_)"
     transform="translate(-0.38380809,3.7001507)" /><polygon
     points="126.224,140.101 122.357,124.924 122.357,124.924 123.777,124.562 127.268,138.27 130.259,124.44 131.687,124.751 128.377,140.065 128.303,142.448 127.851,142.491 127.834,142.595 127.346,142.552 127.346,142.552 126.862,142.613 126.836,142.509 126.388,142.483 "
     id="polygon3395"
     style="fill:#4a5d75"
     transform="translate(-0.38380809,3.7001507)" /><path
     d="m 53.293192,62.858151 5.473,4.722 c -0.526,-4.852 -0.785,-8.909 -0.901,-11.274 -3.144,3.842 -4.572,6.552 -4.572,6.552 z"
     id="path3397"
     inkscape:connector-curvature="0"
     style="fill:#4a5d75" /><path
     d="m 138.37819,32.394151 c -47.045998,-8.628 -71.255998,12.599 -80.513998,23.912 0.116,2.366 0.375,6.423 0.901,11.274 l 17.641,15.236 110.295998,-29.411 c 0,0.001 14.705,-9.456 -48.324,-21.011 z"
     id="path3399"
     inkscape:connector-curvature="0"
     style="fill:#4a5d75" /><path
     d="m 58.235192,121.60215 c -0.095,-1.041 -0.902,-3.531 -2.011,-5.943 l 0,0 c -1.096,-2.46 -2.46,-5.003 -3.522,-6.819 l 0,0 c -0.518,-0.889 -1.001,-1.658 -1.26,-2.033 l 0,0 c -2.612,-2.081 -16.415,-14.398999 -26.963,-46.985999 l 0,0 c -1.191,-3.785 -4.64,-9.634 -8.456,-15.094 l 0,0 c -3.82,-5.495 -7.9980001,-10.747 -10.7120001,-14.049 l 0,0 c -1.804,-2.201 -2.939,-3.509 -2.944,-3.513 l 0,0 -2.75099999,-3.157 3.01299999,-2.909 c 0.112,-0.1 4.441,-4.278 10.6570001,-8.542 l 0,0 c 6.246,-4.2130003 14.226,-8.7620003 22.738,-8.8570003 l 0,0 c 3.984,-0.026 8.214,1.195 11.623,4.169 l 0,0 c 5.611,4.8130003 8.957,10.1610003 10.717,15.4690003 l 0,0 c 1.774,5.304 2.046,10.462 2.05,15.128 l 0,0 c -0.004,2.629 -0.095,5.119 -0.095,7.424 l 0,0 c -0.004,3.255 0.19,6.116 0.864,8.49 l 0,0 c 0.682,2.378 1.717,4.299 3.759,6.211 l 0,0 c 3.449,3.129 6.82,4.217 10.821,4.255 l 0,0 c 9.275,0.164 21.676,-7.541 32.138998,-14.39 l 0,0 c 5.844,-3.734 15.569,-7.675 27.567,-10.881 l 0,0 c 11.965,-3.177 26.079,-5.508 40.253,-5.512 l 0,0 c 13.025,0.008 26.14,1.968 37.639,7.281 l 0,0 c 15.24,7.079 24.396,14.093 29.863,20.645 l 0,0 c 5.474,6.518 7.107,12.676 7.087,17.148 l 0,0 c -0.006,4.148 -1.3,6.729 -1.54,7.174 l 0,0 -1.577,2.931 -3.245,-0.708 c 0,0.005 -0.053,-0.017 -0.299,-0.06 l 0,0 c -0.253,-0.048 -0.65,-0.108 -1.163,-0.173 l 0,0 c -1.025,-0.129 -2.534,-0.259 -4.339,-0.259 l 0,0 c -5.227,-0.004 -12.719,1.131 -18.87,6.186 l 0,0 c -3.281,2.688 -6.38,5.572 -8.783,8.092999 l 0,0 c -2.383,2.456 -4.132,4.795 -4.391,5.408 l 0,0 -0.293,0.587 -11.318,12.007 -0.146,0.108 c -0.047,0.073 -0.128,0.203 -0.206,0.372 l 0,0 c -0.23,0.466 -0.51,1.226 -0.743,2.08 l 0,0 c -0.486,1.722 -0.837,3.79 -1.015,5.11 l 0,0 c -0.12,0.881 -0.167,1.398 -0.167,1.398 l 0,0 v 0.009 l -8.766,-0.837 c 0.047,-0.19 0.474,-5.802 2.257,-10.441 l 0,0 c 0.612,-1.433 1.227,-2.896 2.795,-4.286 l 0,0 10.071,-10.678 c 1.239,-2.145 3.099,-4.311999 5.552,-6.918999 l 0,0 c 2.68,-2.806 6.007,-5.905 9.573,-8.827 l 0,0 c 8.423,-6.863 18.067,-8.175 24.45,-8.179 l 0,0 c 1.242,0 2.369,0.047 3.353,0.125 l 0,0 c 0.006,-0.073 0.006,-0.147 0.006,-0.221 l 0,0 c -0.031,-2.451 -0.743,-6.306 -5.05,-11.511 l 0,0 c -4.307,-5.179 -12.354,-11.593 -26.805,-18.288 l 0,0 c -9.879,-4.593 -21.78,-6.474 -33.93,-6.465 l 0,0 c -13.203,-0.005 -26.66,2.201 -37.991,5.218 l 0,0 c -11.312,2.982 -20.614,6.884 -25.068,9.776 l 0,0 c -10.558,6.66 -23.376998,15.616 -36.898998,15.78 l 0,0 c -5.832,0.04 -11.831,-1.959 -16.791,-6.586 l 0,0 c -3.297,-3.017 -5.274,-6.664 -6.28,-10.315 l 0,0 c -1.01,-3.665 -1.169,-7.312 -1.173,-10.855 l 0,0 c 0,-2.516 0.086,-4.989 0.082,-7.424 l 0,0 c 0.004,-4.321 -0.276,-8.434 -1.593,-12.331 l 0,0 c -1.321,-3.898 -3.596,-7.683 -8.106,-11.589 l 0,0 c -1.718,-1.455 -3.5,-2.016 -5.878,-2.046 l 0,0 c -4.398,-0.06 -10.476,2.59 -15.608,5.896 l 0,0 c -3.431,2.18 -6.474,4.558 -8.598,6.332 l 0,0 c 1.899,2.297 4.562,5.603 7.385,9.362 l 0,0 c 5.352,7.208 11.239,15.746 13.656,23.014 l 0,0 c 10.014,30.848 22.596,41.613 24.063,42.8 l 0,0 c 0.186,0.142999 0.302,0.258999 0.44,0.335999 l 0,0 c 0.284,0.255 0.427,0.41 0.556,0.557 l 0,0 c 0.242,0.281 0.401,0.492 0.574,0.742 l 0,0 c 0.35,0.466 0.691,1.015 1.101,1.675 l 0,0 c 0.811,1.312 1.796,3.034 2.792,4.968 l 0,0 c 1.99,3.933 4.058,8.287 4.597,12.417 l 0,0 c 0.932,8.171 0.932,8.171 0.932,8.171 l 0,0 -8.753,1.001 c 0.001,0 0.001,0 -0.927,-8.17 l 0,0 z"
     id="path3401"
     inkscape:connector-curvature="0"
     style="fill:#b0c2cc" /><linearGradient
     id="SVGID_2_"
     gradientUnits="userSpaceOnUse"
     x1="152.3286"
     y1="70.363297"
     x2="152.3286"
     y2="124.9599"
     gradientTransform="translate(-0.38380809,3.7001507)"><stop
       offset="0"
       style="stop-color:#FFFFFF"
       id="stop3404" /><stop
       offset="0.2684"
       style="stop-color:#F9FBFC"
       id="stop3406" /><stop
       offset="0.6133"
       style="stop-color:#E9EFF2"
       id="stop3408" /><stop
       offset="0.9988"
       style="stop-color:#CFDBE2"
       id="stop3410" /><stop
       offset="1"
       style="stop-color:#CFDBE2"
       id="stop3412" /></linearGradient><path
     d="m 211.50319,45.343151 c -33.93,-15.732 -86.19,-0.846 -101.219,8.818 -15.037998,9.668 -34.364998,22.553 -48.323998,9.668 -1.809,-1.67 -3.077,-3.487 -3.979,-5.425 0.617,9.893 2.905,34.219 10.795,44.611999 10.03,13.212 14.308,26.212 14.308,26.212 l 104.745998,-0.242 c 0,0 0.932,-9.932 3.737,-11.977 l 10.594,-11.235 c 1.479,-2.982 7.474,-9.344999 14.327,-14.946999 12.354,-10.109 28.407,-6.595 28.407,-6.595 0,0 10.086,-18.733 -33.392,-38.889 z"
     id="path3414"
     inkscape:connector-curvature="0"
     style="fill:url(#SVGID_2_)" /><linearGradient
     id="SVGID_3_"
     gradientUnits="userSpaceOnUse"
     x1="17.014601"
     y1="3.605"
     x2="77.198502"
     y2="101.9544"
     gradientTransform="translate(-0.38380809,3.7001507)"><stop
       offset="0"
       style="stop-color:#FFFFFF"
       id="stop3417" /><stop
       offset="0.1755"
       style="stop-color:#F9FBFB"
       id="stop3419" /><stop
       offset="0.4012"
       style="stop-color:#E9EFF1"
       id="stop3421" /><stop
       offset="0.6543"
       style="stop-color:#CFDBE0"
       id="stop3423" /><stop
       offset="0.9256"
       style="stop-color:#AAC0C8"
       id="stop3425" /><stop
       offset="1"
       style="stop-color:#9FB7C1"
       id="stop3427" /></linearGradient><path
     d="m 57.980192,58.404151 c -0.009,-0.021 -0.018,-0.039 -0.026,-0.056 -5.969,-13.01 5.072,-31.419 -13.177,-47.138 -13.471,-11.6110003 -39.0920001,13.065 -39.0920001,13.065 0,0 18.9780001,21.827 22.9840001,34.185 11.17,34.461 25.776,45.099999 25.776,45.099999 0.526,0.073 7.506,11.81 8.167,17.541 0.928,8.179 0.928,8.179 0.928,8.179 l 19.544,-0.052 c 0,0 -4.278,-13 -14.308,-26.212 -7.891,-10.393999 -10.179,-34.718999 -10.796,-44.611999 z"
     id="path3429"
     inkscape:connector-curvature="0"
     style="fill:url(#SVGID_3_)" /><path
     d="m 39.032192,27.422151 c 5.115,-3.077 11.05,-5.71 16.92,-5.753 l 0,0 c 0.052,0 0.156,0 0.298,0.004 l 0,0 -0.177,4.398 c 0,0 -0.039,0 -0.121,0 l 0,0 c -4.597,-0.069 -10.083,2.37 -14.921,5.301"
     id="path3431"
     inkscape:connector-curvature="0"
     style="fill:#b0c2cc" /><path
     d="m 61.174192,34.712151 0.19,-4.58 c -0.151,-0.004 -0.25,-0.004 -0.302,-0.004 -7.445,0.052 -14.96,4.217 -20.83,8.202 -5.84,4.009 -9.962,7.98 -10.023,8.037 l 1.692,4.419 1.493,-1.118 c 0,0 0.954,-0.915 2.629,-2.334 4.963,-4.321 16.544,-12.755 25.038,-12.621 0.087,-0.001 0.113,-0.001 0.113,-0.001 z"
     id="path3433"
     inkscape:connector-curvature="0"
     style="fill:#b0c2cc" /><path
     d="m 63.026192,45.765151 0.194,-5.127 c -0.155,-0.008 -0.255,-0.004 -0.293,-0.004 -7.018,0.056 -13.976,3.933 -19.41,7.623 -5.399,3.712 -9.206,7.372 -9.271,7.432 l 1.467,5.374 c 0.004,0 2.952,-2.512 4.489,-3.812 4.523,-3.953 15.176,-11.641 22.725,-11.485 0.081,-10e-4 0.099,-10e-4 0.099,-10e-4 z"
     id="path3435"
     inkscape:connector-curvature="0"
     style="fill:#b0c2cc" /><path
     d="m 58.023192,52.059151 c -3.803,1.484 -7.376,3.643 -10.466,5.736 -5.404,3.712 -9.207,7.373 -9.272,7.437 l 1.986,4.636 c 0.004,0 2.43,-1.774 3.967,-3.078 2.878,-2.512 8.239,-6.522 13.704,-9.077 -0.134,-2.271 -0.173,-3.621 -0.173,-3.621 l 0.254,-2.033 z"
     id="path3437"
     inkscape:connector-curvature="0"
     style="fill:#b0c2cc" /><path
     d="m 59.659192,51.468151 c -0.548,0.181 -1.096,0.384 -1.636,0.591 l -0.255,2.033 c 0,0 0.039,1.351 0.173,3.621 1.019,-0.479 2.045,-0.924 3.056,-1.282 l -1.338,-4.963 z"
     id="path3439"
     inkscape:connector-curvature="0"
     style="fill:#b0c2cc" /><path
     d="m 56.806192,69.889151 c 0.604,-0.368 1.252,-0.734 1.942,-1.123 l -0.432,-4.951 c -1.48,0.748 -2.335,1.188 -3.203,1.705 l 1.693,4.369 z"
     id="path3441"
     inkscape:connector-curvature="0"
     style="fill:#b0c2cc" /><path
     d="m 59.620192,74.352151 c 0.22,1.468 0.458,2.961 0.717,4.468 l -0.527,-4.593 c -0.065,0.043 -0.121,0.082 -0.19,0.125 z"
     id="path3443"
     inkscape:connector-curvature="0"
     style="fill:#b0c2cc" /><path
     d="m 57.484192,75.755151 c -5.849,4.019 -10.73,8.736 -10.787,8.792 l 2.456,3.668 1.489,-1.118 c 0.004,0 0.95,-0.915 2.624,-2.334 1.718,-1.498 4.23,-3.488 7.135,-5.438 l -0.064,-0.505 c -0.259,-1.507 -0.583,-2.896 -0.794,-4.36 -0.73,0.462 -1.373,0.829 -2.059,1.295 z"
     id="path3445"
     inkscape:connector-curvature="0"
     style="fill:#abbcc4" /><path
     d="m 60.764192,85.682151 c -5.404,3.716 -8.498,6.695 -8.563,6.755 l 3.306,4.036 c 0.004,0 0.41,-0.492 1.942,-1.792 1.303,-1.139 3.233,-2.779 5.334,-4.264 l -1.196,-5.284 c -0.279,0.186 -0.547,0.368 -0.823,0.549 z"
     id="path3447"
     inkscape:connector-curvature="0"
     style="fill:#a2b4bc" /><path
     d="m 59.387192,99.912151 2.538,4.264999 c 0.004,0 1.882,-1.402 3.418,-2.706 0.311,-0.281 1.161,-1.2 1.541,-1.510999 l -2.508,-4.325 c -3.033,2.387 -4.946,4.231 -4.989,4.277 z"
     id="path3449"
     inkscape:connector-curvature="0"
     style="fill:#b0c2cc" /><polygon
     points="67.2,111.79 68.179,116.443 79.375,115.614 76.596,111.086 "
     id="polygon3451"
     style="fill:#8e9fa5"
     transform="translate(-0.38380809,3.7001507)" /><polygon
     points="69.401,120.85 69.401,125.002 84.572,125.002 81.879,120.599 "
     id="polygon3453"
     style="fill:#8e9fa5"
     transform="translate(-0.38380809,3.7001507)" /><path
     d="m 219.03419,78.189151 c -4.804,-4.398 -11.684,-9.042 -21.516,-13.743 -9.922,-4.739 -21.357,-6.517 -32.794,-6.522 -24.914,0.048 -49.71,8.343 -59.495,14.766 -9.339998,6.254 -20.501998,14.083 -29.617998,13.506 -5.797,-0.363 -11.96,-4.148 -15.34,-7.338 l 1.472,6.06 c 0,0 6.051,5.132 13.791,5.685 0.026,0.004 0.051,0 0.078,0 11.196,-0.082 22.539,-8.05 31.931998,-14.209 8.571,-5.744 33.282,-14.118 57.181,-14.066 11.002,0 21.857,1.739 30.994,6.111 9.548,4.562 14.702,7.674 19.103,11.706 l 4.219,-1.955 h -0.007 z"
     id="path3455"
     inkscape:connector-curvature="0"
     style="fill:#c6d4db" /><path
     d="m 188.07519,74.417151 c -8.996,-4.29 -19.354,-5.9 -29.7,-5.904 -22.543,0.052 -44.94,7.531 -53.832,13.367 -8.437998,5.65 -18.481998,12.09 -26.634998,12.163 -5.339,0.048 -12.051,-1.333 -15.063,-4.173 l 1.648,4.955 c 0,0 5.141,2.936 13.341,3.622 0.025,0 0.048,0 0.073,0 10.212,-0.083 20.463,-7.303 28.943998,-12.863 7.688,-5.154 29.995,-12.716 51.523,-12.664 9.919,-0.004 19.689,1.567 27.903,5.5 8.606,4.104 13.904,7.639 17.866,11.27 l 3.413,-2.828 c -4.36,-3.99 -10.589,-8.198 -19.481,-12.445 z"
     id="path3457"
     inkscape:connector-curvature="0"
     style="fill:#c6d4db" /><path
     d="m 179.31319,85.078151 c -8.062,-3.587 -17.338,-4.934 -26.595,-4.934 -20.17,0.043 -40.164,6.276 -48.162,11.166 -7.531998,4.705 -16.483998,10.168999 -23.656998,10.090999 -3.082,-0.016 -12.283,-0.275 -14.934,-2.605999 l 3.302,4.794999 c 0,0 4.95,2.582 11.545,1.899 0.03,0 0.056,0 0.086,0 9.215,-0.077 18.378,-6.120999 25.948998,-10.746999 6.807,-4.26 26.701,-10.562 45.87,-10.519 8.83,0 17.522,1.308 24.813,4.562 7.665,3.418 13.747,8.088 17.252,11.088 l 2.921,-3.405 v -0.678 c -3.914,-3.34 -10.438,-7.16 -18.39,-10.712 z"
     id="path3459"
     inkscape:connector-curvature="0"
     style="fill:#c6d4db" /><path
     d="m 74.645192,111.69615 c -0.859,-1.416 -1.778,-2.866 -2.78,-4.351 0.001,0 1.826,3.945 2.78,4.351 z"
     id="path3461"
     inkscape:connector-curvature="0"
     style="fill:#c6d4db" /><path
     d="m 105.14419,100.14615 c -6.897998,4.26 -15.093998,9.198 -21.663998,9.128 -2.827,-0.017 -9.949,-0.427 -12.378,-2.533 l 0.764,1.057 c 1.001,1.364 1.864,2.707 2.724,4.01 1.731,0.677 4.92,1.554 8.814,1.161 0.021,0 0.051,0 0.077,0 8.442,-0.078 16.824998,-5.538 23.760998,-9.716 6.228,-3.849999 24.447,-9.550999 42.001,-9.512999 v -3.69 c -18.473,0.043 -36.774,5.676 -44.099,10.095999 z"
     id="path3463"
     inkscape:connector-curvature="0"
     style="fill:#c6d4db" /><path
     d="m 78.767192,119.18015 c -0.743,-1.493 -1.605,-3.116 -2.555,-4.808 0,0 1.882,4.506 2.555,4.808 z"
     id="path3465"
     inkscape:connector-curvature="0"
     style="fill:#c6d4db" /><path
     d="m 169.67919,103.36615 c -6.759,-3.012 -14.537,-4.134999 -22.293,-4.139999 -16.91,0.035 -33.67,5.261999 -40.369,9.366999 -6.311,3.949 -13.820998,8.529 -19.828998,8.464 -2.594,-0.013 -8.866,-0.608 -11.088,-2.568 l 0.112,0.298 c 0.95,1.58 2.033,3.133 2.78,4.528 1.502,0.635 4.304,1.562 8.124,1.169 0.025,0 0.047,0 0.073,0 7.721,-0.065 15.360998,-4.903 21.709998,-8.779 5.702,-3.569 22.647,-8.477 38.712,-8.442 7.403,0 14.623,1.122 20.734,3.854 6.428,2.866 11.975,8.024 14.919,10.541 l 1.595,-4.472 c -3.28,-2.807 -8.515,-6.842 -15.18,-9.82 z"
     id="path3467"
     inkscape:connector-curvature="0"
     style="fill:#bfccd1" /><path
     d="m 166.58519,113.02115 c -6.185,-2.473 -13.299,-3.396 -20.398,-3.396 -15.479,0.026 -30.814,4.316 -36.947,7.683 -5.775,3.242 -12.645998,6.992 -18.149998,6.94 -2.365,-0.012 -8.537,-0.186 -10.57,-1.787 l 2.201,3.798 c 0,0 3.013,1.692 8.076,1.217 0.021,0 0.95,0 0.976,0 7.07,-0.043 13.764998,-3.906 19.578998,-7.087 5.21,-2.931 20.519,-6.638 35.219,-6.608 6.778,0 13.252,0.695 18.836,2.939 5.89,2.352 11.392,6.764 13.951,9.297 l 1.959,-3.94 c -3.006,-2.301 -8.628,-6.617 -14.732,-9.056 z"
     id="path3469"
     inkscape:connector-curvature="0"
     style="fill:#abbcc4" /><path
     d="m 103.45619,129.27115 c 2.62,-0.984 5.24,-2.192 7.653,-3.306 5.723,-2.607 20.032,-5.918 34.473,-5.943 6.621,0.004 13.261,0.716 19.035,2.624 5.136,1.709 9.91,4.597 12.85,6.444 l -7.528,0.112 c -2.57,-1.649 -4.506,-2.409 -7.584,-3.432 -5.217,-1.735 -10.561,-2.206 -16.884,-2.206 -13.717,-0.022 -25.587,2.624 -30.455,4.895 -0.976,0.44 -1.045,0.38 -2.081,0.854 l -9.479,-0.042 z"
     id="path3471"
     inkscape:connector-curvature="0"
     style="fill:#a1b1b7" /><path
     d="m 153.90819,92.989151 c 0,0.738 -0.599,1.343 -1.338,1.343 -0.746,0 -1.347,-0.604 -1.347,-1.343 0,-0.742 0.601,-1.347 1.347,-1.347 0.739,0 1.338,0.605 1.338,1.347 z"
     id="path3473"
     inkscape:connector-curvature="0"
     style="fill:#c6d4db" /><path
     d="m 48.364192,120.48815 v 1.614 l 31.807,0.013 c -0.237,-0.518 -0.488,-1.053 -0.756,-1.619 l -31.051,-0.008 z"
     id="path3475"
     inkscape:connector-curvature="0"
     style="fill:#4a5d75" /><path
     d="m 214.98719,120.56115 -135.571998,-0.064 c 0.268,0.565 0.519,1.101 0.756,1.619 l 134.815998,0.06 v -1.615 z"
     id="path3477"
     inkscape:connector-curvature="0"
     style="fill:#4a5d75" /><rect
     x="104.7962"
     y="117.93115"
     width="12.845"
     height="6.461"
     id="rect3479"
     style="fill:#4a5d75" /><rect
     x="135.40419"
     y="117.94315"
     width="12.843"
     height="6.4619999"
     id="rect3481"
     style="fill:#4a5d75" /><path
     d="m 66.233192,216.72815 c -0.475,-0.778 -0.647,-1.649 -0.647,-2.401 l 0,0 c 0.086,-2.382 1.2,-4.064 2.616,-5.999 l 0,0 c 1.455,-1.883 3.397,-3.824 5.62,-5.629 l 0,0 c 1.964,-1.675 3.885,-3.081 5.659,-4.126 l 0,0 c 1.821,-1.019 3.289,-1.786 5.279,-1.848 l 0,0 c 0.984,-0.068 2.667,0.433 3.5,1.831 l 0,0 c 0.535,0.846 0.665,1.7 0.665,2.408 l 0,0 c -0.069,2.149 -0.95,3.858 -2.18,5.896 l 0,0 c -1.252,1.994 -2.961,4.118 -5.05,6.146 l 0,0 -2.045,-2.106 1.989,2.149 c -3.901,3.479 -7.579,5.68 -11.226,5.818 l 0,0 c -0.039,0 -0.073,0 -0.112,0 l 0,0 c -1.293,0 -3.02,-0.517 -4.068,-2.139 l 0,0 z m 11.351,-9.524 c -1.856,1.512 -3.436,3.082 -4.523,4.438 l 0,0 c -0.19,0.232 -0.363,0.457 -0.522,0.673 l 0,0 c 1.424,-0.673 3.324,-1.856 5.067,-3.522 l 0,0 -0.005,-0.008 c 1.559,-1.485 2.875,-3.108 3.82,-4.507 l 0,0 c -1.156,0.769 -2.464,1.754 -3.837,2.926 l 0,0 z"
     id="path3483"
     inkscape:connector-curvature="0"
     style="fill:#4a5d75" /><path
     d="m 71.046192,220.13615 h -0.018 c -0.065,0 -0.104,-0.008 -0.112,-0.008 l 0,0 0,0 c -1.244,-0.009 -2.625,-0.319 -3.786,-1.363 l 0,0 1.407,-1.537 c -0.005,-0.009 -0.009,-0.009 -0.013,-0.009 l 0,0 -1.433,1.51 c -1.14,-1.052 -1.609,-2.598 -1.588,-3.823 l 0,0 c 0.013,-1.382 0.401,-2.581 0.915,-3.737 l 0,0 c 1.2,-2.642 3.268,-5.404 5.909,-8.098 l 0,0 c 1.912,-1.994 3.803,-3.765 5.676,-5.128 l 0,0 c 1.874,-1.329 3.682,-2.399 5.935,-2.599 l 0,0 0,0 c 0.043,0 0.134,-0.009 0.28,-0.009 l 0,0 c 1.053,0 2.275,0.32 3.268,1.312 l 0,0 c 1.114,1.131 1.433,2.607 1.416,3.746 l 0,0 c -0.008,1.363 -0.333,2.547 -0.734,3.79 l 0,0 c -0.569,1.623 -1.428,3.366 -2.546,5.146 l 0,0 0.294,0.12 -2.538,3.029 -1.338,1.668 -0.129,-0.062 c -3.237,3.384 -6.789,5.784 -10.743,6.043 l 0,0 -0.052,0.008 h -0.07 l 0,10e-4 z m 5.295,-10.756 c 0.367,-0.371 0.726,-0.768 1.075,-1.182 l 0,0 0.021,-0.026 c 0,0 0,-0.009 0.005,-0.009 l 0,0 c -0.388,0.407 -0.751,0.812 -1.101,1.217 l 0,0 z m 1.368,-1.553 c 0.021,-0.026 0.039,-0.044 0.056,-0.069 l 0,0 -0.958,-0.872 c -0.013,0.009 -0.022,0.017 -0.035,0.025 l 0,0 0.937,0.916 0,0 z"
     id="path3485"
     inkscape:connector-curvature="0"
     style="fill:#4a5d75" /><path
     d="m 78.555192,225.50615 c -1.917,-1.079 -2.689,-3.271 -2.633,-4.964 l 0,0 c 0.078,-3.409 1.856,-6.829 4.537,-10.315 l 0,0 c 1.705,-2.271 3.518,-4.195 5.304,-5.654 l 0,0 c 1.834,-1.425 3.449,-2.563 5.853,-2.667 l 0,0 c 0.678,0 1.515,0.146 2.197,0.552 l 0,0 c 2.18,1.304 2.529,3.427 2.542,5.075 l 0,0 c -0.039,3.048 -1.239,6.519 -3.367,10.145 l 0,0 -2.521,-1.503 2.486,1.554 c -1.528,2.435 -3.358,4.454 -5.287,5.939 l 0,0 c -1.947,1.45 -3.945,2.495 -6.306,2.538 l 0,0 c -0.008,0 -0.013,0 -0.021,0 l 0,0 c -0.893,-0.001 -1.855,-0.19 -2.784,-0.7 l 0,0 z m 10.916,-16.385 c -1.312,1.062 -2.87,2.703 -4.359,4.688 l 0,0 c -2.098,2.564 -3.207,5.284 -3.314,6.458 l 0,0 c 0.513,-0.155 1.39,-0.544 2.301,-1.261 l 0,0 c 1.299,-0.993 2.714,-2.538 3.88,-4.395 l 0,0 0,0 c 1.407,-2.339 2.206,-4.695 2.438,-6.189 l 0,0 c -0.294,0.191 -0.609,0.424 -0.946,0.699 l 0,0 z"
     id="path3487"
     inkscape:connector-curvature="0"
     style="fill:#4a5d75" /><path
     d="m 81.158192,227.00815 c -0.064,0 -0.117,-0.009 -0.146,-0.009 l 0,0 c -1.053,-0.008 -2.137,-0.232 -3.142,-0.786 l 0,0 0.949,-1.709 c -0.008,-0.008 -0.021,-0.008 -0.03,-0.017 l 0,0 -0.993,1.683 c -2.029,-1.148 -2.943,-3.495 -2.875,-5.343 l 0,0 c 0,-1.329 0.302,-2.599 0.747,-3.833 l 0,0 c 0.833,-2.322 2.245,-4.73 4.092,-7.087 l 0,0 c 1.761,-2.253 3.583,-4.266 5.486,-5.828 l 0,0 c 1.916,-1.544 3.91,-2.761 6.336,-2.96 l 0,0 c 0.164,-0.017 0.263,-0.017 0.28,-0.017 l 0,0 c 0.833,0.008 1.727,0.163 2.672,0.716 l 0,0 c 2.141,1.312 2.745,3.713 2.706,5.508 l 0,0 c -0.009,1.277 -0.225,2.521 -0.54,3.842 l 0,0 c -0.561,2.132 -1.519,4.419 -2.926,6.784 l 0,0 c -3.065,4.723 -7.126,8.529 -12.167,9.021 l 0,0 -0.199,0.035 h -0.25 l 0,0 z m 4.696,-12.94 c -1.343,1.719 -2.288,3.444 -2.75,4.723 l 0,0 c 0.169,-0.112 0.337,-0.233 0.514,-0.371 l 0,0 c 1.157,-0.889 2.478,-2.297 3.522,-3.989 l 0,0 c 0.846,-1.381 1.476,-2.762 1.882,-3.952 l 0,0 c -1.006,0.939 -2.115,2.14 -3.112,3.513 l 0,0 -1.205,-0.872 c -0.009,0.018 -0.022,0.026 -0.031,0.034 l 0,0 1.18,0.914 0,0 z"
     id="path3489"
     inkscape:connector-curvature="0"
     style="fill:#4a5d75" /><path
     d="m 92.657192,231.48015 c -1.446,-0.457 -2.659,-1.545 -3.315,-2.779 l 0,0 c -0.669,-1.253 -0.902,-2.573 -0.902,-3.911 l 0,0 c 0.018,-2.779 0.985,-5.74 2.655,-8.675 l 0,0 c 1.424,-2.581 3.085,-4.834 4.847,-6.535 l 0,0 c 1.8,-1.658 3.574,-3.013 6.166998,-3.108 l 0,0 c 0.476,0 1.02,0.062 1.511,0.225 l 0,0 c 1.679,0.519 2.767,1.865 3.302,3.135 l 0,0 c 0.553,1.302 0.747,2.685 0.751,4.151 l 0,0 c 0,2.331 -0.527,4.955 -1.559,7.656 l 0,0 -2.741,-1.062 2.719,1.105 c -1.131,2.796 -2.767,5.197 -4.679,6.983 l 0,0 c -1.915998,1.771 -4.116998,3.081 -6.753998,3.117 l 0,0 c -0.009,0 -0.021,0 -0.03,0 l 0,0 c -0.656,0.001 -1.308,-0.095 -1.972,-0.302 l 0,0 z m 2.002,-5.569 c 0.341,0.052 1.532,-0.362 2.74,-1.527 l 0,0 c 1.213,-1.14 2.435,-2.875 3.253998,-4.903 l 0,0 0,0 c 0.794,-2.089 1.153,-4.083 1.149,-5.499 l 0,0 c 0.004,-0.613 -0.069,-1.105 -0.147,-1.441 l 0,0 c -0.017,0.008 -0.03,0.018 -0.047,0.025 l 0,0 c -0.411,0.233 -0.98,0.648 -1.588,1.243 l 0,0 c -1.229998,1.174 -2.615998,2.996 -3.801998,5.188 l 0,0 c -1.33,2.27 -1.925,4.498 -1.913,5.792 l 0,0 c 0,0.621 0.133,0.992 0.19,1.088 l 0,0 c 0,0 0.004,0.018 -0.022,0.018 l 0,0 c 0.044,0.009 0.104,0.016 0.186,0.016 l 0,0 z"
     id="path3491"
     inkscape:connector-curvature="0"
     style="fill:#4a5d75" /><path
     d="m 94.556192,232.57515 c -0.064,0 -0.104,0 -0.121,0 l 0,0 0,0 c -0.759,-0.008 -1.532,-0.094 -2.296,-0.336 l 0,0 0.54,-1.709 -0.54,1.709 -0.077,-0.026 -0.035,-0.009 c -1.528,-0.544 -2.845,-1.64 -3.591,-2.97 l 0,0 c -0.759,-1.329 -1.005,-2.779 -1.005,-4.16 l 0,0 c 0,-1.174 0.177,-2.349 0.475,-3.53 l 0,0 c 0.479,-1.856 1.281,-3.781 2.374,-5.663 l 0,0 c 1.468,-2.581 3.125,-4.903 5.011,-6.742 l 0,0 c 1.878,-1.796 4.036,-3.255 6.802998,-3.471 l 0,0 c 0.039,0 0.112,-0.008 0.229,-0.008 l 0,0 c 0.565,0 1.166,0.077 1.778,0.293 l 0,0 0.082,0.026 0.018,0.009 c 1.679,0.595 2.952,1.976 3.556,3.418 l 0,0 c 0.635,1.433 0.812,2.918 0.816,4.445 l 0,0 c 0,1.011 -0.086,2.029 -0.237,3.125 l 0,0 c -0.069,0.432 -0.156,0.872 -0.259,1.312 l 0,0 0.349,0.052 -1.42,3.487 c -0.004,0.009 -0.013,0.018 -0.017,0.025 l 0,0 -0.79,2.09 -0.182,-0.026 c -2.417,4.567 -6.188998,8.279 -11.307998,8.658 l 0,0 h -0.069 -0.084 l 0,0.001 z m 2.52,-13.422 c -0.76,1.354 -1.278,2.685 -1.558,3.815 l 0,0 c -0.156,0.63 -0.22,1.165 -0.22,1.579 l 0,0 c 0,0.156 0.004,0.285 0.021,0.397 l 0,0 c 0.008,0 0.018,-0.009 0.026,-0.017 l 0,0 c 0.367,-0.198 0.889,-0.57 1.428,-1.088 l 0,0 c 1.08,-1.027 2.228,-2.607 2.953,-4.463 l 0,0 c 0.470998,-1.192 0.789998,-2.321 0.970998,-3.385 l 0,0 c 0.13,-0.682 0.182,-1.304 0.182,-1.838 l 0,0 c 0,-0.034 0,-0.061 0,-0.095 l 0,0 c -0.112,0.104 -0.225,0.216 -0.345,0.336 l 0,0 c -1.108998,1.088 -2.407998,2.754 -3.417998,4.679 l 0,0 -1.463,-0.768 c -0.005,0.017 -0.013,0.026 -0.018,0.034 l 0,0 1.441,0.814 0,0 z"
     id="path3493"
     inkscape:connector-curvature="0"
     style="fill:#4a5d75" /><path
     d="m 109.60619,235.27915 c -2.106,-0.277 -3.893,-1.632 -4.847,-3.281 l 0,0 c -0.984,-1.675 -1.359,-3.573 -1.368,-5.568 l 0,0 c 0,-1.898 0.363,-3.919 1.058,-5.912 l 0,0 c 0.976,-2.927 2.348,-5.5 3.988,-7.502 l 0,0 c 1.657,-1.916 3.543,-3.582 6.375,-3.669 l 0,0 c 0.207,0 0.491,0.008 0.725,0.044 l 0,0 c 2.456,0.354 4.001,2.174 4.821,3.961 l 0,0 c 0.851,1.857 1.222,4.015 1.23,6.389 l 0,0 c 0,1.183 -0.104,2.435 -0.307,3.712 l 0,0 -2.896,-0.475 2.892,0.509 c -0.548,3.125 -1.821,5.914 -3.587,8.071 l 0,0 c -1.761,2.106 -4.135,3.765 -7.079,3.799 l 0,0 c -0.335,-10e-4 -0.655,-0.028 -1.005,-0.078 l 0,0 z m 4.77,-19.847 c -0.372,0.241 -0.885,0.683 -1.408,1.329 l 0,0 c -1.07,1.287 -2.193,3.298 -2.961,5.646 l 0,0 c -0.518,1.476 -0.742,2.866 -0.742,4.021 l 0,0 c -0.008,1.21 0.263,2.106 0.531,2.538 l 0,0 c 0.297,0.433 0.358,0.433 0.604,0.493 l 0,0 c 0.086,0.017 0.159,0.017 0.211,0.017 l 0,0 c 0.453,0.034 1.506,-0.379 2.551,-1.658 l 0,0 c 1.032,-1.242 1.946,-3.158 2.322,-5.316 l 0,0 0,0 c 0.159,-0.977 0.232,-1.908 0.232,-2.763 l 0,0 c 0.06,-2.331 -0.677,-4.083 -1.01,-4.48 l 0,0 c -0.076,0.035 -0.192,0.086 -0.33,0.173 l 0,0 z"
     id="path3495"
     inkscape:connector-curvature="0"
     style="fill:#4a5d75" /><path
     d="m 110.59919,236.15115 c -0.069,0 -0.108,0 -0.121,0 l 0,0 0,0 c -0.41,-0.01 -0.781,-0.035 -1.1,-0.079 l 0,0 0.193,-1.614 -0.193,1.614 -0.091,-0.008 -0.065,-0.018 c -2.292,-0.362 -4.273,-1.743 -5.353,-3.548 l 0,0 c -1.104,-1.795 -1.476,-3.798 -1.48,-5.827 l 0,0 c 0,-0.803 0.061,-1.613 0.182,-2.46 l 0,0 c 0.189,-1.26 0.509,-2.556 0.971,-3.858 l 0,0 c 1.032,-2.909 2.383,-5.568 4.126,-7.709 l 0,0 c 1.73,-2.097 4.006,-3.858 7.027,-4.101 l 0,0 c 0.035,0 0.108,-0.009 0.229,-0.009 l 0,0 c 0.242,0 0.543,0.009 1.014,0.096 l 0,0 c 2.598,0.475 4.472,2.451 5.352,4.515 l 0,0 c 0.928,2.088 1.226,4.419 1.235,6.88 l 0,0 c 0,0.077 0,0.156 0,0.233 l 0,0 0.311,0.017 -0.592,3.237 -0.405,2.581 -0.224,-0.017 c -0.661,2.157 -1.662,4.144 -3.026,5.818 l 0,0 c -1.852,2.322 -4.579,4.064 -7.816,4.246 l 0,0 -0.078,0.01 h -0.096 l 0,0.001 z m 0.358,-13.666 -0.013,0.035 c -0.298,0.862 -0.488,1.691 -0.604,2.528 l 0,0 c -0.061,0.448 -0.095,0.847 -0.095,1.218 l 0,0 c 0,0.837 0.147,1.51 0.315,1.934 l 0,0 c 0.091,0.232 0.182,0.379 0.25,0.483 l 0,0 c 0.065,-0.035 0.177,-0.095 0.315,-0.182 l 0,0 c 0.333,-0.198 0.803,-0.613 1.261,-1.182 l 0,0 c 0.932,-1.149 1.813,-2.893 2.141,-4.912 l 0,0 c 0.103,-0.579 0.168,-1.141 0.207,-1.752 l 0,0 c 0.03,-0.347 0.043,-0.7 0.047,-1.028 l 0,0 c 0.004,-1.286 -0.229,-2.374 -0.483,-3.091 l 0,0 c -0.212,0.216 -0.449,0.475 -0.682,0.769 l 0,0 c -0.967,1.191 -2.003,3.021 -2.642,5.11 l 0,0 -0.017,0.07 0,0 z"
     id="path3497"
     inkscape:connector-curvature="0"
     style="fill:#4a5d75" /><path
     d="m 121.60119,232.60215 c -1.36,-2.133 -2.007,-4.747 -2.016,-7.588 l 0,0 c 0,-0.708 0.043,-1.416 0.129,-2.115 l 0,0 c 0.349,-3.185 1.261,-6.051 2.628,-8.347 l 0,0 c 1.325,-2.15 3.172,-4.136 6.09,-4.386 l 0,0 0,0 c 0.013,0 0.112,-0.017 0.323,-0.017 l 0,0 c 3.043,0.077 4.994,2.149 6.246,4.35 l 0,0 c 1.281,2.296 2.051,5.146 2.244,8.322 l 0,0 -2.927,0.173 -2.934,0.173 c -0.122,-2.098 -0.614,-3.972 -1.231,-5.258 l 0,0 c -0.526,-1.157 -1.183,-1.752 -1.39,-1.874 l 0,0 c -0.052,0.026 -0.151,0.079 -0.272,0.182 l 0,0 c -0.283,0.216 -0.716,0.69 -1.117,1.364 l 0,0 c -0.828,1.373 -1.575,3.53 -1.83,5.991 l 0,0 c -0.06,0.483 -0.086,0.975 -0.086,1.441 l 0,0 c -0.008,1.908 0.475,3.497 1.08,4.403 l 0,0 c 0.643,0.932 1.069,1.078 1.554,1.104 l 0,0 c 0.004,0 0.013,0 0.021,0 l 0,0 c 0.521,-0.01 1.213,-0.312 1.993,-1.493 l 0,0 c 0.739,-1.141 1.313,-3.013 1.306,-5.103 l 0,0 c 0,-0.251 -0.011,-0.5 -0.026,-0.759 l 0,0 2.934,-0.173 2.927,-0.173 c 0.021,0.371 0.031,0.743 0.031,1.104 l 0,0 c -0.01,3.09 -0.761,5.956 -2.223,8.271 l 0,0 c -1.42,2.27 -3.821,4.144 -6.881,4.204 l 0,0 c -0.039,0 -0.064,0 -0.082,0 l 0,0 c -0.018,0 -0.031,0 -0.043,0 l 0,0 c -2.792,0.003 -5.132,-1.698 -6.448,-3.796 l 0,0 z"
     id="path3499"
     inkscape:connector-curvature="0"
     style="fill:#4a5d75" /><path
     d="m 128.10219,237.18615 c -3.181,-0.035 -5.935,-1.787 -7.398,-4.136 l 0,0 c -1.516,-2.365 -2.093,-5.152 -2.103,-8.028 l 0,0 c 0,-0.137 0,-0.302 0.004,-0.491 l 0,0 c 0.021,-0.561 0.065,-1.122 0.138,-1.683 l 0,0 c 0.388,-3.298 1.376,-6.276 2.823,-8.65 l 0,0 c 1.338,-2.236 3.535,-4.661 7.014,-4.834 l 0,0 0,0 c 0.039,0 0.078,-0.01 0.125,-0.01 l 0,0 c 3.539,0.036 5.819,2.53 7.057,4.749 l 0,0 c 0.985,1.709 1.697,3.694 2.107,5.879 l 0,0 h 0.154 l 0.186,2.632 0.006,0.01 0.004,0.086 0.004,0.061 c 0,0.009 0,0.017 0,0.025 l 0,0 0.198,3.047 h -0.263 c -0.186,1.952 -0.66,3.816 -1.489,5.517 l 0,0 c -0.41,0.846 -0.915,1.641 -1.536,2.384 l 0,0 4.545,3.235 -11.446,0.208 h -0.057 -0.073 l 0,-0.001 z m 0.047,-7.467 v -0.01 c 0.039,-0.008 0.134,-0.051 0.255,-0.137 l 0,0 c 0.237,-0.165 0.601,-0.51 0.933,-1.071 l 0,0 c 0.604,-1.019 1.1,-2.745 1.091,-4.653 l 0,0 c 0,-0.189 -0.008,-0.389 -0.016,-0.604 l 0,0 c -0.013,-0.113 -0.009,-0.164 -0.005,-0.19 l 0,0 c 0,0 0,-0.009 0,-0.017 l 0,0 c -0.126,-2.235 -0.747,-4.213 -1.412,-5.36 l 0,0 c -0.099,-0.173 -0.194,-0.329 -0.28,-0.458 l 0,0 c -0.146,0.173 -0.297,0.397 -0.449,0.664 l 0,0 -1.523,-0.88 c -0.004,0.008 -0.008,0.017 -0.013,0.017 l 0,0 1.507,0.916 c -0.76,1.225 -1.485,3.314 -1.714,5.637 l 0,0 c -0.048,0.371 -0.069,0.733 -0.082,1.104 l 0,0 c 0,0.096 -0.005,0.182 -0.005,0.251 l 0,0 c -0.008,1.786 0.458,3.306 0.941,4.039 l 0,0 c 0.35,0.553 0.63,0.717 0.717,0.752 l 0,0 h 0.055 l 0,0 z m 10.079,-6.82 0,0 0,0 0,0 z m -9.98,-6.198 v -0.01 c 0,0.001 0,0.001 0,0.01 l 0,0 z"
     id="path3501"
     inkscape:connector-curvature="0"
     style="fill:#4a5d75" /><path
     d="m 145.62919,234.71715 c -2.901,-0.018 -5.252,-1.675 -6.876,-3.79 l 0,0 c -1.645,-2.141 -2.728,-4.911 -3.094,-8.002 l 0,0 c -0.108,-0.915 -0.156,-1.805 -0.156,-2.677 l 0,0 c 0.005,-2.607 0.433,-4.98 1.333,-7 l 0,0 c 0.89,-1.951 2.384,-3.876 4.942,-4.377 l 0,0 c 0.316,-0.052 0.636,-0.086 0.955,-0.086 l 0,0 c 2.787,0.086 4.674,1.743 6.236,3.65 l 0,0 c 1.559,1.96 2.797,4.489 3.63,7.381 l 0,0 0,0 c 0.505,1.728 0.756,3.428 0.756,5.068 l 0,0 c -0.008,2.184 -0.439,4.256 -1.454,6.042 l 0,0 c -0.993,1.771 -2.775,3.298 -5.038,3.686 l 0,0 c -0.405,0.069 -0.799,0.104 -1.19,0.104 l 0,0 c -0.014,0.001 -0.03,0.001 -0.044,0.001 l 0,0 z m -2.836,-20.002 c -0.141,0.139 -0.384,0.45 -0.609,0.958 l 0,0 c -0.456,0.993 -0.818,2.65 -0.814,4.575 l 0,0 c 0,0.64 0.043,1.312 0.116,1.994 l 0,0 c 0.246,2.115 1.028,3.946 1.921,5.102 l 0,0 c 0.916,1.175 1.788,1.52 2.223,1.503 l 0,0 c 0.077,0 0.15,-0.01 0.208,-0.018 l 0,0 c 0.34,-0.078 0.578,-0.198 0.976,-0.829 l 0,0 c 0.371,-0.621 0.672,-1.734 0.668,-3.115 l 0,0 c 0,-1.037 -0.159,-2.219 -0.521,-3.437 l 0,0 2.813,-0.829 -2.826,0.803 c -0.55,-1.95 -1.368,-3.659 -2.215,-4.867 l 0,0 c -0.771,-1.131 -1.614,-1.744 -1.912,-1.866 l 0,0 c -0.009,0.01 -0.018,0.018 -0.028,0.026 l 0,0 z"
     id="path3503"
     inkscape:connector-curvature="0"
     style="fill:#4a5d75" /><path
     d="m 145.77219,235.51115 h -0.033 c -3.277,-0.06 -6.061,-1.805 -7.83,-4.144 l 0,0 c -1.804,-2.349 -2.828,-5.274 -3.216,-8.383 l 0,0 1.916,-0.241 c 0,-0.008 0,-0.008 0,-0.018 l 0,0 -1.924,0.199 c -0.022,-0.189 -0.045,-0.397 -0.065,-0.604 l 0,0 -0.008,-0.052 v -0.051 c -0.04,-0.588 -0.058,-1.175 -0.058,-1.754 l 0,0 c 0.009,-2.685 0.371,-5.222 1.355,-7.449 l 0,0 c 0.945,-2.192 2.789,-4.265 5.472,-4.877 l 0,0 0.053,-0.018 0.039,-0.008 c 0.346,-0.087 0.699,-0.122 1.069,-0.13 l 0,0 h 0.1 0.07 c 2.969,0.155 5.309,1.89 6.979,3.996 l 0,0 c 1.237,1.562 2.226,3.393 3.026,5.396 l 0,0 0.114,-0.009 0.696,2.314 c 0.005,0.017 0.008,0.024 0.013,0.043 l 0,0 1.044,3.357 -0.354,0.043 c 0.073,0.674 0.112,1.347 0.112,2.002 l 0,0 c -0.005,2.219 -0.414,4.386 -1.545,6.295 l 0,0 c -1.109,1.915 -3.104,3.443 -5.508,3.944 l 0,0 -0.052,0.008 -0.068,0.018 c -0.429,0.069 -0.863,0.112 -1.318,0.121 l 0,0 h -0.079 l 0,0.002 z m -0.245,-7.467 -0.006,0.009 h 0.006 c 0.004,0 0.013,0 0.017,0 l 0,0 c 0.069,-0.069 0.195,-0.208 0.328,-0.44 l 0,0 c 0.319,-0.57 0.63,-1.623 0.622,-2.909 l 0,0 c 0,-0.518 -0.044,-1.062 -0.147,-1.683 l 0,0 c -0.069,-0.432 -0.169,-0.89 -0.294,-1.339 l 0,0 -0.051,-0.173 -0.096,-0.328 c -0.591,-1.994 -1.515,-3.712 -2.356,-4.765 l 0,0 c -0.155,-0.189 -0.306,-0.362 -0.44,-0.501 l 0,0 c -0.009,0.017 -0.012,0.026 -0.022,0.043 l 0,0 c -0.409,0.89 -0.78,2.418 -0.776,4.161 l 0,0 c 0,0.5 0.031,1.019 0.092,1.588 l 0,0 c 0.017,0.156 0.039,0.346 0.052,0.484 l 0,0 c 0.237,2.027 1.01,3.806 1.786,4.781 l 0,0 c 0.588,0.761 1.142,1.046 1.285,1.072 l 0,0 0,0 0,0 z"
     id="path3505"
     inkscape:connector-curvature="0"
     style="fill:#4a5d75" /><path
     d="m 155.16019,227.45715 c -1.805,-1.77 -3.285,-4.118 -4.273,-6.907 l 0,0 c -0.815,-2.416 -1.221,-4.781 -1.227,-6.931 l 0,0 c 0.006,-1.623 0.22,-3.125 0.795,-4.524 l 0,0 c 0.558,-1.354 1.619,-2.771 3.345,-3.384 l 0,0 c 0.57,-0.198 1.153,-0.293 1.718,-0.293 l 0,0 c 2.542,0.087 4.316,1.416 6.033,3.039 l 0,0 c 1.692,1.656 3.247,3.842 4.533,6.387 l 0,0 0,0 c 1.43,2.729 2.214,5.491 2.223,8.072 l 0,0 c 0,1.451 -0.249,2.884 -0.932,4.204 l 0,0 c -0.67,1.304 -1.886,2.495 -3.428,3.047 l 0,0 c -0.738,0.269 -1.497,0.371 -2.219,0.371 l 0,0 c -2.593,-0.034 -4.764,-1.329 -6.568,-3.081 l 0,0 z m 0.375,-13.838 c -0.004,1.39 0.281,3.186 0.902,5.007 l 0,0 c 0.681,1.942 1.756,3.592 2.836,4.653 l 0,0 c 1.078,1.069 2.11,1.424 2.455,1.39 l 0,0 c 0.126,0 0.191,-0.019 0.216,-0.026 l 0,0 c 0.091,-0.052 0.083,-0.009 0.216,-0.232 l 0,0 c 0.12,-0.234 0.277,-0.743 0.277,-1.494 l 0,0 c 0.008,-1.338 -0.479,-3.349 -1.563,-5.378 l 0,0 2.594,-1.372 -2.615,1.328 c -1.54,-3.228 -3.983,-5.593 -5.002,-6.077 l 0,0 c -0.16,0.388 -0.324,1.191 -0.316,2.201 l 0,0 z"
     id="path3507"
     inkscape:connector-curvature="0"
     style="fill:#4a5d75" /><path
     d="m 161.93619,231.33315 c -2.947,-0.052 -5.528,-1.451 -7.492,-3.385 l 0,0 c -1.985,-1.941 -3.466,-4.453 -4.477,-7.276 l 0,0 c -0.372,-1.062 -0.634,-2.115 -0.837,-3.168 l 0,0 c -0.241,-1.382 -0.38,-2.728 -0.385,-4.05 l 0,0 c 0.005,-1.656 0.212,-3.271 0.86,-4.781 l 0,0 c 0.633,-1.502 1.886,-2.97 3.624,-3.643 l 0,0 0.079,-0.043 0.034,-0.01 c 0.622,-0.232 1.273,-0.336 1.946,-0.336 l 0,0 h 0.057 0.042 c 2.715,0.111 4.921,1.536 6.756,3.314 l 0,0 c 1.848,1.805 3.422,4.108 4.781,6.665 l 0,0 3.781,7.086 -1.559,-0.63 c 0.108,0.709 0.165,1.407 0.165,2.106 l 0,0 c 0.112,2.926 -1.351,6.396 -4.704,7.674 l 0,0 -0.034,0.009 -0.073,0.034 c -0.739,0.251 -1.507,0.397 -2.298,0.424 l 0,0 -0.098,0.009 h -0.168 l 0,10e-4 z m -5.477,-17.55 c 0,0.743 0.087,1.605 0.301,2.581 l 0,0 c 0.145,0.7 0.343,1.416 0.604,2.176 l 0,0 c 0.881,2.832 3.083,4.869 3.925,5.274 l 0,0 c 0.076,-0.232 0.154,-0.639 0.15,-1.147 l 0,0 c 0,-0.587 -0.09,-1.304 -0.341,-2.167 l 0,0 c -0.167,-0.622 -0.405,-1.296 -0.711,-1.994 l 0,0 -0.438,-0.889 c 0,-0.009 0,-0.009 -0.005,-0.009 l 0,0 -0.617,-1.209 c -0.884,-1.519 -1.998,-2.771 -2.821,-3.548 l 0,0 c -0.03,0.285 -0.047,0.596 -0.047,0.932 l 0,0 z"
     id="path3509"
     inkscape:connector-curvature="0"
     style="fill:#4a5d75" /><path
     d="m 175.23619,224.42715 c -2.311,-0.043 -4.287,-1.062 -6.135,-2.494 l 0,0 c -1.833,-1.45 -3.535,-3.41 -4.945,-5.818 l 0,0 c -1.883,-3.401 -2.918,-6.725 -2.944,-9.634 l 0,0 c 0.03,-1.805 0.362,-4.015 2.547,-5.37 l 0,0 c 0.768,-0.449 1.632,-0.647 2.396,-0.639 l 0,0 c 2.322,0.095 3.962,1.183 5.714,2.556 l 0,0 c 1.714,1.38 3.418,3.228 4.995,5.403 l 0,0 0,0 c 2.468,3.332 4.021,6.655 4.074,9.927 l 0,0 c 0.041,1.823 -0.709,4.066 -2.738,5.293 l 0,0 c -0.931,0.535 -1.979,0.776 -2.947,0.776 l 0,0 c -0.005,0 -0.014,0 -0.017,0 l 0,0 z m -5.984,-11.222 c 1.028,1.761 2.304,3.193 3.479,4.117 l 0,0 c 0.984,0.803 1.909,1.147 2.327,1.217 l 0,0 c 0.005,-0.052 0.005,-0.112 0.005,-0.182 l 0,0 c 0.056,-1.104 -0.894,-3.823 -2.884,-6.387 l 0,0 2.343,-1.771 -2.382,1.718 c -1.238,-1.718 -2.572,-3.159 -3.737,-4.151 l 0,0 c -0.471,-0.414 -0.929,-0.726 -1.312,-0.958 l 0,0 c 0.072,1.459 0.784,3.962 2.161,6.397 l 0,0 z"
     id="path3511"
     inkscape:connector-curvature="0"
     style="fill:#4a5d75" /><path
     d="m 163.33419,216.34715 1.438,-0.837 c -0.005,-0.009 -0.011,-0.009 -0.013,-0.019 l 0,0 -1.451,0.812 c -0.976,-1.752 -1.713,-3.497 -2.228,-5.215 l 0,0 c -0.453,-1.64 -0.765,-3.236 -0.772,-4.824 l 0,0 c -0.026,-1.951 0.574,-4.395 2.858,-5.862 l 0,0 c 0.824,-0.483 1.729,-0.699 2.628,-0.716 l 0,0 h 0.061 0.086 c 2.474,0.112 4.502,1.294 6.384,2.797 l 0,0 c 1.877,1.519 3.637,3.496 5.295,5.696 l 0,0 c 1.438,1.917 2.573,3.877 3.337,5.818 l 0,0 c 0.583,1.512 0.98,3.039 0.98,4.618 l 0,0 c 0.061,1.978 -0.85,4.378 -2.971,5.672 l 0,0 c -1.064,0.647 -2.223,0.898 -3.426,0.925 l 0,0 c -5.269,-0.198 -9.344,-4.092 -12.206,-8.865 l 0,0 z m 5.162,-6.957 c 0.342,1.112 0.886,2.373 1.611,3.643 l 0,0 c 0.876,1.52 1.964,2.754 2.943,3.573 l 0,0 c 0.322,0.285 0.647,0.518 0.927,0.69 l 0,0 c -0.068,-0.336 -0.181,-0.725 -0.349,-1.156 l 0,0 c -0.337,-0.889 -0.872,-1.934 -1.566,-2.995 l 0,0 -0.661,-0.941 c 0,0 -0.005,0 -0.005,-0.009 l 0,0 -1.03,-1.381 c -0.69,-0.847 -1.425,-1.57 -2.086,-2.167 l 0,0 c 0.057,0.232 0.13,0.484 0.216,0.743 l 0,0 z"
     id="path3513"
     inkscape:connector-curvature="0"
     style="fill:#4a5d75" /><path
     d="m 186.41219,216.77915 c -3.63,-0.13 -7.146,-2.322 -10.831,-5.775 l 0,0 c -1.923,-1.968 -3.483,-4.005 -4.624,-5.948 l 0,0 c -1.114,-1.984 -1.896,-3.72 -1.946,-5.757 l 0,0 c 0,-0.752 0.134,-1.684 0.741,-2.59 l 0,0 0,0 c 0.868,-1.354 2.496,-1.855 3.54,-1.812 l 0,0 c 1.938,0.061 3.413,0.811 5.162,1.795 l 0,0 c 1.708,1.01 3.538,2.375 5.39,4.015 l 0,0 h -0.002 c 2.092,1.761 3.856,3.625 5.175,5.464 l 0,0 c 1.3,1.864 2.296,3.608 2.361,5.861 l 0,0 c 0,0.829 -0.204,1.778 -0.722,2.616 l 0,0 -0.039,0.061 -0.039,0.051 c -1.01,1.477 -2.723,2.021 -4.041,2.021 l 0,0 c -0.039,-0.002 -0.081,-0.002 -0.125,-0.002 l 0,0 z m -6.684,-9.937 c 1.758,1.788 3.725,2.988 5.089,3.609 l 0,0 c -0.159,-0.276 -0.355,-0.57 -0.569,-0.863 l 0,0 c -0.963,-1.347 -2.453,-2.944 -4.247,-4.446 l 0,0 1.898,-2.244 -1.945,2.202 c -1.345,-1.227 -2.738,-2.245 -3.912,-2.996 l 0,0 c 0.849,1.45 2.149,3.168 3.686,4.738 l 0,0 z"
     id="path3515"
     inkscape:connector-curvature="0"
     style="fill:#4a5d75" /><path
     d="m 185.93919,217.90115 c -4.604,-0.154 -8.577,-3.254 -12.016,-7.406 l 0,0 c -1.778,-2.305 -3.121,-4.671 -3.988,-6.897 l 0,0 c -0.566,-1.536 -1.02,-3.013 -1.033,-4.653 l 0,0 c -0.013,-1.225 0.324,-2.771 1.538,-3.979 l 0,0 c 0.941,-0.907 2.145,-1.27 3.215,-1.287 l 0,0 h 0.1 0.057 c 2.265,0.113 4.107,1.132 5.97,2.409 l 0,0 c 1.847,1.32 3.68,3.013 5.502,4.929 l 0,0 c 2.218,2.296 3.967,4.652 5.103,6.958 l 0,0 c 0.658,1.398 1.16,2.806 1.174,4.428 l 0,0 c 0.034,1.312 -0.45,2.9 -1.687,4.074 l 0,0 c -1.072,0.968 -2.38,1.364 -3.627,1.425 l 0,0 -0.081,0.009 -0.227,-0.01 0,0 z m -5.944,-11.576 c 0.698,0.88 1.438,1.632 2.149,2.253 l 0,0 c -0.366,-0.526 -0.782,-1.069 -1.248,-1.622 l 0,0 -1.155,-1.287 c -0.023,-0.026 -0.045,-0.051 -0.07,-0.069 l 0,0 -0.832,-0.88 c 0.354,0.534 0.737,1.07 1.156,1.605 l 0,0 z"
     id="path3517"
     inkscape:connector-curvature="0"
     style="fill:#4a5d75" /><path
     d="m 57.134192,237.80715 c -1.451,-1.131 -2.184,-3.013 -2.145,-4.635 l 0,0 c 0.121,-3.791 2.478,-7.036 5.849,-10.101 l 0,0 c 1.878,-1.718 3.872,-3.168 5.822,-4.238 l 0,0 c 1.977,-1.044 3.855,-1.777 5.914,-1.813 l 0,0 c 1.01,0 2.175,0.216 3.16,0.906 l 0,0 c 1.773,1.167 2.365,3.194 2.339,4.81 l 0,0 c -0.069,3.4 -1.834,6.904 -4.757,10.341 l 0,0 -2.213,-1.934 2.17,1.977 c -3.465,3.748 -7.652,6.044 -11.709,6.111 l 0,0 c -0.004,0 -0.013,0 -0.018,0 l 0,0 c -1.481,0 -3.043,-0.363 -4.412,-1.424 l 0,0 z m 4.429,-4.437 c 1.523,0.068 4.89,-1.382 7.363,-4.195 l 0,0 0,0 c 2.145,-2.418 3.211,-5.103 3.271,-6.25 l 0,0 c -0.583,0.104 -1.614,0.448 -2.732,1.07 l 0,0 c -1.446,0.785 -3.107,1.978 -4.7,3.436 l 0,0 c -2.784,2.357 -4.032,5.075 -3.911,5.741 l 0,0 c 0,0.034 0.004,0.069 0.004,0.086 l 0,0 c 0.109,0.043 0.325,0.112 0.705,0.112 l 0,0 z"
     id="path3519"
     inkscape:connector-curvature="0"
     style="fill:#4a5d75" /><path
     d="m 61.183192,240.03315 0,0 0,0 c -1.74,0 -3.479,-0.413 -4.942,-1.536 l 0,0 1.355,-1.743 c 0,-0.009 -0.004,-0.009 -0.009,-0.009 l 0,0 -1.381,1.718 c -1.566,-1.243 -2.374,-3.228 -2.326,-4.998 l 0,0 c 0,-1.441 0.397,-2.814 1.006,-4.092 l 0,0 c 1.118,-2.339 2.939,-4.601 5.283,-6.69 l 0,0 c 3.928,-3.461 8.124,-6.207 12.496,-6.456 l 0,0 c 0.125,-0.01 0.207,0 0.232,0 l 0,0 c 1.178,0 2.469,0.224 3.656,1.053 l 0,0 c 1.851,1.26 2.568,3.453 2.524,5.214 l 0,0 c -0.004,1.407 -0.323,2.744 -0.793,4.101 l 0,0 c -0.406,1.114 -0.941,2.227 -1.615,3.341 l 0,0 0.432,0.155 -2.982,3.306 c -0.03,0.035 -0.057,0.062 -0.086,0.096 l 0,0 -1.169,1.329 -0.121,-0.035 c -3.302,3.099 -7.286,5.102 -11.33,5.248 l 0,0 -0.164,0.01 -0.066,-0.012 0,0 z m 0.967,-7.465 c 1.006,-0.052 3.815,-1.227 5.943,-3.678 l 0,0 0.073,-0.077 c 1.295,-1.493 2.197,-3.039 2.641,-4.229 l 0,0 c 0.074,-0.183 0.13,-0.372 0.177,-0.527 l 0,0 c -0.375,0.146 -0.811,0.354 -1.269,0.613 l 0,0 c -1.294,0.707 -2.813,1.778 -4.212,3.09 l 0,0 -1.001,-1.079 c -0.009,0 -0.013,0.01 -0.021,0.018 l 0,0 0.984,1.097 c -1.627,1.45 -2.741,2.952 -3.216,4.014 l 0,0 c -0.146,0.311 -0.225,0.569 -0.268,0.751 l 0,0 c 0.048,-0.002 0.104,-0.002 0.169,0.007 l 0,0 z m 9.012,-9.755 h 0.004 c -0.004,0 -0.004,0 -0.004,0 l 0,0 0,0 0,0 z"
     id="path3521"
     inkscape:connector-curvature="0"
     style="fill:#4a5d75" /><path
     d="m 72.345192,246.95015 c -2.564,-1.184 -3.945,-3.945 -3.863,-6.439 l 0,0 c 0.039,-3.178 1.528,-6.293 3.936,-9.169 l 0,0 c 1.757,-2.176 3.764,-4.005 5.832,-5.344 l 0,0 c 2.08,-1.337 4.195,-2.261 6.53,-2.296 l 0,0 c 0.798,0 1.67,0.13 2.473,0.467 l 0,0 c 1.398,0.562 2.49,1.683 3.09,2.909 l 0,0 c 0.617,1.234 0.841,2.555 0.85,3.901 l 0,0 c -0.017,2.737 -0.945,5.697 -2.689,8.624 l 0,0 -2.516,-1.502 2.486,1.554 c -3.068,4.773 -7.738,7.959 -12.586,8.055 l 0,0 c -1.178,-0.001 -2.382,-0.217 -3.543,-0.76 l 0,0 z m 9.098,-16.031 c -1.467,0.949 -3.082,2.399 -4.506,4.151 l 0,0 c -1.839,2.142 -2.624,4.333 -2.585,5.439 l 0,0 c 0.086,0.906 0.134,0.87 0.522,1.139 l 0,0 c 0.242,0.121 0.57,0.198 1.014,0.198 l 0,0 c 1.874,0.104 5.538,-1.907 7.58,-5.257 l 0,0 c 1.312,-2.167 1.869,-4.281 1.856,-5.611 l 0,0 c 0.004,-0.656 -0.129,-1.087 -0.22,-1.26 l 0,0 c -0.052,-0.146 -0.069,-0.096 -0.112,-0.13 l 0,0 c -0.009,0.008 -0.021,-0.017 -0.211,-0.017 l 0,0 c -0.021,0 -0.039,0 -0.061,0 l 0,0 c -0.549,0.002 -1.861,0.416 -3.277,1.348 l 0,0 z"
     id="path3523"
     inkscape:connector-curvature="0"
     style="fill:#4a5d75" /><path
     d="m 75.759192,248.52015 c -0.047,0 -0.091,0 -0.134,0 l 0,0 c -1.402,0 -2.775,-0.267 -4.035,-0.854 l 0,0 0.836,-1.804 c -0.004,0 -0.008,-0.01 -0.017,-0.018 l 0,0 -0.885,1.796 c -2.758,-1.277 -4.273,-4.213 -4.178,-6.847 l 0,0 c 0,-1.328 0.272,-2.632 0.734,-3.893 l 0,0 c 0.725,-2.003 1.912,-3.987 3.479,-5.845 l 0,0 c 3.673,-4.35 8.162,-7.838 13.255,-8.148 l 0,0 c 0.039,-0.009 0.112,-0.009 0.225,-0.009 l 0,0 c 0.954,0 1.93,0.155 2.914,0.579 l 0,0 c 3.108,1.321 4.359,4.6 4.277,7.319 l 0,0 c -0.004,1.218 -0.172,2.409 -0.475,3.644 l 0,0 c -0.134,0.553 -0.307,1.123 -0.509,1.684 l 0,0 0.47,0.086 -2.258,3.634 0,0 0,0 -1.022,1.701 -0.151,-0.026 c -3.09,3.988 -7.532,6.794 -12.435,7.001 l 0,0 h -0.048 -0.043 l 0,0 z m 0.694,-7.476 c 1.118,-0.06 4.334,-1.744 6.051,-4.678 l 0,0 0.083,-0.139 c 0.687,-1.148 1.143,-2.253 1.403,-3.255 l 0,0 c 0.194,-0.69 0.276,-1.32 0.276,-1.804 l 0,0 c 0.004,-0.312 -0.035,-0.57 -0.078,-0.751 l 0,0 c -0.401,0.112 -1.338,0.458 -2.305,1.122 l 0,0 c -1.3,0.863 -2.78,2.166 -4.01,3.729 l 0,0 -1.32,-1.044 c -0.005,0.009 -0.013,0.017 -0.022,0.025 l 0,0 1.299,1.071 c -1.032,1.234 -1.73,2.485 -2.081,3.514 l 0,0 c -0.211,0.587 -0.293,1.088 -0.289,1.433 l 0,0 c 0.073,0.76 0.12,0.595 0.211,0.682 l 0,0 c 0.1,0.052 0.216,0.086 0.518,0.086 l 0,0 c 0.018,0 0.039,0 0.056,0 l 0,0 c 0.058,0 0.127,0.009 0.208,0.009 l 0,0 z m 8.585,-12.266 0,0 0,0 0,0 0,0 0,0 0,0 z"
     id="path3525"
     inkscape:connector-curvature="0"
     style="fill:#4a5d75" /><path
     d="m 92.212192,253.81315 c -4.01,-0.925 -6.306,-4.783 -6.177,-8.436 l 0,0 c 0.005,-2.365 0.717,-4.824 2.016,-7.139 l 0,0 c 1.438,-2.675 3.328,-4.954 5.434,-6.664 l 0,0 c 2.106,-1.666 4.442,-2.848 7.073998,-2.884 l 0,0 c 0.496,0 1.032,0.044 1.545,0.165 l 0,0 c 2.089,0.432 3.759,1.855 4.718,3.564 l 0,0 c 0.98,1.701 1.398,3.669 1.403,5.775 l 0,0 c 0,1.771 -0.311,3.643 -0.941,5.542 l 0,0 -2.788,-0.915 2.771,0.959 c -2.102,5.835 -7.074,10.178 -12.784998,10.307 l 0,0 c -0.013,0 -0.025,0 -0.034,0 l 0,0 c -0.747,0.001 -1.48,-0.095 -2.236,-0.274 l 0,0 z m 4.946,-17.655 c -1.416,1.122 -2.866,2.856 -3.962,4.912 l 0,0 c -0.915,1.605 -1.291,3.149 -1.287,4.307 l 0,0 c 0.125,1.865 0.536,2.349 1.705,2.729 l 0,0 c 0.276,0.067 0.57,0.111 0.868,0.111 l 0,0 c 2.271,0.121 5.956998,-2.513 7.229998,-6.327 l 0,0 c 0.449,-1.347 0.643,-2.625 0.643,-3.695 l 0,0 c 0,-1.287 -0.29,-2.287 -0.617,-2.84 l 0,0 c -0.35,-0.578 -0.579,-0.69 -0.92,-0.77 l 0,0 c -0.039,-0.008 -0.121,-0.024 -0.259,-0.024 l 0,0 c -0.017,0 -0.035,0 -0.052,0 l 0,0 c -0.641998,0.001 -1.975998,0.467 -3.348998,1.597 l 0,0 z"
     id="path3527"
     inkscape:connector-curvature="0"
     style="fill:#4a5d75" /><path
     d="m 94.452192,254.89115 c -0.056,0 -0.108,0 -0.159,0 l 0,0 c -0.898,0 -1.77,-0.112 -2.607,-0.32 l 0,0 0.41,-1.709 c -0.009,0 -0.017,0 -0.026,-0.008 l 0,0 -0.458,1.7 c -4.398,-1.045 -6.885,-5.127 -6.725,-8.935 l 0,0 c 0,-1.027 0.129,-2.054 0.371,-3.091 l 0,0 c 0.368,-1.51 0.972,-3.029 1.805,-4.488 l 0,0 c 3,-5.3 7.588,-9.755 13.401998,-10.143 l 0,0 c 0.129,-0.01 0.212,-0.01 0.237,-0.01 l 0,0 c 0.574,0 1.204,0.053 1.904,0.216 l 0,0 c 2.301,0.544 4.174,2.08 5.218,3.945 l 0,0 c 1.065,1.865 1.467,3.979 1.467,6.155 l 0,0 c 0,0.725 -0.043,1.441 -0.134,2.21 l 0,0 c -0.147,1.122 -0.406,2.262 -0.807,3.461 l 0,0 c -2.059,5.896 -7.212,10.695 -13.781998,11.016 l 0,0 h -0.047 -0.069 l 0,0.001 z m -0.224,-13.683 c -0.509,0.924 -0.851,1.821 -1.032,2.633 l 0,0 c -0.116,0.501 -0.164,0.949 -0.164,1.338 l 0,0 c 0.082,1.667 0.622,2.046 1.14,2.176 l 0,0 c 0.156,0.035 0.311,0.06 0.505,0.06 l 0,0 0,0 c 0.03,0 0.069,0 0.108,0 l 0,0 c 0.008,0 0.021,0 0.03,0 l 0,0 c 0.427,0.036 1.727,-0.388 2.905,-1.414 l 0,0 c 1.209,-1.002 2.334998,-2.504 2.921998,-4.23 l 0,0 c 0.254,-0.751 0.427,-1.459 0.526,-2.149 l 0,0 c 0.073,-0.483 0.108,-0.924 0.108,-1.355 l 0,0 c 0.026,-1.623 -0.587,-2.701 -0.807,-2.893 l 0,0 -0.052,0.01 -0.185,-0.018 c -0.078,0.018 -0.362998,0.061 -0.754998,0.259 l 0,0 c -0.466,0.224 -1.07,0.595 -1.692,1.113 l 0,0 c -1.256,1.027 -2.586,2.581 -3.522,4.403 l 0,0 -1.709,-0.881 c -0.004,0.009 -0.009,0.017 -0.013,0.025 l 0,0 1.687,0.923 0,0 z"
     id="path3529"
     inkscape:connector-curvature="0"
     style="fill:#4a5d75" /><path
     d="m 115.51919,257.33315 c -5.61,-0.336 -9.116,-5.387 -8.977,-10.557 l 0,0 c 0,-1.304 0.186,-2.643 0.552,-3.944 l 0,0 c 0.851,-3.151 2.4,-5.924 4.389,-8.021 l 0,0 c 1.99,-2.063 4.498,-3.591 7.454,-3.617 l 0,0 c 0.074,0 0.229,0 0.453,0.018 l 0,0 c 2.862,0.173 5.197,1.925 6.634,4.144 l 0,0 c 1.468,2.253 2.24,5.067 2.25,8.149 l 0,0 c 0,0.405 -0.014,0.803 -0.039,1.191 l 0,0 -2.936,-0.182 2.932,0.198 c -0.488,6.708 -5.388,12.518 -12.026,12.638 l 0,0 c -0.228,0.001 -0.439,-0.007 -0.686,-0.017 l 0,0 z m 6.85,-12.991 0,0 c 0.017,-0.294 0.03,-0.578 0.03,-0.837 l 0,0 c 0.004,-2.072 -0.553,-3.834 -1.282,-4.921 l 0,0 c -0.751,-1.113 -1.472,-1.477 -2.093,-1.511 l 0,0 -0.078,-0.009 h -0.009 v 0.009 c -0.695,-0.034 -1.964,0.483 -3.207,1.795 l 0,0 c -1.239,1.296 -2.374,3.255 -2.974,5.526 l 0,0 c -0.233,0.836 -0.345,1.64 -0.345,2.382 l 0,0 c 0.138,3.056 1.398,4.497 3.47,4.688 l 0,0 c 0.125,0.008 0.233,0.017 0.324,0.008 l 0,0 c 2.677,0.122 5.888,-2.97 6.164,-7.13 l 0,0 z"
     id="path3531"
     inkscape:connector-curvature="0"
     style="fill:#4a5d75" /><path
     d="m 116.12419,258.13615 c -0.341,0 -0.579,-0.008 -0.708,-0.017 l 0,0 0.056,-1.615 -0.056,1.615 h -0.095 l -0.057,-0.009 c -3.09,-0.26 -5.749,-1.657 -7.433,-3.78 l 0,0 c -1.692,-2.106 -2.435,-4.74 -2.43,-7.398 l 0,0 c 0,-0.519 0.025,-1.036 0.082,-1.562 l 0,0 c 0.1,-0.881 0.272,-1.778 0.531,-2.667 l 0,0 c 0.907,-3.134 2.439,-6.018 4.554,-8.262 l 0,0 c 2.102,-2.228 4.912,-3.868 8.191,-4.031 l 0,0 c 0.035,0 0.109,-0.01 0.229,-0.01 l 0,0 c 0.16,0 0.346,0.01 0.609,0.026 l 0,0 c 3.22,0.259 5.892,2.149 7.442,4.602 l 0,0 c 1.251,1.934 1.954,4.195 2.223,6.604 l 0,0 0.311,0.009 -0.225,3.107 c -0.005,0.086 -0.009,0.165 -0.018,0.251 l 0,0 -0.159,2.485 h -0.251 c -1.406,5.604 -5.964,10.359 -12.551,10.652 l 0,0 c -0.03,0.01 -0.064,0.01 -0.095,0.01 l 0,0 c -0.064,0 -0.111,-0.01 -0.15,-0.01 l 0,0 z m 2.434,-20.242 c -0.116,0.035 -0.297,0.112 -0.504,0.225 l 0,0 c -0.428,0.242 -0.985,0.673 -1.524,1.261 l 0,0 c -1.097,1.174 -2.149,2.952 -2.646,4.989 l 0,0 -0.004,0.017 -0.022,0.077 c -0.138,0.51 -0.225,0.976 -0.276,1.495 l 0,0 c -0.026,0.267 -0.04,0.499 -0.04,0.733 l 0,0 c -0.004,1.354 0.415,2.425 0.937,3.072 l 0,0 c 0.536,0.656 1.062,0.89 1.524,0.906 l 0,0 c 0.151,0 0.259,0.009 0.293,0.009 l 0,0 c 0,0 0.017,0 0.121,0 l 0,0 h 0.004 c 0.008,0 0.018,0 0.026,0 l 0,0 c 0.004,0 0.017,0 0.026,0 l 0,0 c 0.548,0.01 1.774,-0.5 2.788,-1.648 l 0,0 c 1.053,-1.157 1.865,-2.832 1.985,-4.704 l 0,0 2.232,0.137 v -0.008 l 0,0 -2.232,-0.182 c 0.018,-0.232 0.026,-0.432 0.031,-0.682 l 0,0 c 0,-0.086 0,-0.19 0,-0.294 l 0,0 c 0.004,-1.648 -0.411,-3.038 -0.945,-4.005 l 0,0 c -0.479,-0.881 -1.083,-1.329 -1.273,-1.416 l 0,0 -0.052,0.018 -0.333,-0.026 c -0.016,-0.001 -0.047,0.008 -0.116,0.026 l 0,0 z"
     id="path3533"
     inkscape:connector-curvature="0"
     style="fill:#4a5d75" /><path
     d="m 131.13619,253.11315 c -1.934,-2.314 -3.043,-5.37 -3.043,-8.685 l 0,0 0,0 0,0 c 0,-0.009 0,-0.025 0,-0.033 l 0,0 c 0.004,-3.341 0.885,-6.423 2.446,-8.875 l 0,0 c 1.551,-2.427 3.924,-4.377 6.945,-4.687 l 0,0 c 0.246,-0.036 0.497,-0.044 0.756,-0.044 l 0,0 c 2.882,0.008 5.355,1.527 7.207,3.574 l 0,0 c 1.861,2.08 3.212,4.8 3.854,7.915 l 0,0 h 0.006 c 0.206,1.011 0.306,2.029 0.306,3.013 l 0,0 c 0.073,5.594 -3.53,10.98 -9.461,11.61 l 0,0 c -0.358,0.036 -0.704,0.053 -1.022,0.053 l 0,0 c -0.006,0 -0.01,0 -0.019,0 l 0,0 c -3.198,0 -6.054,-1.554 -7.975,-3.841 l 0,0 z m 4.492,-3.79 c 0.994,1.174 2.181,1.744 3.502,1.753 l 0,0 c 0.159,0 0.306,-0.009 0.436,-0.018 l 0,0 c 2.321,-0.224 4.109,-2.365 4.177,-5.767 l 0,0 c 0,-0.578 -0.06,-1.182 -0.186,-1.805 l 0,0 2.871,-0.595 -2.879,0.578 c -0.432,-2.157 -1.39,-3.997 -2.465,-5.179 l 0,0 c -1.084,-1.21 -2.166,-1.642 -2.844,-1.623 l 0,0 c -0.039,0 -0.091,0 -0.168,0.008 l 0,0 c -0.682,0.053 -1.688,0.604 -2.591,2.011 l 0,0 c -0.862,1.33 -1.493,3.324 -1.52,5.533 l 0,0 0.069,0.544 -0.056,0.156 c 0.101,1.788 0.752,3.342 1.654,4.404 l 0,0 z"
     id="path3535"
     inkscape:connector-curvature="0"
     style="fill:#4a5d75" /><path
     d="m 130.30319,253.74315 c -2.124,-2.426 -3.233,-5.586 -3.333,-8.874 l 0,0 2.25,-0.062 c 0,-0.008 0,-0.008 0,-0.018 l 0,0 -2.254,0.026 c 0,-0.061 0,-0.146 0,-0.259 l 0,0 c 0,-0.034 0,-0.104 0.004,-0.225 l 0,0 c 0.078,-3.349 0.911,-6.543 2.577,-9.167 l 0,0 c 1.654,-2.617 4.334,-4.68 7.674,-5.103 l 0,0 0.086,-0.017 h 0.035 c 0.199,-0.018 0.419,-0.035 0.669,-0.043 l 0,0 h 0.025 0.105 c 3.266,0.043 6.116,1.632 8.141,3.866 l 0,0 c 1.51,1.667 2.645,3.687 3.423,5.888 l 0,0 0.197,-0.018 0.509,2.486 c 0.005,0.025 0.009,0.052 0.013,0.069 l 0,0 0.717,3.246 -0.396,0.025 c 0.064,5.638 -3.691,11.36 -10.398,12.12 l 0,0 c -0.35,0.026 -0.664,0.034 -1.044,0.043 l 0,0 c -3.675,0.005 -6.89,-1.567 -9,-3.983 l 0,0 z m 4.781,-9.211 0.006,0.053 v 0.06 c 0.055,1.848 0.75,3.437 1.561,4.352 l 0,0 c 0.907,0.992 1.763,1.285 2.448,1.285 l 0,0 c 0,0 0,0 0.009,0 l 0,0 c 0.147,-0.008 0.189,-0.008 0.189,-0.008 l 0,0 0.092,-0.009 0.073,-0.009 c 0.518,-0.025 1.294,-0.38 1.98,-1.286 l 0,0 c 0.679,-0.889 1.184,-2.219 1.179,-3.738 l 0,0 c 0,-0.302 -0.018,-0.621 -0.065,-0.958 l 0,0 c -0.016,-0.173 -0.042,-0.336 -0.073,-0.509 l 0,0 -0.048,-0.241 c -0.392,-2.056 -1.333,-3.799 -2.312,-4.853 l 0,0 c -0.794,-0.906 -1.516,-1.174 -1.748,-1.208 l 0,0 h -0.107 l 0,0 -0.084,0.009 -0.102,0.008 c -0.009,0 -0.031,0.01 -0.062,0.018 l 0,0 c -0.069,0.035 -0.202,0.086 -0.358,0.207 l 0,0 c -0.323,0.226 -0.746,0.657 -1.144,1.269 l 0,0 c -0.803,1.218 -1.441,3.065 -1.438,5.138 l 0,0 c 0,0.103 0,0.163 0,0.198 l 0,0 0.01,0.095 -0.006,0.103 c 0,0.007 0,0.016 0,0.024 l 0,0 z"
     id="path3537"
     inkscape:connector-curvature="0"
     style="fill:#4a5d75" /><path
     d="m 149.04919,242.65915 c -0.43,-1.572 -0.636,-3.125 -0.636,-4.628 l 0,0 c 0.009,-2.296 0.483,-4.463 1.498,-6.318 l 0,0 c 1.006,-1.831 2.681,-3.401 4.881,-3.962 l 0,0 c 0.608,-0.173 1.236,-0.251 1.861,-0.251 l 0,0 c 5.094,0.198 9.215,4.152 11.796,9.349 l 0,0 0,0 c 1.044,2.123 1.585,4.334 1.588,6.458 l 0,0 c 0.097,3.971 -2.191,8.062 -6.461,9.253 l 0,0 c -0.854,0.251 -1.722,0.354 -2.571,0.354 l 0,0 c -5.625,-0.095 -10.3,-4.463 -11.956,-10.255 l 0,0 z m 7.605,-9.281 c -0.143,0 -0.255,0.018 -0.385,0.044 l 0,0 c -0.358,0.103 -0.771,0.354 -1.222,1.14 l 0,0 c -0.427,0.768 -0.763,2.002 -0.759,3.47 l 0,0 c 0,0.95 0.134,2.012 0.414,3.073 l 0,0 c 0.983,3.669 4.147,6.043 6.303,5.938 l 0,0 c 0.345,-0.008 0.664,-0.051 0.957,-0.129 l 0,0 c 1.391,-0.449 2.115,-1.424 2.201,-3.607 l 0,0 c 0.004,-1.114 -0.293,-2.471 -0.98,-3.868 l 0,0 2.634,-1.294 -2.654,1.259 c -1.671,-3.754 -4.984,-6.042 -6.357,-6.042 l 0,0 c -0.054,0 -0.106,0.008 -0.152,0.016 l 0,0 z"
     id="path3539"
     inkscape:connector-curvature="0"
     style="fill:#4a5d75" /><path
     d="m 147.95119,242.76315 2.086,-0.57 c 0,-0.01 0,-0.01 0,-0.01 l 0,0 -2.09,0.544 c -0.172,-0.638 -0.311,-1.294 -0.414,-1.958 l 0,0 c -0.126,-0.907 -0.189,-1.821 -0.189,-2.711 l 0,0 c 0.004,-2.384 0.452,-4.67 1.559,-6.683 l 0,0 c 1.086,-2.002 2.973,-3.686 5.445,-4.384 l 0,0 c 0.66,-0.173 1.33,-0.259 2.08,-0.277 l 0,0 c 5.901,0.182 10.396,4.671 13.058,9.988 l 0,0 c 0.53,1.07 0.936,2.166 1.229,3.271 l 0,0 c 0.308,1.183 0.462,2.374 0.462,3.557 l 0,0 c 0.13,4.109 -2.349,8.435 -7.048,9.771 l 0,0 c -0.894,0.242 -1.826,0.389 -2.84,0.406 l 0,0 c -6.673,-0.043 -11.715,-5.006 -13.338,-10.944 l 0,0 z m 8.598,-8.495 c -0.111,0.086 -0.301,0.311 -0.487,0.64 l 0,0 c -0.371,0.681 -0.695,1.812 -0.689,3.168 l 0,0 c 0,0.544 0.047,1.104 0.167,1.769 l 0,0 c 0.06,0.381 0.146,0.769 0.271,1.184 l 0,0 c 0.45,1.656 1.395,3.047 2.422,3.962 l 0,0 c 1.02,0.932 2.129,1.294 2.504,1.27 l 0,0 c 0.004,0 0.064,0 0.185,-0.01 l 0,0 c 0.178,0 0.324,-0.017 0.544,-0.086 l 0,0 c 0.641,-0.129 1.541,-1.027 1.577,-3.038 l 0,0 c 0,-0.511 -0.071,-1.062 -0.23,-1.684 l 0,0 c -0.12,-0.483 -0.285,-0.984 -0.496,-1.476 l 0,0 -0.198,-0.424 -0.315,-0.664 c -1.216,-2.306 -3.099,-3.988 -4.26,-4.498 l 0,0 c -0.298,-0.146 -0.501,-0.189 -0.587,-0.207 l 0,0 0,0 h -0.169 c -0.06,0.008 -0.039,0.008 -0.052,0.008 l 0,0 -0.095,0.026 h -0.017 c -0.014,0.009 -0.04,0.026 -0.075,0.06 l 0,0 z"
     id="path3541"
     inkscape:connector-curvature="0"
     style="fill:#4a5d75" /><path
     d="m 179.83019,245.81915 c -4.757,-0.087 -9.184,-3.246 -11.907,-7.994 l 0,0 c -1.464,-2.728 -2.214,-5.481 -2.22,-8.046 l 0,0 c -0.025,-2.849 1.028,-5.974 4.015,-7.354 l 0,0 c 0.898,-0.422 1.852,-0.596 2.775,-0.596 l 0,0 c 4.447,0.155 8.438,3.186 11.707,7.373 l 0,0 0,0 c 2.151,2.771 3.409,5.783 3.431,8.787 l 0,0 c 0.067,2.685 -1.292,5.585 -4.022,6.975 l 0,0 c -1.192,0.597 -2.494,0.855 -3.755,0.855 l 0,0 c -0.005,0 -0.013,0 -0.024,0 l 0,0 z m -7.337,-18.111 c -0.198,0 -0.28,0.033 -0.349,0.067 l 0,0 c -0.047,0.026 -0.118,0.035 -0.277,0.338 l 0,0 c -0.146,0.293 -0.298,0.88 -0.293,1.665 l 0,0 c -0.009,1.364 0.448,3.298 1.488,5.215 l 0,0 c 1.729,3.194 4.989,5.05 6.768,4.954 l 0,0 c 0.481,0 0.839,-0.086 1.093,-0.216 l 0,0 c 0.565,-0.353 0.771,-0.604 0.837,-1.743 l 0,0 c 0.021,-1.227 -0.644,-3.228 -2.184,-5.171 l 0,0 2.314,-1.805 -2.349,1.752 c -2.267,-3.176 -5.666,-5.066 -6.906,-5.066 l 0,0 c -0.051,0.001 -0.103,0.001 -0.142,0.01 l 0,0 z"
     id="path3543"
     inkscape:connector-curvature="0"
     style="fill:#4a5d75" /><path
     d="m 180.18119,246.61215 c -5.639,-0.06 -10.516,-3.686 -13.259,-8.589 l 0,0 1.695,-0.949 c 0,-0.009 -0.003,-0.009 -0.003,-0.017 l 0,0 -1.705,0.939 c -0.727,-1.328 -1.266,-2.684 -1.641,-4.039 l 0,0 c -0.394,-1.459 -0.617,-2.901 -0.617,-4.334 l 0,0 c -0.057,-2.979 1.173,-6.379 4.415,-7.916 l 0,0 c 0.968,-0.44 2.003,-0.656 3.091,-0.664 l 0,0 c 5.145,0.138 9.561,3.6 12.971,7.933 l 0,0 1.36,1.762 -0.076,0.096 c 0.588,0.957 1.075,1.924 1.459,2.909 l 0,0 c 0.562,1.467 0.89,2.977 0.89,4.488 l 0,0 c 0.078,2.823 -1.415,5.887 -4.347,7.389 l 0,0 c -1.3,0.664 -2.72,0.959 -4.199,0.992 l 0,0 h -0.034 l 0,0 z m -7.545,-16.661 c 0,0.656 0.104,1.459 0.38,2.383 l 0,0 c 0.232,0.785 0.588,1.641 1.048,2.478 l 0,0 c 1.559,2.979 4.655,4.472 5.432,4.342 l 0,0 c 0,0 0.034,-0.009 0.16,-0.009 l 0,0 c 0.235,0 0.353,-0.043 0.496,-0.104 l 0,0 c 0.201,-0.12 0.445,-0.259 0.492,-1.285 l 0,0 c 0,-0.501 -0.11,-1.149 -0.396,-1.899 l 0,0 c -0.295,-0.794 -0.75,-1.649 -1.367,-2.504 l 0,0 -0.173,-0.233 c -0.016,-0.026 -0.039,-0.052 -0.055,-0.077 l 0,0 -0.479,-0.622 c -1.002,-1.234 -2.134,-2.236 -3.151,-2.917 l 0,0 c -0.985,-0.69 -1.903,-0.976 -2.149,-1.019 l 0,0 c -0.112,0.242 -0.246,0.759 -0.238,1.466 l 0,0 z"
     id="path3545"
     inkscape:connector-curvature="0"
     style="fill:#4a5d75" /><path
     d="m 194.41119,236.70215 c -3.985,-0.061 -7.949,-2.331 -11.161,-6.044 l 0,0 c -2.63,-3.271 -4.173,-6.698 -4.223,-9.96 l 0,0 c -0.016,-1.735 0.557,-3.825 2.327,-5.059 l 0,0 c 1.08,-0.777 2.322,-1.045 3.437,-1.045 l 0,0 c 3.87,0.12 7.583,2.469 11.113,5.74 l 0,0 0,0 c 3.151,2.987 5.257,6.259 5.343,9.885 l 0,0 c 0.037,1.734 -0.69,3.659 -2.252,4.972 l 0,0 c -1.347,1.087 -2.996,1.511 -4.55,1.511 l 0,0 c -0.012,0 -0.02,0 -0.034,0 l 0,0 z m -9.504,-16.003 c -0.05,1.147 0.881,3.841 2.853,6.215 l 0,0 c 2.188,2.641 5.212,3.987 6.652,3.91 l 0,0 c 0.573,-0.009 0.803,-0.139 0.832,-0.155 l 0,0 c 0.084,-0.104 0.104,-0.034 0.136,-0.448 l 0,0 c 0.086,-0.872 -1.001,-3.376 -3.449,-5.569 l 0,0 1.99,-2.157 -2.037,2.114 c -2.581,-2.605 -5.897,-4.151 -6.967,-4.151 l 0,0 c -0.01,0.059 -0.013,0.145 -0.01,0.241 l 0,0 z"
     id="path3547"
     inkscape:connector-curvature="0"
     style="fill:#4a5d75" /><path
     d="m 194.79119,237.48915 v 0.008 c -4.652,-0.061 -9.104,-2.668 -12.388,-6.534 l 0,0 1.292,-1.088 c -0.006,-0.009 -0.011,-0.009 -0.014,-0.009 l 0,0 -1.308,1.07 c -1.472,-1.813 -2.591,-3.704 -3.347,-5.603 l 0,0 c -0.606,-1.597 -1.012,-3.211 -1.018,-4.869 l 0,0 c -0.034,-1.864 0.67,-4.117 2.547,-5.472 l 0,0 c 1.138,-0.829 2.435,-1.148 3.659,-1.184 l 0,0 c 0.047,0 0.097,0 0.151,0 l 0,0 c 4.087,0.086 7.908,2.365 11.398,5.413 l 0,0 h 0.032 l 0.85,0.768 c 1.933,1.813 3.452,3.765 4.472,5.775 l 0,0 c 0.742,1.493 1.229,3.064 1.234,4.73 l 0,0 c 0.039,1.864 -0.756,3.911 -2.403,5.292 l 0,0 c -1.457,1.174 -3.235,1.675 -5.073,1.709 l 0,0 c -0.026,0.001 -0.063,0.001 -0.084,-0.006 l 0,0 z m -8.316,-14.348 c 0.435,1.062 1.177,2.331 2.157,3.504 l 0,0 c 1.998,2.453 4.684,3.488 5.39,3.402 l 0,0 h 0.023 c 0.026,0 0.063,0 0.121,0 l 0,0 c 0.041,-0.01 0.078,-0.01 0.106,-0.018 l 0,0 c 0.006,-0.025 0.006,-0.052 0.006,-0.104 l 0,0 c 0.002,-0.259 -0.097,-0.803 -0.444,-1.519 l 0,0 c -0.416,-0.854 -1.136,-1.882 -2.108,-2.884 l 0,0 -0.591,-0.587 c -0.039,-0.034 -0.078,-0.069 -0.115,-0.104 l 0,0 -0.303,-0.285 c -1.136,-1.044 -2.344,-1.891 -3.384,-2.468 l 0,0 c -0.5,-0.285 -0.983,-0.484 -1.36,-0.621 l 0,0 c 0.07,0.441 0.225,1.028 0.502,1.684 l 0,0 z m -1.347,-1.891 0,0 c -0.005,0 -0.005,0 0,0 l 0,0 z"
     id="path3549"
     inkscape:connector-curvature="0"
     style="fill:#4a5d75" /><path
     d="m 79.652192,210.90015 c -4.73,4.368 -9.699,6.173 -10.907,4.316 -1.114,-1.855 2.054,-6.275 6.988,-10.281 4.688,-4.023 9.124,-6.319 10.043,-4.808 1.002,1.501 -1.644,6.423 -6.124,10.773 z"
     id="path3551"
     inkscape:connector-curvature="0"
     style="fill:#ffffff" /><path
     d="m 69.107192,216.59815 c -0.967,-0.907 -0.794,-2.47 -0.012,-4.229 l 0,0 c 0.966,-2.15 2.865,-4.731 5.348,-7.261 l 0,0 c 3.668,-3.833 7.19,-6.655 9.707,-6.845 l 0,0 c 0.491,-0.01 0.945,0.146 1.243,0.438 l 0,0 c 0.88,0.898 0.656,2.548 0.004,4.524 l 0,0 c -0.751,2.157 -2.219,4.791 -4.277,7.372 l 0,0 -0.704,-0.285 0.704,0.294 c -3.263,3.885 -7.058,6.474 -10.07,6.596 l 0,0 c -0.009,0 -0.017,0 -0.021,0 l 0,0 c -0.778,0.017 -1.464,-0.182 -1.922,-0.604 l 0,0 z m 6.527,-10.791 c -2.284,2.365 -3.976,4.73 -4.757,6.525 l 0,0 c -0.647,1.503 -0.617,2.538 -0.116,2.979 l 0,0 c 0.242,0.207 0.548,0.303 0.954,0.285 l 0,0 c 1.52,0.052 5.02,-1.96 8.002,-5.576 l 0,0 h -0.004 c 1.938,-2.392 3.336,-4.853 4.027,-6.768 l 0,0 c 0.647,-1.762 0.6,-2.97 0.233,-3.247 l 0,0 c -0.108,-0.094 -0.216,-0.129 -0.415,-0.137 l 0,0 c -0.025,0 -0.056,0 -0.086,0 l 0,0 c -1.106,0.025 -4.593,2.39 -7.838,5.939 l 0,0 z"
     id="path3553"
     inkscape:connector-curvature="0"
     style="fill:#ffffff" /><path
     d="m 90.468192,216.17415 c -3.207,5.119 -8.006,8.114 -10.445,6.777 -2.356,-1.339 -0.992,-6.173 2.784,-10.964 3.612,-4.791 7.8,-7.976 9.604,-6.94 1.869,1.019 1.104,6.018 -1.943,11.127 z"
     id="path3555"
     inkscape:connector-curvature="0"
     style="fill:#ffffff" /><path
     d="m 79.289192,223.65115 c -1.709,-1.02 -1.74,-3.187 -0.859,-5.655 l 0,0 c 0.69,-1.941 1.942,-4.117 3.651,-6.284 l 0,0 c 3.315,-4.265 6.85,-7.467 9.725,-7.665 l 0,0 c 0.431,-0.01 0.854,0.086 1.191,0.275 l 0,0 c 1.571,0.958 1.549,3.298 0.855,6.12 l 0,0 c -0.467,1.805 -1.321,3.868 -2.564,5.94 l 0,0 c -2.767,4.394 -6.604,7.527 -10.108,7.682 l 0,0 c -0.009,0.009 -0.018,0.009 -0.022,0.009 l 0,0 c -0.699,0.009 -1.342,-0.129 -1.869,-0.422 l 0,0 z m 4.247,-11.387 c -1.545,1.985 -2.659,3.988 -3.246,5.688 l 0,0 c -0.772,2.219 -0.51,3.799 0.445,4.309 l 0,0 c 0.289,0.154 0.596,0.216 0.962,0.216 l 0,0 c 1.73,0.06 5.412,-2.409 7.955,-6.519 l 0,0 0,0 c 1.17,-1.934 1.994,-3.841 2.439,-5.48 l 0,0 c 0.747,-2.6 0.418,-4.446 -0.285,-4.731 l 0,0 c -0.129,-0.078 -0.272,-0.104 -0.458,-0.104 l 0,0 c -0.03,0 -0.065,-0.008 -0.104,0 l 0,0 c -1.302,0.017 -4.82,2.676 -7.708,6.621 l 0,0 z"
     id="path3557"
     inkscape:connector-curvature="0"
     style="fill:#ffffff" /><path
     d="m 103.37419,220.57615 c -2.192,5.439 -6.693998,9.116 -9.792998,8.114 -3.03,-1.001 -2.871,-6.008 0.095,-11.16 2.818,-5.172 6.775998,-8.764 9.071998,-8.028 2.335,0.725 2.706,5.654 0.626,11.074 z"
     id="path3559"
     inkscape:connector-curvature="0"
     style="fill:#ffffff" /><path
     d="m 93.024192,229.43415 c -2.681,-0.967 -3.112,-3.824 -2.275,-7.156 l 0,0 c 0.401,-1.562 1.101,-3.246 2.073,-4.946 l 0,0 c 2.744,-4.8 6.159,-8.495 9.395998,-8.719 l 0,0 c 0.324,-0.018 0.652,0.025 0.955,0.12 l 0,0 c 2.382,0.898 2.797,4.023 2.261,7.77 l 0,0 c -0.211,1.338 -0.591,2.763 -1.143,4.213 l 0,0 -0.916,-0.139 0.916,0.139 c -2.025,4.93 -5.693998,8.719 -9.732998,8.935 l 0,0 c -0.537,0.007 -1.055,-0.062 -1.534,-0.217 l 0,0 z m 1.489,-11.714 c -0.872,1.57 -1.494,3.115 -1.834,4.522 l 0,0 c -0.777,3.057 -0.021,5.283 1.441,5.698 l 0,0 c 0.25,0.086 0.509,0.12 0.781,0.112 l 0,0 c 1.973,0.104 5.722998,-2.962 7.557998,-7.597 l 0,0 0,0 c 0.54,-1.363 0.911,-2.693 1.123,-3.92 l 0,0 c 0.668,-3.521 -0.194,-6.085 -1.274,-6.274 l 0,0 c -0.125,-0.053 -0.254,-0.069 -0.401,-0.062 l 0,0 c -0.035,0 -0.073,-0.008 -0.116,-0.008 l 0,0 c -1.469,0.027 -4.946998,3.074 -7.277998,7.529 l 0,0 z"
     id="path3561"
     inkscape:connector-curvature="0"
     style="fill:#ffffff" /><path
     d="m 118.38619,222.97715 c -0.971,5.594 -4.774,9.91 -8.356,9.409 -3.53,-0.518 -4.696,-5.481 -2.792,-10.946 1.804,-5.455 5.278,-9.505 7.911,-9.15 2.658,0.371 4.152,5.084 3.237,10.687 z"
     id="path3563"
     inkscape:connector-curvature="0"
     style="fill:#ffffff" /><path
     d="m 109.73619,233.17215 c -3.733,-0.666 -4.838,-4.316 -4.26,-8.521 l 0,0 c 0.159,-1.069 0.431,-2.184 0.833,-3.314 l 0,0 c 1.895,-5.335 4.942,-9.591 8.525,-9.858 l 0,0 c 0.172,0 0.358,0.009 0.535,0.035 l 0,0 c 3.211,0.63 4.368,4.592 4.213,9.349 l 0,0 c -0.035,0.707 -0.112,1.424 -0.237,2.159 l 0,0 -0.958,-0.044 0.958,0.052 c -0.985,5.396 -4.187,9.919 -8.745,10.194 l 0,0 c -0.294,-0.001 -0.583,-0.018 -0.864,-0.052 l 0,0 z m -1.567,-11.611 c -0.358,1.045 -0.596,2.071 -0.734,3.056 l 0,0 c -0.583,3.938 0.958,6.828 2.884,6.976 l 0,0 c 0.155,0.018 0.302,0.034 0.449,0.025 l 0,0 c 2.236,0.121 5.81,-3.564 6.651,-8.701 l 0,0 c 0.121,-0.69 0.199,-1.364 0.242,-2.02 l 0,0 c 0.38,-4.533 -1.32,-7.813 -2.753,-7.813 l 0,0 c -0.065,-0.017 -0.134,-0.017 -0.216,-0.017 l 0,0 c -0.043,-0.008 -0.091,-0.008 -0.138,-0.008 l 0,0 c -1.603,0.033 -4.883,3.556 -6.385,8.502 l 0,0 z"
     id="path3565"
     inkscape:connector-curvature="0"
     style="fill:#ffffff" /><path
     d="m 134.31719,222.99415 c 0.342,5.584 -2.404,10.401 -6.146,10.463 -3.746,0.067 -6.197,-4.628 -5.542,-10.239 0.609,-5.61 3.311,-10.073 6.086,-10.126 2.774,-0.051 5.269,4.3 5.602,9.902 z"
     id="path3567"
     inkscape:connector-curvature="0"
     style="fill:#ffffff" /><path
     d="m 128.17919,234.26015 c -4.648,-0.112 -6.75,-4.541 -6.639,-9.617 l 0,0 c 0.018,-0.483 0.057,-0.968 0.121,-1.459 l 0,0 c 0.337,-2.9 1.226,-5.507 2.421,-7.45 l 0,0 c 1.161,-1.934 2.642,-3.365 4.615,-3.444 l 0,0 c 1.98,0 3.457,1.416 4.527,3.29 l 0,0 c 1.114,1.925 1.873,4.496 2.067,7.397 l 0,0 -0.976,0.018 0.976,-0.018 c 0.004,0.044 0.004,0.068 0.004,0.077 l 0,0 c 0.225,4.878 -1.48,9.375 -5.109,10.774 l 0,0 0.544,0.389 -2.551,0.043 0,0 z m -2.456,-17.853 c -1.028,1.711 -1.839,4.127 -2.124,6.854 l 0,0 c -0.048,0.45 -0.078,0.898 -0.091,1.347 l 0,0 c -0.052,2.384 0.488,4.507 1.398,5.948 l 0,0 c 0.915,1.433 2.062,2.099 3.15,2.106 l 0,0 c 0.035,0 0.069,0 0.104,-0.008 l 0,0 c 1.222,0.008 2.643,-0.882 3.708,-2.66 l 0,0 c 1.023,-1.752 1.609,-4.238 1.472,-6.906 l 0,0 c 0,-0.043 0.004,-0.067 0.004,-0.077 l 0,0 c -0.138,-2.702 -0.836,-5.102 -1.781,-6.75 l 0,0 c -0.933,-1.692 -2.056,-2.435 -2.837,-2.383 l 0,0 c -0.018,0 -0.038,0.008 -0.056,0.008 l 0,0 c -0.794,0.009 -1.971,0.848 -2.947,2.521 l 0,0 z"
     id="path3569"
     inkscape:connector-curvature="0"
     style="fill:#ffffff" /><path
     d="m 149.77319,220.61915 c 1.598,5.404 0.146,10.463 -3.413,11.094 -3.596,0.656 -7.126,-3.54 -7.783,-9.124 -0.643,-5.586 1.059,-10.359 3.729,-10.826 2.65,-0.466 5.935,3.453 7.467,8.856 z"
     id="path3571"
     inkscape:connector-curvature="0"
     style="fill:#ffffff" /><path
     d="m 137.60219,222.62315 c -0.022,-0.19 -0.038,-0.389 -0.061,-0.588 l 0,0 c -0.333,-5.49 1.031,-10.221 4.51,-11.05 l 0,0 c 0.169,-0.033 0.354,-0.051 0.54,-0.06 l 0,0 c 3.618,0.163 6.495,4.342 8.123,9.6 l 0,0 -0.941,0.094 -0.941,0.096 c -0.694,-2.486 -1.799,-4.637 -2.965,-6.086 l 0,0 c -1.161,-1.493 -2.344,-2.15 -3.067,-2.106 l 0,0 c -0.087,0 -0.16,0.009 -0.243,0.025 l 0,0 c -1.674,0.069 -3.664,4.257 -3.077,9.444 l 0,0 c 0.018,0.189 0.038,0.371 0.061,0.562 l 0,0 c 0.311,2.521 1.223,4.721 2.399,6.24 l 0,0 c 1.205,1.528 2.581,2.245 3.665,2.202 l 0,0 c 0.143,0 0.294,-0.018 0.445,-0.043 l 0,0 c 2.205,-0.269 3.991,-3.919 3.193,-8.399 l 0,0 c -0.1,-0.604 -0.233,-1.209 -0.411,-1.839 l 0,0 0.941,-0.096 0.941,-0.094 c 0.207,0.682 0.358,1.338 0.475,1.994 l 0,0 c 0.781,4.781 -0.453,9.09 -4.522,9.979 l 0,0 c -0.285,0.043 -0.566,0.069 -0.854,0.069 l 0,0 c -4.604,-0.094 -7.538,-4.575 -8.211,-9.944 l 0,0 z"
     id="path3573"
     inkscape:connector-curvature="0"
     style="fill:#ffffff" /><path
     d="m 163.46819,216.16615 c 2.677,5.058 2.555,10.108 -0.509,11.23 -3.142,1.122 -7.397,-2.426 -9.288,-7.786 -1.817,-5.361 -1.238,-10.3 1.121,-11.127 2.314,-0.821 6.114,2.616 8.676,7.683 z"
     id="path3575"
     inkscape:connector-curvature="0"
     style="fill:#ffffff" /><path
     d="m 161.99319,228.38915 c -4.072,-0.069 -7.511,-3.806 -9.251,-8.666 l 0,0 c -0.315,-0.933 -0.553,-1.84 -0.721,-2.729 l 0,0 c -0.772,-4.394 -0.306,-8.185 2.317,-9.254 l 0,0 c 0.294,-0.112 0.617,-0.172 0.95,-0.172 l 0,0 c 3.268,0.12 6.539,3.712 9.047,8.424 l 0,0 h -0.005 c 0.669,1.253 1.17,2.513 1.519,3.712 l 0,0 c 1.072,3.824 0.631,7.244 -2.329,8.426 l 0,0 c -0.471,0.165 -0.981,0.251 -1.499,0.259 l 0,0 c -0.007,0 -0.015,0 -0.028,0 l 0,0 z m -6.341,-19.241 c -0.139,0.017 -0.271,0.034 -0.41,0.086 l 0,0 c -1.303,0.285 -2.274,3.6 -1.35,7.727 l 0,0 c 0.162,0.819 0.4,1.675 0.703,2.538 l 0,0 c 1.584,4.592 5.114,7.501 7.005,7.32 l 0,0 c 0.271,-0.009 0.53,-0.052 0.793,-0.147 l 0,0 c 1.728,-0.544 2.556,-3.384 1.546,-6.932 l 0,0 c -0.302,-1.104 -0.751,-2.245 -1.342,-3.41 l 0,0 0.867,-0.163 -0.867,0.163 c -2.107,-4.358 -5.407,-7.216 -6.825,-7.19 l 0,0 c -0.042,-0.001 -0.081,0.008 -0.12,0.008 l 0,0 z"
     id="path3577"
     inkscape:connector-curvature="0"
     style="fill:#ffffff" /><path
     d="m 174.51919,210.20015 c 3.507,4.644 4.595,9.461 2.199,10.911 -2.481,1.451 -7.077,-1.424 -10,-6.431 -2.8,-4.998 -3.357,-9.962 -1.453,-11.05 1.842,-1.087 5.892,1.909 9.254,6.57 z"
     id="path3579"
     inkscape:connector-curvature="0"
     style="fill:#ffffff" /><path
     d="m 165.86819,214.88015 c -0.876,-1.58 -1.528,-3.125 -1.96,-4.585 l 0,0 c -0.939,-3.366 -1.023,-6.224 0.747,-7.354 l 0,0 c 0.337,-0.198 0.742,-0.319 1.187,-0.328 l 0,0 c 2.893,0.104 6.329,3.186 9.431,7.329 l 0,0 0,0 c 1.31,1.734 2.309,3.496 2.952,5.128 l 0,0 c 1.127,2.909 1.161,5.48 -0.771,6.717 l 0,0 c -0.525,0.31 -1.18,0.482 -1.872,0.491 l 0,0 c -3.537,-0.043 -7.192,-3.099 -9.714,-7.398 l 0,0 z m 0.5,-10.679 c -0.181,0.009 -0.34,0.043 -0.496,0.129 l 0,0 c -0.88,0.38 -1.196,2.814 -0.182,5.932 l 0,0 c 0.416,1.337 1.041,2.787 1.87,4.221 l 0,0 c 2.316,4.04 5.8,6.353 7.458,6.216 l 0,0 c 0.358,-0.01 0.669,-0.087 0.97,-0.259 l 0,0 c 1.146,-0.648 1.404,-2.703 0.385,-5.336 l 0,0 c -0.557,-1.458 -1.441,-3.073 -2.619,-4.652 l 0,0 0.765,-0.259 -0.765,0.259 c -2.677,-3.832 -6.026,-6.276 -7.289,-6.259 l 0,0 c -0.035,0 -0.065,0.008 -0.097,0.008 l 0,0 z"
     id="path3581"
     inkscape:connector-curvature="0"
     style="fill:#ffffff" /><path
     d="m 181.89919,202.89815 c 4.618,3.901 7.466,8.296 6.269,10.194 -1.311,1.891 -6.096,0.139 -10.486,-4.151 -4.189,-4.273 -6.551,-9.115 -5.473,-10.618 0.997,-1.512 5.279,0.664 9.69,4.575 z"
     id="path3583"
     inkscape:connector-curvature="0"
     style="fill:#ffffff" /><path
     d="m 185.96519,214.97415 c -3.018,-0.024 -6.682,-2.503 -9.72,-6.284 l 0,0 c -1.624,-2.097 -2.832,-4.238 -3.562,-6.12 l 0,0 c -0.906,-2.408 -1.248,-4.445 -0.203,-5.49 l 0,0 c 0.302,-0.293 0.733,-0.448 1.23,-0.458 l 0,0 c 2.534,0.087 5.978,2.763 9.456,6.423 l 0,0 0,0 c 2.05,2.133 3.643,4.299 4.576,6.224 l 0,0 c 1.01,2.09 1.281,3.946 0.165,5.033 l 0,0 c -0.471,0.433 -1.146,0.656 -1.923,0.673 l 0,0 c -0.006,-0.001 -0.011,-0.001 -0.019,-0.001 l 0,0 z m -11.59,-16.78 c -0.198,0.008 -0.327,0.051 -0.462,0.18 l 0,0 c -0.487,0.338 -0.471,1.978 0.441,4.162 l 0,0 c 0.683,1.7 1.83,3.686 3.35,5.628 l 0,0 c 2.779,3.479 6.09,5.353 7.547,5.231 l 0,0 c 0.402,-0.008 0.714,-0.112 0.976,-0.336 l 0,0 c 0.641,-0.58 0.614,-1.943 -0.249,-3.756 l 0,0 c -0.787,-1.666 -2.201,-3.661 -4.048,-5.603 l 0,0 0.617,-0.328 -0.622,0.328 c -3.057,-3.376 -6.381,-5.533 -7.469,-5.517 l 0,0 c -0.023,10e-4 -0.06,10e-4 -0.081,0.011 l 0,0 z"
     id="path3585"
     inkscape:connector-curvature="0"
     style="fill:#ffffff" /><path
     d="m 71.102192,231.15215 c -4.053,4.472 -9.595,6.337 -12.116,4.386 -2.382,-1.943 -0.604,-6.372 3.841,-10.308 4.273,-3.92 9.259,-6.259 11.283,-4.852 2.123,1.399 0.872,6.32 -3.008,10.774 z"
     id="path3587"
     inkscape:connector-curvature="0"
     style="fill:#ffffff" /><path
     d="m 58.054192,236.17515 c -1.549,-1.251 -1.567,-3.323 -0.513,-5.541 l 0,0 c 0.88,-1.856 2.468,-3.877 4.601,-5.768 l 0,0 c 3.591,-3.254 7.605,-5.594 10.67,-5.706 l 0,0 c 0.798,-0.017 1.532,0.156 2.067,0.536 l 0,0 c 1.572,1.088 1.546,3.341 0.644,5.905 l 0,0 c -0.665,1.838 -1.869,3.866 -3.583,5.826 l 0,0 -0.837,-0.276 0.837,0.285 c -3.082,3.41 -7.135,5.576 -10.601,5.671 l 0,0 c -0.004,-0.008 -0.012,-0.008 -0.017,-0.008 l 0,0 c -1.305,0.027 -2.453,-0.284 -3.268,-0.924 l 0,0 z m 5.451,-10.565 c -1.861,1.665 -3.216,3.419 -3.933,4.981 l 0,0 c -0.854,1.891 -0.733,3.427 0.345,4.299 l 0,0 c 0.562,0.448 1.265,0.621 2.106,0.612 l 0,0 c 2.154,-0.018 5.49,-1.597 8.244,-4.636 l 0,0 h 0.004 c 1.558,-1.769 2.672,-3.616 3.281,-5.231 l 0,0 c 0.872,-2.278 0.668,-4.04 -0.229,-4.584 l 0,0 c -0.303,-0.206 -0.669,-0.293 -1.148,-0.293 l 0,0 c -0.025,0 -0.056,0 -0.082,0 l 0,0 c -1.811,0.034 -5.433,1.908 -8.588,4.852 l 0,0 z"
     id="path3589"
     inkscape:connector-curvature="0"
     style="fill:#ffffff" /><path
     d="m 85.988192,238.10115 c -3.168,5.058 -8.853,7.856 -12.357,6.215 -3.384,-1.656 -2.771,-6.586 1.071,-11.127 3.686,-4.575 8.702,-7.44 11.442,-6.293 2.818,1.148 2.866,6.164 -0.156,11.205 z"
     id="path3591"
     inkscape:connector-curvature="0"
     style="fill:#ffffff" /><path
     d="m 72.824192,245.00615 c -2.629,-1.312 -3.078,-4.064 -1.986,-7.104 l 0,0 c 0.583,-1.605 1.593,-3.324 2.986,-4.989 l 0,0 c 3.302,-3.988 7.507,-6.924 11.102,-7.071 l 0,0 c 0.656,-0.017 1.3,0.096 1.848,0.32 l 0,0 c 2.512,1.104 2.974,4.108 2.136,7.57 l 0,0 c -0.367,1.459 -1.01,3.004 -1.938,4.549 l 0,0 -0.984,-0.181 0.984,0.181 c -2.62,4.205 -6.966,7.165 -11.214,7.304 l 0,0 c -1.074,0.018 -2.084,-0.181 -2.934,-0.579 l 0,0 z m 2.749,-11.567 c -1.226,1.477 -2.102,3.014 -2.594,4.421 l 0,0 c -0.949,2.685 -0.367,4.894 1.446,5.749 l 0,0 c 0.565,0.275 1.183,0.389 1.834,0.379 l 0,0 c 2.503,0.01 6.336,-2.227 8.745,-6.077 l 0,0 v 0.009 c 0.867,-1.424 1.471,-2.849 1.816,-4.152 l 0,0 c 0.877,-3.168 0.147,-5.628 -1.32,-6.146 l 0,0 c -0.319,-0.139 -0.656,-0.19 -1.045,-0.182 l 0,0 c -0.034,0 -0.073,0 -0.107,0 l 0,0 c -2.055,0.034 -5.892,2.375 -8.775,5.999 l 0,0 z"
     id="path3593"
     inkscape:connector-curvature="0"
     style="fill:#ffffff" /><path
     d="m 104.50019,242.82315 c -1.903,5.464 -7.203998,9.22 -11.566998,8.148 -4.273,-1.086 -5.167,-6.224 -2.296,-11.343 2.75,-5.128 7.498,-8.632 10.842998,-7.906 3.4,0.741 4.837,5.637 3.02,11.101 z"
     id="path3595"
     inkscape:connector-curvature="0"
     style="fill:#ffffff" /><path
     d="m 92.372192,251.72315 c -3.976,-1.062 -5.175,-4.575 -4.251,-8.503 l 0,0 c 0.293,-1.217 0.79,-2.486 1.506,-3.755 l 0,0 c 2.654,-4.792 6.837,-8.442 10.988998,-8.65 l 0,0 c 0.432,0 0.864,0.043 1.286,0.147 l 0,0 c 3.569,0.88 4.869,4.652 4.347,9.071 l 0,0 c -0.121,0.925 -0.345,1.891 -0.668,2.885 l 0,0 c -1.723,4.954 -6.055998,8.831 -11.127998,9.028 l 0,0 c -0.717,0.019 -1.416,-0.06 -2.081,-0.223 l 0,0 z m -0.717,-11.922 c -0.63,1.141 -1.07,2.288 -1.316,3.376 l 0,0 c -0.833,3.573 0.579,6.439 3.146,7.026 l 0,0 c 0.419,0.104 0.842,0.146 1.273,0.146 l 0,0 c 2.905,0.043 7.069998,-3.013 8.658998,-7.631 l 0,0 c 0.311,-0.897 0.531,-1.796 0.651,-2.65 l 0,0 c 0.643,-4.117 -0.984,-7.251 -3.017,-7.579 l 0,0 c -0.233,-0.043 -0.471,-0.069 -0.721,-0.061 l 0,0 c -0.039,0 -0.082,0 -0.133,0 l 0,0 c -2.299998,0.045 -6.266998,2.971 -8.541998,7.373 l 0,0 z"
     id="path3597"
     inkscape:connector-curvature="0"
     style="fill:#ffffff" /><path
     d="m 125.30019,244.51515 c -0.388,5.629 -4.713,10.203 -9.573,9.875 -4.826,-0.318 -7.337,-5.291 -5.792,-10.808 1.476,-5.499 5.551,-9.643 9.258,-9.435 3.72,0.207 6.479,4.739 6.107,10.368 z"
     id="path3599"
     inkscape:connector-curvature="0"
     style="fill:#ffffff" /><path
     d="m 115.51919,255.18415 c -5.283,-0.466 -7.609,-4.704 -7.117,-9.495 l 0,0 c 0.082,-0.699 0.225,-1.433 0.432,-2.166 l 0,0 c 1.579,-5.491 5.386,-9.945 10.043,-10.178 l 0,0 c 0.146,-0.01 0.302,0 0.449,0 l 0,0 c 4.575,0.422 7.057,4.91 7.117,10.28 l 0,0 c 0,0.312 -0.009,0.613 -0.025,0.898 l 0,0 -1.118,-0.009 1.118,0.017 c -0.406,5.551 -4.265,10.42 -10.118,10.67 l 0,0 c -0.267,0.018 -0.517,0 -0.781,-0.017 l 0,0 z m 8.655,-10.679 c 0.025,-0.285 0.039,-0.552 0.039,-0.846 l 0,0 c 0.142,-5.059 -2.689,-8.744 -5.18,-8.727 l 0,0 c -0.06,0 -0.146,-0.009 -0.232,0 l 0,0 c -2.529,-0.112 -6.492,3.557 -7.765,8.727 l 0,0 c -0.19,0.683 -0.312,1.347 -0.376,1.986 l 0,0 c -0.475,4.455 2.124,7.847 5.244,7.949 l 0,0 c 0.168,0.01 0.341,0.019 0.493,0.01 l 0,0 c 3.37,0.036 7.448,-3.892 7.777,-9.099 l 0,0 z"
     id="path3601"
     inkscape:connector-curvature="0"
     style="fill:#ffffff" /><path
     d="m 146.42819,242.89215 c 1.148,5.481 -1.726,10.593 -6.565,11.084 -4.872,0.491 -8.839,-3.944 -8.831,-9.564 -0.003,-5.62 3.03,-10.281 6.752,-10.652 3.707,-0.355 7.531,3.633 8.644,9.132 z"
     id="path3603"
     inkscape:connector-curvature="0"
     style="fill:#ffffff" /><path
     d="m 129.90619,244.79015 c 0,-0.129 -0.004,-0.267 0,-0.371 l 0,0 c 0.121,-5.8 2.956,-10.815 7.709,-11.463 l 0,0 c 0.155,-0.009 0.315,-0.018 0.479,-0.026 l 0,0 c 4.687,0.086 8.229,4.429 9.436,9.893 l 0,0 -1.106,0.069 -1.104,0.069 c -0.502,-2.563 -1.637,-4.766 -3.01,-6.25 l 0,0 c -1.354,-1.512 -2.854,-2.219 -4.095,-2.176 l 0,0 c -0.083,0 -0.169,0 -0.26,0.01 l 0,0 c -2.686,0.094 -5.931,4.402 -5.801,9.874 l 0,0 c -0.004,0.104 0,0.208 0.009,0.32 l 0,0 c 0.077,2.503 0.979,4.712 2.313,6.231 l 0,0 c 1.39,1.528 3.081,2.288 4.727,2.254 l 0,0 c 0.151,-0.009 0.298,-0.009 0.452,-0.035 l 0,0 c 3.441,-0.225 6.462,-4.376 5.814,-9.271 l 0,0 c -0.039,-0.327 -0.09,-0.647 -0.15,-0.957 l 0,0 1.104,-0.069 1.106,-0.069 c 0.073,0.346 0.137,0.7 0.188,1.053 l 0,0 c 0.635,5.267 -1.989,10.187 -7.646,10.895 l 0,0 c -0.257,0.018 -0.502,0.035 -0.752,0.035 l 0,0 c -5.775,-0.036 -9.252,-4.646 -9.413,-10.016 l 0,0 z"
     id="path3605"
     inkscape:connector-curvature="0"
     style="fill:#ffffff" /><path
     d="m 165.81719,238.14515 c 2.508,5.083 1.278,10.35 -3.039,11.592 -4.398,1.244 -9.379,-2.392 -10.895,-7.837 -1.463,-5.439 0.246,-10.429 3.661,-11.318 3.351,-0.873 7.856,2.468 10.273,7.563 z"
     id="path3607"
     inkscape:connector-curvature="0"
     style="fill:#ffffff" /><path
     d="m 150.78319,241.98615 c -0.146,-0.562 -0.254,-1.088 -0.336,-1.632 l 0,0 c -0.694,-4.972 0.799,-9.392 4.648,-10.522 l 0,0 c 0.418,-0.122 0.858,-0.173 1.308,-0.182 l 0,0 c 4.145,0.043 8.114,3.6 10.454,8.347 l 0,0 0,0 c 0.439,0.908 0.771,1.813 1.015,2.711 l 0,0 c 1.109,4.352 -0.221,8.452 -4.529,9.772 l 0,0 c -0.658,0.173 -1.341,0.275 -2.045,0.294 l 0,0 c -5.102,-0.019 -9.142,-3.86 -10.515,-8.788 l 0,0 z m 5.944,-10.757 c -0.251,0.01 -0.497,0.043 -0.743,0.112 l 0,0 c -2.3,0.467 -4.187,4.333 -3.345,8.978 l 0,0 c 0.081,0.493 0.191,0.984 0.34,1.493 l 0,0 c 1.273,4.61 5.186,7.537 7.986,7.373 l 0,0 c 0.413,-0.009 0.833,-0.06 1.248,-0.182 l 0,0 c 2.86,-0.75 4.488,-4.272 3.451,-8.261 l 0,0 c -0.201,-0.812 -0.495,-1.632 -0.884,-2.451 l 0,0 1.036,-0.146 -1.036,0.146 c -2.003,-4.369 -5.702,-7.105 -7.929,-7.062 l 0,0 c -0.042,0 -0.081,0 -0.124,0 l 0,0 z"
     id="path3609"
     inkscape:connector-curvature="0"
     style="fill:#ffffff" /><path
     d="m 181.89119,231.01315 c 3.518,4.481 3.823,9.531 0.393,11.318 -3.549,1.795 -8.965,-0.898 -11.779,-5.897 -2.703,-5.014 -2.396,-10.082 0.444,-11.351 2.762,-1.269 7.558,1.415 10.942,5.93 z"
     id="path3611"
     inkscape:connector-curvature="0"
     style="fill:#ffffff" /><path
     d="m 169.48619,236.59915 c -0.617,-1.14 -1.075,-2.288 -1.381,-3.4 l 0,0 c -1.058,-3.954 -0.554,-7.494 2.188,-8.814 l 0,0 c 0.552,-0.259 1.186,-0.397 1.855,-0.406 l 0,0 c 3.578,0.009 7.621,2.858 10.652,6.786 l 0,0 h -0.005 c 1.032,1.337 1.817,2.701 2.335,4.021 l 0,0 c 1.312,3.427 0.86,6.656 -2.037,8.227 l 0,0 c -0.845,0.424 -1.833,0.64 -2.879,0.656 l 0,0 c -4.262,0.009 -8.415,-2.9 -10.728,-7.07 l 0,0 z m 3.18,-11.033 c -0.389,0.01 -0.726,0.069 -1.065,0.226 l 0,0 c -1.688,0.664 -2.5,3.729 -1.399,7.371 l 0,0 c 0.299,1.011 0.729,2.055 1.308,3.092 l 0,0 c 2.146,3.832 5.784,5.947 8.175,5.843 l 0,0 c 0.617,-0.017 1.219,-0.146 1.797,-0.439 l 0,0 c 2.055,-1.019 2.688,-3.755 1.519,-6.829 l 0,0 c -0.444,-1.182 -1.113,-2.399 -2.023,-3.582 l 0,0 0.915,-0.233 -0.915,0.233 c -2.642,-3.574 -6.237,-5.724 -8.214,-5.688 l 0,0 c -0.033,0.006 -0.067,0.006 -0.098,0.006 l 0,0 z"
     id="path3613"
     inkscape:connector-curvature="0"
     style="fill:#ffffff" /><path
     d="m 193.92019,222.49315 c 4.143,3.824 5.661,8.34 3.237,10.401 -2.568,2.072 -7.893,0.328 -11.635,-4.082 -3.582,-4.395 -4.578,-9.298 -2.429,-10.8 2.049,-1.51 6.834,0.631 10.827,4.481 z"
     id="path3615"
     inkscape:connector-curvature="0"
     style="fill:#ffffff" /><path
     d="m 184.64719,229.07915 c -1.302,-1.605 -2.257,-3.237 -2.879,-4.799 l 0,0 c -1.135,-2.952 -1.221,-5.646 0.523,-6.923 l 0,0 c 0.552,-0.397 1.273,-0.597 2.071,-0.605 l 0,0 c 3.038,-0.017 6.916,2.219 10.282,5.396 l 0,0 h 0.005 c 1.718,1.605 3.025,3.305 3.844,4.937 l 0,0 c 1.279,2.538 1.321,4.956 -0.399,6.432 l 0,0 c -0.811,0.664 -1.938,1.019 -3.217,1.045 l 0,0 c -3.465,0.034 -7.389,-2.099 -10.23,-5.483 l 0,0 z m 0.403,-10.764 c -0.466,0.009 -0.842,0.121 -1.169,0.347 l 0,0 c -1.072,0.69 -1.239,2.917 -0.126,5.584 l 0,0 c 0.56,1.39 1.46,2.883 2.637,4.29 l 0,0 c 2.567,3.031 5.731,4.507 7.769,4.438 l 0,0 c 0.787,-0.017 1.478,-0.216 2.051,-0.673 l 0,0 c 1.244,-1.062 1.344,-2.986 0.264,-5.18 l 0,0 c -0.69,-1.398 -1.812,-2.901 -3.29,-4.281 l 0,0 0.73,-0.346 -0.738,0.346 c -2.926,-2.857 -6.314,-4.559 -8.054,-4.532 l 0,0 c -0.022,0.007 -0.046,-0.001 -0.074,0.007 l 0,0 z"
     id="path3617"
     inkscape:connector-curvature="0"
     style="fill:#ffffff" /><path
     d="m 221.34419,137.89615 c 0.06,3.159 -2.809,5.774 -6.399,5.844 l 0,0 c -3.596,0.069 -6.548,-2.442 -6.613,-5.611 l -0.648,-35.116 c -0.055,-3.159999 2.806,-5.774999 6.401,-5.844999 l 0,0 c 3.591,-0.068 6.549,2.448 6.614,5.610999 l 0.645,35.117 z"
     id="path3619"
     inkscape:connector-curvature="0"
     style="fill:#4a5d75" /><path
     d="m 47.781192,104.85915 c 0.013,3.462 -1.999,6.276 -4.498,6.285 l -34.7840001,0.125 c -2.504,0.013 -4.541,-2.784 -4.55,-6.25 l 0,0 c -0.017,-3.461 2.002,-6.279999 4.506,-6.288999 l 34.7810001,-0.13 c 2.499,-0.008 4.532,2.792999 4.545,6.258999 l 0,0 z"
     id="path3621"
     inkscape:connector-curvature="0"
     style="fill:#4a5d75" /><path
     d="m 40.111192,116.56915 c -1.269,-3.238 -1.312,-6.125 -1.317,-6.746 l 0,0 c 0,-0.073 0,-0.125 0,-0.156 l 0,0 3.941,0.156 c -0.008,0.336 0.056,2.81 1.045,5.304 l 0,0 c 0.854,2.106 2.209,4.144 4.744,5.356 0.492,0.233 0.526,4.394 0.526,4.394 -5.019,-1.393 -7.708,-5.092 -8.939,-8.308 l 0,0 z m 2.624,-6.746 h -0.039 0.039 l 0,0 0,0 z"
     id="path3623"
     inkscape:connector-curvature="0"
     style="fill:#4a5d75" /><path
     d="m 65.710192,149.38515 c 0,13.751 11.149,24.904 24.896,24.904 13.750998,0 24.895998,-11.153 24.895998,-24.904 0,-4.532 -1.217,-8.778 -3.34,-12.439 H 69.055192 c -2.123,3.661 -3.345,7.907 -3.345,12.439 z"
     id="path3625"
     inkscape:connector-curvature="0"
     style="fill:#231f20" /><path
     d="m 185.05519,136.94615 h -43.111 c -2.119,3.661 -3.341,7.907 -3.341,12.439 0,13.751 11.145,24.904 24.896,24.904 13.75,0 24.896,-11.153 24.896,-24.904 0,0 -0.625,-5.879 -3.34,-12.439 z"
     id="path3627"
     inkscape:connector-curvature="0"
     style="fill:#231f20" /><text
     xml:space="preserve"
     style="font-size:40px;font-style:normal;font-weight:normal;line-height:125%;letter-spacing:0px;word-spacing:0px;fill:#000000;fill-opacity:1;stroke:none;font-family:Sans"
     x="47.041245"
     y="294.42068"
     id="text3633"
     sodipodi:linespacing="125%"><tspan
       sodipodi:role="line"
       id="tspan3635"
       x="47.041245"
       y="294.42068">Click Me</tspan></text>
</svg>