<?xml version="1.0" encoding="UTF-8"?>
<!-- Generator: Adobe Illustrator 13.0.2, SVG Export Plug-In  -->
<!DOCTYPE svg PUBLIC "-//W3C//DTD SVG 1.1//EN" "http://www.w3.org/Graphics/SVG/1.1/DTD/svg11.dtd" [
	<!ENTITY ns_flows "http://ns.adobe.com/Flows/1.0/">
]>
<svg version="1.1" xmlns="http://www.w3.org/2000/svg" xmlns:xlink="http://www.w3.org/1999/xlink" xmlns:a="http://ns.adobe.com/AdobeSVGViewerExtensions/3.0/" x="0px" y="0px" width="256px" height="256px" viewBox="-2.47 -0.206 256 256" enable-background="new -2.47 -0.206 256 256" xml:space="preserve">
<defs>
</defs>
<path fill="#B0C2CC" d="M195.062,38.531c-66.037-48.597-144.217-10-144.217-10l2.801,30.688l5.227,1.977  c-0.596-6.345-0.721-10.803-0.721-10.803l0.734-5.875l-0.734,5.875c0,0,0.125,4.458,0.721,10.803l20.006,7.549L195.062,38.531z"/>
<path fill="#5A6D82" d="M204.2,119.365c-0.508-11.3-7.646-21.413-7.693-42.73c-0.045-18.413-11.883-26.963-11.883-26.963  c-23.771-9.418-58.538-7.967-58.538-7.967l-1.342,0.025c0,0-34.793-0.164-58.2,10.126c0,0-4.373,3.44-7.562,10.419  c1.161,11.628,3.889,28.759,10.178,37.042c10.03,13.212,14.308,26.212,14.308,26.212l-0.116,1.433l0.116-1.433  c0,0-4.278-13-14.308-26.212c-6.289-8.282-9.017-25.414-10.178-37.042c-1.969,4.303-3.488,9.94-3.246,16.962  c0.743,21.301-5.948,31.677-6.038,42.985c-0.091,11.309,1.636,23.877,7.109,29.265l141.365-2.616  C203.446,143.277,204.707,130.665,204.2,119.365z"/>
<path fill="#4A5D75" d="M54.989,78.551c0,0.233,0.009,0.475,0.017,0.716c0.021,0.509,0.031,1.019,0.039,1.524  c0.384,20.2-5.961,30.105-6.077,41.427c-0.008,0.911-0.004,1.817,0.013,2.741c0.216,10.618,1.994,21.745,7.315,27.045l1.028-1.045  c-4.766-4.609-6.716-15.564-6.885-26.027c-0.017-0.906-0.017-1.804-0.009-2.706c0.052-10.752,6.449-20.947,6.082-41.467  c-0.013-0.509-0.025-1.027-0.043-1.549c-0.008-0.229-0.012-0.461-0.017-0.686c-0.113-6.069,1.109-10.393,2.763-14.067  c-0.147-1.251-0.268-2.46-0.372-3.6C56.659,65.227,54.855,71.092,54.989,78.551z"/>
<polygon fill="#4A5D75" points="198.703,149.38 198.71,149.371 198.706,149.371 "/>
<path fill="#4A5D75" d="M205.015,122.071c-0.016-0.915-0.05-1.834-0.089-2.737c-0.541-11.309-7.312-20.972-7.675-41.167  c-0.014-0.509-0.019-1.023-0.019-1.528c0-0.242-0.003-0.479-0.008-0.713c-0.345-18.309-12.056-26.748-12.115-26.812l-0.1-0.082  l-0.126-0.048c-20.622-8.158-49.195-8.201-56.869-8.062c-1.265,0.021-1.951,0.052-1.959,0.052L124.734,41  c0.009,0-0.686-0.009-1.946,0.018c-7.67,0.151-36.226,1.247-56.538,10.16l-0.121,0.056l-0.095,0.086  c-0.035,0.034-4.014,3.194-7.191,9.539c0.104,1.14,0.225,2.349,0.372,3.6c0.747-1.67,1.588-3.207,2.429-4.713  c2.426-4.317,4.856-6.802,5.322-7.281c19.902-8.71,48.277-9.85,55.847-9.984c1.244-0.026,1.925-0.021,1.925-0.021l1.364-0.021  c0.018,0,0.687-0.03,1.939-0.056c7.57-0.143,35.97-0.052,56.185,7.92c0.22,0.199,0.818,0.768,1.652,1.718  c3.198,3.63,9.642,10.691,9.885,23.934c0.003,0.229,0.008,0.458,0.013,0.687c-0.005,0.518,0.003,1.04,0.014,1.549  c0.382,20.515,7.226,30.468,7.678,41.207c0.039,0.894,0.068,1.8,0.081,2.703c0.22,10.458-1.326,21.473-5.913,26.272l1.07,1.001  C203.82,143.88,205.185,132.684,205.015,122.071z"/>
<path fill="#4A5D75" d="M192.638,123.931L83.429,125.96l-0.078,1.001l0.078-1.001l-22.004,0.406c0,0-4.165,33.348-13.19,46.114  l8.899,12.759c0,0,3.993,6.061,12.306,3.005c8.305-3.065,22.863-7.209,22.699,0.232c-0.065,2.962-4.878,8.045-9.875,13.985  c-7.493,8.891-16.212,19.225-16.329,23.479c-0.189,7.097-0.841,7.46,0.246,13.105c1.088,5.654,32.885,15.693,61.705,15.158  l3.109-0.061c28.822-0.518,60.231-11.731,61.107-17.429c0.876-5.68,0.22-6.018-0.24-13.095c-0.259-3.963-8.104-13.26-15.602-21.393  c-5.895-6.396-11.83-11.826-12.027-15.089c-0.434-7.424,14.269-3.824,22.681-1.07c8.413,2.754,12.184-3.453,12.184-3.453  l8.423-13.078C198.033,157.114,192.638,123.931,192.638,123.931z"/>
<path fill="#4A5D75" d="M208.093,169.096c-4.613-6.025-8.353-17.394-10.868-27.2c-2.521-9.807-3.862-18.06-3.867-18.077  l-1.449,0.233c0.028,0.052,5.228,32.467,14.718,45.511l-8.146,12.655c-0.016,0.017-0.133,0.216-0.418,0.561  c-0.884,1.062-3.086,3.193-6.836,3.263c-1.195,0.017-2.552-0.163-4.085-0.674c-4.854-1.57-11.744-3.453-16.841-3.366  c-1.868,0.035-3.517,0.328-4.782,1.088c-1.276,0.76-2.079,2.123-2.028,3.824c0,0.086,0.009,0.189,0.018,0.302  c0.328,4.196,9.789,11.844,15.689,19.104c5.913,7.13,11.778,14.425,11.862,17.351c0.279,4.316,0.633,6.164,0.667,8.105  c0.023,1.261-0.081,2.607-0.422,4.826c-0.013,0.795-1.969,2.685-5.444,4.445c-10.376,5.499-33.415,11.913-54.879,12.301  l-3.108,0.062c-14.308,0.267-29.411-2.106-41.03-5.24c-5.806-1.571-10.748-3.323-14.265-5.023c-3.54-1.641-5.563-3.453-5.611-4.256  c-0.423-2.192-0.569-3.54-0.596-4.792c-0.039-1.951,0.246-3.797,0.367-8.132c-0.03-2.926,5.563-10.437,11.214-17.774  c5.632-7.484,14.739-15.46,14.92-19.707c0-0.095,0-0.172,0-0.251c-0.013-1.718-0.868-3.056-2.167-3.755  c-1.299-0.725-2.957-0.958-4.825-0.923c-5.098,0.104-11.909,2.235-16.7,3.997c-1.524,0.552-2.87,0.793-4.062,0.811  c-2.508,0.052-4.337-0.837-5.576-1.743c-0.613-0.457-1.07-0.915-1.369-1.253c-0.302-0.336-0.427-0.543-0.427-0.543l-8.624-12.345  c9.012-13.38,12.996-45.958,13.021-46.02l-1.454-0.189c-0.004,0.017-1.036,8.313-3.199,18.214  c-2.145,9.885-5.464,21.383-9.854,27.581l-0.298,0.414l9.194,13.173c0.039,0.061,2.818,4.266,8.611,4.179  c1.364-0.025,2.878-0.294,4.545-0.907c4.705-1.742,11.485-3.823,16.22-3.901c1.727-0.034,3.16,0.208,4.07,0.726  c0.911,0.544,1.377,1.208,1.424,2.512c0,0.069,0,0.13,0,0.199c0.013,3.185-9.09,11.412-14.735,18.757  c-5.624,7.484-11.317,14.547-11.538,18.699c-0.121,4.273-0.401,6.077-0.363,8.209c0.022,1.372,0.182,2.849,0.618,5.085  c0.5,2.02,2.857,3.582,6.491,5.395c10.934,5.248,34.254,10.8,56.025,10.402l3.107-0.052c14.511-0.268,29.617-3.212,41.254-6.819  c5.819-1.796,10.767-3.773,14.347-5.655c3.562-1.941,5.862-3.59,6.286-5.636c0.346-2.263,0.461-3.722,0.427-5.093  c-0.034-2.143-0.393-3.929-0.659-8.193c-0.385-4.151-6.326-10.988-12.228-18.266c-5.91-7.122-15.366-15.012-15.466-18.197  c-0.011-0.096-0.011-0.146-0.013-0.208c-0.006-1.285,0.444-1.977,1.324-2.546c0.893-0.544,2.313-0.854,4.044-0.881  c4.736-0.094,11.585,1.735,16.359,3.298c1.68,0.553,3.206,0.769,4.566,0.742c5.792-0.12,8.426-4.429,8.468-4.515l8.692-13.484  L208.093,169.096z"/>
<path fill="#8598A8" d="M118.152,125.485l-34.771-0.199c0.052,0.147,0.086,0.242,0.086,0.242l-0.116,1.433l0.116-1.433  c0,0-0.035-0.095-0.086-0.242l-22.225-0.138c0,0-2.827,28.816-12.922,47.332l8.891,12.268c0,0,3.664-12.017,17.42-10.981  c13.752,1.036,13.571,7.183,13.571,7.183s13.164,1.053,22.22-9.772c9.06-10.833,13.579-34.813,13.579-34.813  S126,129.526,118.152,125.485z"/>
<path fill="#4A5D75" d="M118.494,124.83l-0.341,0.656l0.004-0.742l0,0l-35.039-0.19c0.225,0.604,0.35,0.976,0.35,0.976l-0.043,0.484  l34.551,0.189c4.614,2.487,5.392,5.792,5.456,7.942c0.026,1.217-0.232,1.993-0.216,2.003c-0.025,0.086-1.139,6.034-3.396,13.336  c-2.24,7.312-5.637,15.963-10.044,21.211c-7.083,8.477-16.79,9.486-20.299,9.548c-0.28,0-0.513,0-0.703,0  c-0.406-1.821-2.754-6.415-14.174-7.201c-0.729-0.051-1.433-0.077-2.106-0.06c-9.975,0.208-14.213,7.277-15.56,10.256l-7.834-10.808  c9.12-17.084,12.228-42.161,12.716-46.529l21.611,0.112l0.043-0.484c0,0-0.125-0.371-0.35-0.976l-22.625-0.129l-0.061,0.665  c-0.004,0.017-0.703,7.156-2.671,16.643c-1.96,9.471-5.185,21.254-10.169,30.404l-0.22,0.397l10.027,13.846l0.427-1.406  c0-0.01,0.181-0.613,0.661-1.598c1.458-2.936,5.339-8.762,14.031-8.935c0.63-0.009,1.287,0.009,1.969,0.061  c12.996,1.07,12.819,6.293,12.896,6.432c0,0.033,0,0.06,0.005,0.077l0.047,0.622l0.622,0.051c0.021,0,0.549,0.043,1.451,0.026  c3.699-0.069,13.885-1.114,21.391-10.065c9.258-11.119,13.704-35.108,13.734-35.151c-0.005,0.026,0.289-0.941,0.267-2.374  C124.877,131.58,123.733,127.522,118.494,124.83z"/>
<path fill="#8598A8" d="M135.909,125.14l56.759-2.417c0,0,6.043,33.001,14.853,46.813l-8.431,12.586c0,0-4.103-11.869-17.816-10.324  c-13.713,1.545-13.294,7.674-13.294,7.674s-13.117,1.537-22.565-8.96c-9.456-10.471-14.861-34.271-14.861-34.271  S128.222,129.492,135.909,125.14"/>
<path fill="#4A5D75" d="M198.391,182.365c-0.005,0.008-0.206-0.596-0.716-1.562l0,0c-0.516-0.95-1.318-2.228-2.492-3.487l0,0  c-2.333-2.539-6.052-5.024-11.865-4.921l0,0c-0.638,0.009-1.286,0.052-1.964,0.129l0,0c-12.788,1.536-12.586,6.639-12.649,6.89l0,0  l0.095,0.707l-0.742,0.078c-0.022,0.009-0.544,0.061-1.442,0.077l0,0c-3.704,0.069-13.924-0.587-21.749-9.262l0,0  c-9.66-10.765-14.995-34.573-15.003-34.538l0,0c-0.021-0.053-0.346-1.002-0.376-2.452l0,0c-0.073-2.521,0.915-6.63,6.061-9.505l0,0  l0.357,0.622l-0.033-0.717l57.399-2.456l0.112,0.626c0.006,0.017,1.507,8.226,4.113,18.179l0,0  c2.6,9.937,6.321,21.615,10.636,28.366l0,0l0.259,0.407l-9.516,14.208L198.391,182.365L198.391,182.365z M199.22,180.613  l7.419-11.093c-8.083-13.122-13.7-41.471-14.576-46.029l0,0l-55.951,2.382c-4.522,2.65-5.175,5.981-5.162,8.132l0,0  c0.026,1.226,0.293,1.977,0.315,2.072l0,0c0.009,0.009,1.337,5.904,3.863,13.13l0,0c2.512,7.216,6.224,15.729,10.829,20.821l0,0  c7.377,8.209,17.118,8.848,20.633,8.787l0,0c0.271,0,0.508-0.017,0.703-0.026l0,0c0.336-1.838,2.508-6.509,13.896-7.717l0,0  c0.722-0.086,1.42-0.129,2.103-0.139l0,0C193.271,170.771,197.769,177.677,199.22,180.613L199.22,180.613z"/>
<path fill="#5A6D82" d="M72.703,182.209c-0.937,3.046-3.215,4.955-5.098,4.272c-1.873-0.683-2.641-3.695-1.705-6.741  c0.941-3.048,3.221-4.965,5.098-4.273C72.879,176.141,73.635,179.162,72.703,182.209z"/>
<path fill="#231F20" d="M134.553,180.836c-1.139-10.264-7.086-27.909-7.086-27.909s-5.137,17.86-5.896,28.151  c-0.721,9.711,3.047,3.608,5.663-0.372c0.315-0.465,0.573-0.846,0.803-1.147c0.237,0.293,0.514,0.664,0.841,1.114  C131.636,184.557,135.628,190.513,134.553,180.836z"/>
<path fill="#5A6D82" d="M183.425,180.163c1.049,3.005,3.402,4.834,5.249,4.084c1.856-0.76,2.505-3.799,1.459-6.804  c-1.052-3.003-3.399-4.833-5.257-4.082C183.031,174.112,182.376,177.151,183.425,180.163z"/>
<path fill="#B0C2CC" d="M57.41,111.95c0,0-3.587,6.134-0.004,12.915l25.837,0.017c-0.613-1.71-2.53-6.678-5.935-12.923L57.41,111.95  z"/>
<path fill="#B0C2CC" d="M132.96,111.98l-55.652-0.021c3.405,6.245,5.322,11.213,5.935,12.923l49.709,0.017L132.96,111.98z"/>
<path fill="#B0C2CC" d="M132.96,112.713v-1.467l-56.054-0.026c0.28,0.505,0.531,0.98,0.794,1.468L132.96,112.713z"/>
<path fill="#B0C2CC" d="M56.547,118.502c0-1.813,0.376-3.375,0.756-4.477c0.207-0.608,0.41-1.062,0.552-1.346l19.846,0.009  c-0.264-0.488-0.514-0.963-0.794-1.468l-19.916-0.008l-0.216,0.367c-0.035,0.06-1.687,2.883-1.692,6.923  c-0.004,2.011,0.415,4.324,1.67,6.698l0.208,0.397l26.497,0.017l0.009-0.086c0,0-0.164-0.501-0.505-1.381l-25.107-0.009  C56.871,122.127,56.547,120.202,56.547,118.502z"/>
<path fill="#B0C2CC" d="M83.458,125.615l49.494,0.018v-1.468l-49.99-0.017c0.341,0.88,0.505,1.381,0.505,1.381L83.458,125.615z"/>
<path fill="#B0C2CC" d="M120.854,111.975l75.555,0.031c0,0,3.574,6.138-0.003,12.918l-75.557-0.035"/>
<path fill="#B0C2CC" d="M120.854,125.624v-1.459l75.102,0.026c0.971-2.007,1.303-3.928,1.303-5.633l0,0  c0-1.813-0.371-3.372-0.753-4.477l0,0c-0.204-0.604-0.408-1.057-0.544-1.342l0,0l-75.104-0.035v-1.463l75.966,0.03l0.215,0.363  c0.031,0.064,1.684,2.892,1.689,6.923l0,0c0,2.011-0.429,4.329-1.682,6.711l0,0l-0.201,0.388L120.854,125.624L120.854,125.624z"/>
<linearGradient id="SVGID_1_" gradientUnits="userSpaceOnUse" x1="125.9761" y1="-9.3823" x2="127.0766" y2="133.6914">
	<stop offset="0" style="stop-color:#FFFFFF"/>
	<stop offset="0.2684" style="stop-color:#F9FBFC"/>
	<stop offset="0.6133" style="stop-color:#E9EFF2"/>
	<stop offset="0.9988" style="stop-color:#CFDBE2"/>
	<stop offset="1" style="stop-color:#CFDBE2"/>
</linearGradient>
<polyline fill="url(#SVGID_1_)" points="123.042,123.638 126.936,138.883 127.1,141.326 127.311,140.368 127.553,141.317   127.63,138.875 130.955,123.491 "/>
<polygon fill="#4A5D75" points="127.346,142.552 126.862,142.613 126.836,142.509 126.388,142.483 126.224,140.101 122.357,124.924   122.357,124.924 123.777,124.562 127.268,138.27 130.259,124.44 131.687,124.751 128.377,140.065 128.303,142.448 127.851,142.491   127.834,142.595 127.346,142.552 "/>
<path fill="#4A5D75" d="M53.677,59.158l5.473,4.722c-0.526-4.852-0.785-8.909-0.901-11.274  C55.105,56.448,53.677,59.158,53.677,59.158z"/>
<path fill="#4A5D75" d="M138.762,28.694c-47.046-8.628-71.256,12.599-80.514,23.912c0.116,2.366,0.375,6.423,0.901,11.274  l17.641,15.236l110.296-29.411C187.086,49.706,201.791,40.249,138.762,28.694z"/>
<path fill="#B0C2CC" d="M58.619,117.902c-0.095-1.041-0.902-3.531-2.011-5.943l0,0c-1.096-2.46-2.46-5.003-3.522-6.819l0,0  c-0.518-0.889-1.001-1.658-1.26-2.033l0,0c-2.612-2.081-16.415-14.399-26.963-46.986l0,0c-1.191-3.785-4.64-9.634-8.456-15.094l0,0  c-3.82-5.495-7.998-10.747-10.712-14.049l0,0c-1.804-2.201-2.939-3.509-2.944-3.513l0,0L0,20.308l3.013-2.909  c0.112-0.1,4.441-4.278,10.657-8.542l0,0C19.916,4.644,27.896,0.095,36.408,0l0,0c3.984-0.026,8.214,1.195,11.623,4.169l0,0  c5.611,4.813,8.957,10.161,10.717,15.469l0,0c1.774,5.304,2.046,10.462,2.05,15.128l0,0c-0.004,2.629-0.095,5.119-0.095,7.424l0,0  c-0.004,3.255,0.19,6.116,0.864,8.49l0,0c0.682,2.378,1.717,4.299,3.759,6.211l0,0c3.449,3.129,6.82,4.217,10.821,4.255l0,0  c9.275,0.164,21.676-7.541,32.139-14.39l0,0c5.844-3.734,15.569-7.675,27.567-10.881l0,0c11.965-3.177,26.079-5.508,40.253-5.512  l0,0c13.025,0.008,26.14,1.968,37.639,7.281l0,0c15.24,7.079,24.396,14.093,29.863,20.645l0,0  c5.474,6.518,7.107,12.676,7.087,17.148l0,0c-0.006,4.148-1.3,6.729-1.54,7.174l0,0l-1.577,2.931l-3.245-0.708  c0,0.005-0.053-0.017-0.299-0.06l0,0c-0.253-0.048-0.65-0.108-1.163-0.173l0,0c-1.025-0.129-2.534-0.259-4.339-0.259l0,0  c-5.227-0.004-12.719,1.131-18.87,6.186l0,0c-3.281,2.688-6.38,5.572-8.783,8.093l0,0c-2.383,2.456-4.132,4.795-4.391,5.408l0,0  l-0.293,0.587l-11.318,12.007l-0.146,0.108c-0.047,0.073-0.128,0.203-0.206,0.372l0,0c-0.23,0.466-0.51,1.226-0.743,2.08l0,0  c-0.486,1.722-0.837,3.79-1.015,5.11l0,0c-0.12,0.881-0.167,1.398-0.167,1.398l0,0v0.009l-8.766-0.837  c0.047-0.19,0.474-5.802,2.257-10.441l0,0c0.612-1.433,1.227-2.896,2.795-4.286l0,0l10.071-10.678  c1.239-2.145,3.099-4.312,5.552-6.919l0,0c2.68-2.806,6.007-5.905,9.573-8.827l0,0c8.423-6.863,18.067-8.175,24.45-8.179l0,0  c1.242,0,2.369,0.047,3.353,0.125l0,0c0.006-0.073,0.006-0.147,0.006-0.221l0,0c-0.031-2.451-0.743-6.306-5.05-11.511l0,0  c-4.307-5.179-12.354-11.593-26.805-18.288l0,0c-9.879-4.593-21.78-6.474-33.93-6.465l0,0c-13.203-0.005-26.66,2.201-37.991,5.218  l0,0c-11.312,2.982-20.614,6.884-25.068,9.776l0,0c-10.558,6.66-23.377,15.616-36.899,15.78l0,0  c-5.832,0.04-11.831-1.959-16.791-6.586l0,0c-3.297-3.017-5.274-6.664-6.28-10.315l0,0c-1.01-3.665-1.169-7.312-1.173-10.855l0,0  c0-2.516,0.086-4.989,0.082-7.424l0,0c0.004-4.321-0.276-8.434-1.593-12.331l0,0c-1.321-3.898-3.596-7.683-8.106-11.589l0,0  c-1.718-1.455-3.5-2.016-5.878-2.046l0,0c-4.398-0.06-10.476,2.59-15.608,5.896l0,0c-3.431,2.18-6.474,4.558-8.598,6.332l0,0  c1.899,2.297,4.562,5.603,7.385,9.362l0,0c5.352,7.208,11.239,15.746,13.656,23.014l0,0c10.014,30.848,22.596,41.613,24.063,42.8  l0,0c0.186,0.143,0.302,0.259,0.44,0.336l0,0c0.284,0.255,0.427,0.41,0.556,0.557l0,0c0.242,0.281,0.401,0.492,0.574,0.742l0,0  c0.35,0.466,0.691,1.015,1.101,1.675l0,0c0.811,1.312,1.796,3.034,2.792,4.968l0,0c1.99,3.933,4.058,8.287,4.597,12.417l0,0  c0.932,8.171,0.932,8.171,0.932,8.171l0,0l-8.753,1.001C59.547,126.072,59.547,126.072,58.619,117.902L58.619,117.902z"/>
<linearGradient id="SVGID_2_" gradientUnits="userSpaceOnUse" x1="152.3286" y1="70.3633" x2="152.3286" y2="124.9599">
	<stop offset="0" style="stop-color:#FFFFFF"/>
	<stop offset="0.2684" style="stop-color:#F9FBFC"/>
	<stop offset="0.6133" style="stop-color:#E9EFF2"/>
	<stop offset="0.9988" style="stop-color:#CFDBE2"/>
	<stop offset="1" style="stop-color:#CFDBE2"/>
</linearGradient>
<path fill="url(#SVGID_2_)" d="M211.887,41.643c-33.93-15.732-86.19-0.846-101.219,8.818c-15.038,9.668-34.365,22.553-48.324,9.668  c-1.809-1.67-3.077-3.487-3.979-5.425c0.617,9.893,2.905,34.219,10.795,44.612c10.03,13.212,14.308,26.212,14.308,26.212  l104.746-0.242c0,0,0.932-9.932,3.737-11.977l10.594-11.235c1.479-2.982,7.474-9.345,14.327-14.947  c12.354-10.109,28.407-6.595,28.407-6.595S255.365,61.799,211.887,41.643z"/>
<linearGradient id="SVGID_3_" gradientUnits="userSpaceOnUse" x1="17.0146" y1="3.605" x2="77.1985" y2="101.9544">
	<stop offset="0" style="stop-color:#FFFFFF"/>
	<stop offset="0.1755" style="stop-color:#F9FBFB"/>
	<stop offset="0.4012" style="stop-color:#E9EFF1"/>
	<stop offset="0.6543" style="stop-color:#CFDBE0"/>
	<stop offset="0.9256" style="stop-color:#AAC0C8"/>
	<stop offset="1" style="stop-color:#9FB7C1"/>
</linearGradient>
<path fill="url(#SVGID_3_)" d="M58.364,54.704c-0.009-0.021-0.018-0.039-0.026-0.056C52.369,41.638,63.41,23.229,45.161,7.51  C31.69-4.101,6.069,20.575,6.069,20.575S25.047,42.402,29.053,54.76c11.17,34.461,25.776,45.1,25.776,45.1  c0.526,0.073,7.506,11.81,8.167,17.541c0.928,8.179,0.928,8.179,0.928,8.179l19.544-0.052c0,0-4.278-13-14.308-26.212  C61.269,88.922,58.981,64.597,58.364,54.704z"/>
<path fill="#B0C2CC" d="M39.416,23.722c5.115-3.077,11.05-5.71,16.92-5.753l0,0c0.052,0,0.156,0,0.298,0.004l0,0l-0.177,4.398  c0,0-0.039,0-0.121,0l0,0c-4.597-0.069-10.083,2.37-14.921,5.301"/>
<path fill="#B0C2CC" d="M61.558,31.012l0.19-4.58c-0.151-0.004-0.25-0.004-0.302-0.004c-7.445,0.052-14.96,4.217-20.83,8.202  c-5.84,4.009-9.962,7.98-10.023,8.037l1.692,4.419l1.493-1.118c0,0,0.954-0.915,2.629-2.334  c4.963-4.321,16.544-12.755,25.038-12.621C61.532,31.012,61.558,31.012,61.558,31.012z"/>
<path fill="#B0C2CC" d="M63.41,42.065l0.194-5.127c-0.155-0.008-0.255-0.004-0.293-0.004c-7.018,0.056-13.976,3.933-19.41,7.623  c-5.399,3.712-9.206,7.372-9.271,7.432l1.467,5.374c0.004,0,2.952-2.512,4.489-3.812c4.523-3.953,15.176-11.641,22.725-11.485  C63.392,42.065,63.41,42.065,63.41,42.065z"/>
<path fill="#B0C2CC" d="M58.407,48.359c-3.803,1.484-7.376,3.643-10.466,5.736c-5.404,3.712-9.207,7.373-9.272,7.437l1.986,4.636  c0.004,0,2.43-1.774,3.967-3.078c2.878-2.512,8.239-6.522,13.704-9.077c-0.134-2.271-0.173-3.621-0.173-3.621L58.407,48.359z"/>
<path fill="#B0C2CC" d="M60.043,47.768c-0.548,0.181-1.096,0.384-1.636,0.591l-0.255,2.033c0,0,0.039,1.351,0.173,3.621  c1.019-0.479,2.045-0.924,3.056-1.282L60.043,47.768z"/>
<path fill="#B0C2CC" d="M57.19,66.189c0.604-0.368,1.252-0.734,1.942-1.123l-0.432-4.951c-1.48,0.748-2.335,1.188-3.203,1.705  L57.19,66.189z"/>
<path fill="#B0C2CC" d="M60.004,70.652c0.22,1.468,0.458,2.961,0.717,4.468l-0.527-4.593C60.129,70.57,60.073,70.609,60.004,70.652z  "/>
<path fill="#ABBCC4" d="M57.868,72.055c-5.849,4.019-10.73,8.736-10.787,8.792l2.456,3.668l1.489-1.118  c0.004,0,0.95-0.915,2.624-2.334c1.718-1.498,4.23-3.488,7.135-5.438l-0.064-0.505c-0.259-1.507-0.583-2.896-0.794-4.36  C59.197,71.222,58.554,71.589,57.868,72.055z"/>
<path fill="#A2B4BC" d="M61.148,81.982c-5.404,3.716-8.498,6.695-8.563,6.755l3.306,4.036c0.004,0,0.41-0.492,1.942-1.792  c1.303-1.139,3.233-2.779,5.334-4.264l-1.196-5.284C61.692,81.619,61.424,81.801,61.148,81.982z"/>
<path fill="#B0C2CC" d="M59.771,96.212l2.538,4.265c0.004,0,1.882-1.402,3.418-2.706c0.311-0.281,1.161-1.2,1.541-1.511  l-2.508-4.325C61.727,94.322,59.814,96.166,59.771,96.212z"/>
<polygon fill="#8E9FA5" points="67.2,111.79 68.179,116.443 79.375,115.614 76.596,111.086 "/>
<polygon fill="#8E9FA5" points="69.401,120.85 69.401,125.002 84.572,125.002 81.879,120.599 "/>
<path fill="#C6D4DB" d="M219.418,74.489c-4.804-4.398-11.684-9.042-21.516-13.743c-9.922-4.739-21.357-6.517-32.794-6.522  c-24.914,0.048-49.71,8.343-59.495,14.766c-9.34,6.254-20.502,14.083-29.618,13.506c-5.797-0.363-11.96-4.148-15.34-7.338  l1.472,6.06c0,0,6.051,5.132,13.791,5.685c0.026,0.004,0.051,0,0.078,0c11.196-0.082,22.539-8.05,31.932-14.209  c8.571-5.744,33.282-14.118,57.181-14.066c11.002,0,21.857,1.739,30.994,6.111c9.548,4.562,14.702,7.674,19.103,11.706l4.219-1.955  H219.418z"/>
<path fill="#C6D4DB" d="M188.459,70.717c-8.996-4.29-19.354-5.9-29.7-5.904c-22.543,0.052-44.94,7.531-53.832,13.367  c-8.438,5.65-18.482,12.09-26.635,12.163c-5.339,0.048-12.051-1.333-15.063-4.173l1.648,4.955c0,0,5.141,2.936,13.341,3.622  c0.025,0,0.048,0,0.073,0c10.212-0.083,20.463-7.303,28.944-12.863c7.688-5.154,29.995-12.716,51.523-12.664  c9.919-0.004,19.689,1.567,27.903,5.5c8.606,4.104,13.904,7.639,17.866,11.27l3.413-2.828  C203.58,79.172,197.351,74.964,188.459,70.717z"/>
<path fill="#C6D4DB" d="M179.697,81.378c-8.062-3.587-17.338-4.934-26.595-4.934c-20.17,0.043-40.164,6.276-48.162,11.166  c-7.532,4.705-16.484,10.169-23.657,10.091C78.201,97.685,69,97.426,66.349,95.095l3.302,4.795c0,0,4.95,2.582,11.545,1.899  c0.03,0,0.056,0,0.086,0c9.215-0.077,18.378-6.121,25.949-10.747c6.807-4.26,26.701-10.562,45.87-10.519  c8.83,0,17.522,1.308,24.813,4.562c7.665,3.418,13.747,8.088,17.252,11.088l2.921-3.405V92.09  C194.173,88.75,187.649,84.93,179.697,81.378z"/>
<path fill="#C6D4DB" d="M75.029,107.996c-0.859-1.416-1.778-2.866-2.78-4.351C72.25,103.645,74.075,107.59,75.029,107.996z"/>
<path fill="#C6D4DB" d="M105.528,96.446c-6.898,4.26-15.094,9.198-21.664,9.128c-2.827-0.017-9.949-0.427-12.378-2.533l0.764,1.057  c1.001,1.364,1.864,2.707,2.724,4.01c1.731,0.677,4.92,1.554,8.814,1.161c0.021,0,0.051,0,0.077,0  c8.442-0.078,16.825-5.538,23.761-9.716c6.228-3.85,24.447-9.551,42.001-9.513v-3.69C131.154,86.393,112.853,92.026,105.528,96.446z  "/>
<path fill="#C6D4DB" d="M79.151,115.48c-0.743-1.493-1.605-3.116-2.555-4.808C76.596,110.672,78.478,115.178,79.151,115.48z"/>
<path fill="#BFCCD1" d="M170.063,99.666c-6.759-3.012-14.537-4.135-22.293-4.14c-16.91,0.035-33.67,5.262-40.369,9.367  c-6.311,3.949-13.821,8.529-19.829,8.464c-2.594-0.013-8.866-0.608-11.088-2.568l0.112,0.298c0.95,1.58,2.033,3.133,2.78,4.528  c1.502,0.635,4.304,1.562,8.124,1.169c0.025,0,0.047,0,0.073,0c7.721-0.065,15.361-4.903,21.71-8.779  c5.702-3.569,22.647-8.477,38.712-8.442c7.403,0,14.623,1.122,20.734,3.854c6.428,2.866,11.975,8.024,14.919,10.541l1.595-4.472  C181.963,106.679,176.728,102.644,170.063,99.666z"/>
<path fill="#ABBCC4" d="M166.969,109.321c-6.185-2.473-13.299-3.396-20.398-3.396c-15.479,0.026-30.814,4.316-36.947,7.683  c-5.775,3.242-12.646,6.992-18.15,6.94c-2.365-0.012-8.537-0.186-10.57-1.787l2.201,3.798c0,0,3.013,1.692,8.076,1.217  c0.021,0,0.95,0,0.976,0c7.07-0.043,13.765-3.906,19.579-7.087c5.21-2.931,20.519-6.638,35.219-6.608  c6.778,0,13.252,0.695,18.836,2.939c5.89,2.352,11.392,6.764,13.951,9.297l1.959-3.94  C178.695,116.076,173.073,111.76,166.969,109.321z"/>
<path fill="#A1B1B7" d="M103.84,125.571c2.62-0.984,5.24-2.192,7.653-3.306c5.723-2.607,20.032-5.918,34.473-5.943  c6.621,0.004,13.261,0.716,19.035,2.624c5.136,1.709,9.91,4.597,12.85,6.444l-7.528,0.112c-2.57-1.649-4.506-2.409-7.584-3.432  c-5.217-1.735-10.561-2.206-16.884-2.206c-13.717-0.022-25.587,2.624-30.455,4.895c-0.976,0.44-1.045,0.38-2.081,0.854  L103.84,125.571z"/>
<path fill="#C6D4DB" d="M154.292,89.289c0,0.738-0.599,1.343-1.338,1.343c-0.746,0-1.347-0.604-1.347-1.343  c0-0.742,0.601-1.347,1.347-1.347C153.693,87.942,154.292,88.547,154.292,89.289z"/>
<path fill="#4A5D75" d="M48.748,116.788v1.614l31.807,0.013c-0.237-0.518-0.488-1.053-0.756-1.619L48.748,116.788z"/>
<path fill="#4A5D75" d="M215.371,116.861l-135.572-0.064c0.268,0.565,0.519,1.101,0.756,1.619l134.816,0.06V116.861z"/>
<rect x="105.18" y="114.231" fill="#4A5D75" width="12.845" height="6.461"/>
<rect x="135.788" y="114.243" fill="#4A5D75" width="12.843" height="6.462"/>
<path fill="#4A5D75" d="M66.617,213.028c-0.475-0.778-0.647-1.649-0.647-2.401l0,0c0.086-2.382,1.2-4.064,2.616-5.999l0,0  c1.455-1.883,3.397-3.824,5.62-5.629l0,0c1.964-1.675,3.885-3.081,5.659-4.126l0,0c1.821-1.019,3.289-1.786,5.279-1.848l0,0  c0.984-0.068,2.667,0.433,3.5,1.831l0,0c0.535,0.846,0.665,1.7,0.665,2.408l0,0c-0.069,2.149-0.95,3.858-2.18,5.896l0,0  c-1.252,1.994-2.961,4.118-5.05,6.146l0,0l-2.045-2.106l1.989,2.149c-3.901,3.479-7.579,5.68-11.226,5.818l0,0  c-0.039,0-0.073,0-0.112,0l0,0C69.392,215.167,67.665,214.65,66.617,213.028L66.617,213.028z M77.968,203.504  c-1.856,1.512-3.436,3.082-4.523,4.438l0,0c-0.19,0.232-0.363,0.457-0.522,0.673l0,0c1.424-0.673,3.324-1.856,5.067-3.522l0,0  l-0.005-0.008c1.559-1.485,2.875-3.108,3.82-4.507l0,0C80.649,201.347,79.341,202.332,77.968,203.504L77.968,203.504z"/>
<path fill="#4A5D75" d="M71.43,216.436h-0.018c-0.065,0-0.104-0.008-0.112-0.008l0,0l0,0c-1.244-0.009-2.625-0.319-3.786-1.363l0,0  l1.407-1.537c-0.005-0.009-0.009-0.009-0.013-0.009l0,0l-1.433,1.51c-1.14-1.052-1.609-2.598-1.588-3.823l0,0  c0.013-1.382,0.401-2.581,0.915-3.737l0,0c1.2-2.642,3.268-5.404,5.909-8.098l0,0c1.912-1.994,3.803-3.765,5.676-5.128l0,0  c1.874-1.329,3.682-2.399,5.935-2.599l0,0l0,0c0.043,0,0.134-0.009,0.28-0.009l0,0c1.053,0,2.275,0.32,3.268,1.312l0,0  c1.114,1.131,1.433,2.607,1.416,3.746l0,0c-0.008,1.363-0.333,2.547-0.734,3.79l0,0c-0.569,1.623-1.428,3.366-2.546,5.146l0,0  l0.294,0.12l-2.538,3.029l-1.338,1.668l-0.129-0.062c-3.237,3.384-6.789,5.784-10.743,6.043l0,0l-0.052,0.008H71.43L71.43,216.436z   M76.725,205.68c0.367-0.371,0.726-0.768,1.075-1.182l0,0l0.021-0.026c0,0,0-0.009,0.005-0.009l0,0  C77.438,204.87,77.075,205.275,76.725,205.68L76.725,205.68z M78.093,204.127c0.021-0.026,0.039-0.044,0.056-0.069l0,0l-0.958-0.872  c-0.013,0.009-0.022,0.017-0.035,0.025l0,0L78.093,204.127L78.093,204.127z"/>
<path fill="#4A5D75" d="M78.939,221.806c-1.917-1.079-2.689-3.271-2.633-4.964l0,0c0.078-3.409,1.856-6.829,4.537-10.315l0,0  c1.705-2.271,3.518-4.195,5.304-5.654l0,0c1.834-1.425,3.449-2.563,5.853-2.667l0,0c0.678,0,1.515,0.146,2.197,0.552l0,0  c2.18,1.304,2.529,3.427,2.542,5.075l0,0c-0.039,3.048-1.239,6.519-3.367,10.145l0,0l-2.521-1.503l2.486,1.554  c-1.528,2.435-3.358,4.454-5.287,5.939l0,0c-1.947,1.45-3.945,2.495-6.306,2.538l0,0c-0.008,0-0.013,0-0.021,0l0,0  C80.83,222.505,79.868,222.316,78.939,221.806L78.939,221.806z M89.855,205.421c-1.312,1.062-2.87,2.703-4.359,4.688l0,0  c-2.098,2.564-3.207,5.284-3.314,6.458l0,0c0.513-0.155,1.39-0.544,2.301-1.261l0,0c1.299-0.993,2.714-2.538,3.88-4.395l0,0l0,0  c1.407-2.339,2.206-4.695,2.438-6.189l0,0C90.507,204.913,90.192,205.146,89.855,205.421L89.855,205.421z"/>
<path fill="#4A5D75" d="M81.542,223.308c-0.064,0-0.117-0.009-0.146-0.009l0,0c-1.053-0.008-2.137-0.232-3.142-0.786l0,0  l0.949-1.709c-0.008-0.008-0.021-0.008-0.03-0.017l0,0l-0.993,1.683c-2.029-1.148-2.943-3.495-2.875-5.343l0,0  c0-1.329,0.302-2.599,0.747-3.833l0,0c0.833-2.322,2.245-4.73,4.092-7.087l0,0c1.761-2.253,3.583-4.266,5.486-5.828l0,0  c1.916-1.544,3.91-2.761,6.336-2.96l0,0c0.164-0.017,0.263-0.017,0.28-0.017l0,0c0.833,0.008,1.727,0.163,2.672,0.716l0,0  c2.141,1.312,2.745,3.713,2.706,5.508l0,0c-0.009,1.277-0.225,2.521-0.54,3.842l0,0c-0.561,2.132-1.519,4.419-2.926,6.784l0,0  c-3.065,4.723-7.126,8.529-12.167,9.021l0,0l-0.199,0.035H81.542L81.542,223.308z M86.238,210.368  c-1.343,1.719-2.288,3.444-2.75,4.723l0,0c0.169-0.112,0.337-0.233,0.514-0.371l0,0c1.157-0.889,2.478-2.297,3.522-3.989l0,0  c0.846-1.381,1.476-2.762,1.882-3.952l0,0c-1.006,0.939-2.115,2.14-3.112,3.513l0,0l-1.205-0.872  c-0.009,0.018-0.022,0.026-0.031,0.034l0,0L86.238,210.368L86.238,210.368z"/>
<path fill="#4A5D75" d="M93.041,227.78c-1.446-0.457-2.659-1.545-3.315-2.779l0,0c-0.669-1.253-0.902-2.573-0.902-3.911l0,0  c0.018-2.779,0.985-5.74,2.655-8.675l0,0c1.424-2.581,3.085-4.834,4.847-6.535l0,0c1.8-1.658,3.574-3.013,6.167-3.108l0,0  c0.476,0,1.02,0.062,1.511,0.225l0,0c1.679,0.519,2.767,1.865,3.302,3.135l0,0c0.553,1.302,0.747,2.685,0.751,4.151l0,0  c0,2.331-0.527,4.955-1.559,7.656l0,0l-2.741-1.062l2.719,1.105c-1.131,2.796-2.767,5.197-4.679,6.983l0,0  c-1.916,1.771-4.117,3.081-6.754,3.117l0,0c-0.009,0-0.021,0-0.03,0l0,0C94.357,228.083,93.705,227.987,93.041,227.78L93.041,227.78  z M95.043,222.211c0.341,0.052,1.532-0.362,2.74-1.527l0,0c1.213-1.14,2.435-2.875,3.254-4.903l0,0l0,0  c0.794-2.089,1.153-4.083,1.149-5.499l0,0c0.004-0.613-0.069-1.105-0.147-1.441l0,0c-0.017,0.008-0.03,0.018-0.047,0.025l0,0  c-0.411,0.233-0.98,0.648-1.588,1.243l0,0c-1.23,1.174-2.616,2.996-3.802,5.188l0,0c-1.33,2.27-1.925,4.498-1.913,5.792l0,0  c0,0.621,0.133,0.992,0.19,1.088l0,0c0,0,0.004,0.018-0.022,0.018l0,0C94.901,222.204,94.961,222.211,95.043,222.211L95.043,222.211  z"/>
<path fill="#4A5D75" d="M94.94,228.875c-0.064,0-0.104,0-0.121,0l0,0l0,0c-0.759-0.008-1.532-0.094-2.296-0.336l0,0l0.54-1.709  l-0.54,1.709l-0.077-0.026l-0.035-0.009c-1.528-0.544-2.845-1.64-3.591-2.97l0,0c-0.759-1.329-1.005-2.779-1.005-4.16l0,0  c0-1.174,0.177-2.349,0.475-3.53l0,0c0.479-1.856,1.281-3.781,2.374-5.663l0,0c1.468-2.581,3.125-4.903,5.011-6.742l0,0  c1.878-1.796,4.036-3.255,6.803-3.471l0,0c0.039,0,0.112-0.008,0.229-0.008l0,0c0.565,0,1.166,0.077,1.778,0.293l0,0l0.082,0.026  l0.018,0.009c1.679,0.595,2.952,1.976,3.556,3.418l0,0c0.635,1.433,0.812,2.918,0.816,4.445l0,0c0,1.011-0.086,2.029-0.237,3.125  l0,0c-0.069,0.432-0.156,0.872-0.259,1.312l0,0l0.349,0.052l-1.42,3.487c-0.004,0.009-0.013,0.018-0.017,0.025l0,0l-0.79,2.09  l-0.182-0.026c-2.417,4.567-6.189,8.279-11.308,8.658l0,0h-0.069H94.94L94.94,228.875z M97.46,215.453  c-0.76,1.354-1.278,2.685-1.558,3.815l0,0c-0.156,0.63-0.22,1.165-0.22,1.579l0,0c0,0.156,0.004,0.285,0.021,0.397l0,0  c0.008,0,0.018-0.009,0.026-0.017l0,0c0.367-0.198,0.889-0.57,1.428-1.088l0,0c1.08-1.027,2.228-2.607,2.953-4.463l0,0  c0.471-1.192,0.79-2.321,0.971-3.385l0,0c0.13-0.682,0.182-1.304,0.182-1.838l0,0c0-0.034,0-0.061,0-0.095l0,0  c-0.112,0.104-0.225,0.216-0.345,0.336l0,0c-1.109,1.088-2.408,2.754-3.418,4.679l0,0l-1.463-0.768  c-0.005,0.017-0.013,0.026-0.018,0.034l0,0L97.46,215.453L97.46,215.453z"/>
<path fill="#4A5D75" d="M109.99,231.579c-2.106-0.277-3.893-1.632-4.847-3.281l0,0c-0.984-1.675-1.359-3.573-1.368-5.568l0,0  c0-1.898,0.363-3.919,1.058-5.912l0,0c0.976-2.927,2.348-5.5,3.988-7.502l0,0c1.657-1.916,3.543-3.582,6.375-3.669l0,0  c0.207,0,0.491,0.008,0.725,0.044l0,0c2.456,0.354,4.001,2.174,4.821,3.961l0,0c0.851,1.857,1.222,4.015,1.23,6.389l0,0  c0,1.183-0.104,2.435-0.307,3.712l0,0l-2.896-0.475l2.892,0.509c-0.548,3.125-1.821,5.914-3.587,8.071l0,0  c-1.761,2.106-4.135,3.765-7.079,3.799l0,0C110.66,231.656,110.34,231.629,109.99,231.579L109.99,231.579z M114.76,211.732  c-0.372,0.241-0.885,0.683-1.408,1.329l0,0c-1.07,1.287-2.193,3.298-2.961,5.646l0,0c-0.518,1.476-0.742,2.866-0.742,4.021l0,0  c-0.008,1.21,0.263,2.106,0.531,2.538l0,0c0.297,0.433,0.358,0.433,0.604,0.493l0,0c0.086,0.017,0.159,0.017,0.211,0.017l0,0  c0.453,0.034,1.506-0.379,2.551-1.658l0,0c1.032-1.242,1.946-3.158,2.322-5.316l0,0l0,0c0.159-0.977,0.232-1.908,0.232-2.763l0,0  c0.06-2.331-0.677-4.083-1.01-4.48l0,0C115.014,211.594,114.898,211.645,114.76,211.732L114.76,211.732z"/>
<path fill="#4A5D75" d="M110.983,232.451c-0.069,0-0.108,0-0.121,0l0,0l0,0c-0.41-0.01-0.781-0.035-1.1-0.079l0,0l0.193-1.614  l-0.193,1.614l-0.091-0.008l-0.065-0.018c-2.292-0.362-4.273-1.743-5.353-3.548l0,0c-1.104-1.795-1.476-3.798-1.48-5.827l0,0  c0-0.803,0.061-1.613,0.182-2.46l0,0c0.189-1.26,0.509-2.556,0.971-3.858l0,0c1.032-2.909,2.383-5.568,4.126-7.709l0,0  c1.73-2.097,4.006-3.858,7.027-4.101l0,0c0.035,0,0.108-0.009,0.229-0.009l0,0c0.242,0,0.543,0.009,1.014,0.096l0,0  c2.598,0.475,4.472,2.451,5.352,4.515l0,0c0.928,2.088,1.226,4.419,1.235,6.88l0,0c0,0.077,0,0.156,0,0.233l0,0l0.311,0.017  l-0.592,3.237l-0.405,2.581l-0.224-0.017c-0.661,2.157-1.662,4.144-3.026,5.818l0,0c-1.852,2.322-4.579,4.064-7.816,4.246l0,0  l-0.078,0.01H110.983L110.983,232.451z M111.341,218.785l-0.013,0.035c-0.298,0.862-0.488,1.691-0.604,2.528l0,0  c-0.061,0.448-0.095,0.847-0.095,1.218l0,0c0,0.837,0.147,1.51,0.315,1.934l0,0c0.091,0.232,0.182,0.379,0.25,0.483l0,0  c0.065-0.035,0.177-0.095,0.315-0.182l0,0c0.333-0.198,0.803-0.613,1.261-1.182l0,0c0.932-1.149,1.813-2.893,2.141-4.912l0,0  c0.103-0.579,0.168-1.141,0.207-1.752l0,0c0.03-0.347,0.043-0.7,0.047-1.028l0,0c0.004-1.286-0.229-2.374-0.483-3.091l0,0  c-0.212,0.216-0.449,0.475-0.682,0.769l0,0c-0.967,1.191-2.003,3.021-2.642,5.11l0,0L111.341,218.785L111.341,218.785z"/>
<path fill="#4A5D75" d="M121.985,228.902c-1.36-2.133-2.007-4.747-2.016-7.588l0,0c0-0.708,0.043-1.416,0.129-2.115l0,0  c0.349-3.185,1.261-6.051,2.628-8.347l0,0c1.325-2.15,3.172-4.136,6.09-4.386l0,0l0,0c0.013,0,0.112-0.017,0.323-0.017l0,0  c3.043,0.077,4.994,2.149,6.246,4.35l0,0c1.281,2.296,2.051,5.146,2.244,8.322l0,0l-2.927,0.173l-2.934,0.173  c-0.122-2.098-0.614-3.972-1.231-5.258l0,0c-0.526-1.157-1.183-1.752-1.39-1.874l0,0c-0.052,0.026-0.151,0.079-0.272,0.182l0,0  c-0.283,0.216-0.716,0.69-1.117,1.364l0,0c-0.828,1.373-1.575,3.53-1.83,5.991l0,0c-0.06,0.483-0.086,0.975-0.086,1.441l0,0  c-0.008,1.908,0.475,3.497,1.08,4.403l0,0c0.643,0.932,1.069,1.078,1.554,1.104l0,0c0.004,0,0.013,0,0.021,0l0,0  c0.521-0.01,1.213-0.312,1.993-1.493l0,0c0.739-1.141,1.313-3.013,1.306-5.103l0,0c0-0.251-0.011-0.5-0.026-0.759l0,0l2.934-0.173  l2.927-0.173c0.021,0.371,0.031,0.743,0.031,1.104l0,0c-0.01,3.09-0.761,5.956-2.223,8.271l0,0c-1.42,2.27-3.821,4.144-6.881,4.204  l0,0c-0.039,0-0.064,0-0.082,0l0,0c-0.018,0-0.031,0-0.043,0l0,0C125.641,232.701,123.301,231,121.985,228.902L121.985,228.902z"/>
<path fill="#4A5D75" d="M128.486,233.486c-3.181-0.035-5.935-1.787-7.398-4.136l0,0c-1.516-2.365-2.093-5.152-2.103-8.028l0,0  c0-0.137,0-0.302,0.004-0.491l0,0c0.021-0.561,0.065-1.122,0.138-1.683l0,0c0.388-3.298,1.376-6.276,2.823-8.65l0,0  c1.338-2.236,3.535-4.661,7.014-4.834l0,0l0,0c0.039,0,0.078-0.01,0.125-0.01l0,0c3.539,0.036,5.819,2.53,7.057,4.749l0,0  c0.985,1.709,1.697,3.694,2.107,5.879l0,0h0.154l0.186,2.632l0.006,0.01l0.004,0.086l0.004,0.061c0,0.009,0,0.017,0,0.025l0,0  l0.198,3.047h-0.263c-0.186,1.952-0.66,3.816-1.489,5.517l0,0c-0.41,0.846-0.915,1.641-1.536,2.384l0,0l4.545,3.235l-11.446,0.208  h-0.057H128.486L128.486,233.486z M128.533,226.019v-0.01c0.039-0.008,0.134-0.051,0.255-0.137l0,0  c0.237-0.165,0.601-0.51,0.933-1.071l0,0c0.604-1.019,1.1-2.745,1.091-4.653l0,0c0-0.189-0.008-0.389-0.016-0.604l0,0  c-0.013-0.113-0.009-0.164-0.005-0.19l0,0c0,0,0-0.009,0-0.017l0,0c-0.126-2.235-0.747-4.213-1.412-5.36l0,0  c-0.099-0.173-0.194-0.329-0.28-0.458l0,0c-0.146,0.173-0.297,0.397-0.449,0.664l0,0l-1.523-0.88  c-0.004,0.008-0.008,0.017-0.013,0.017l0,0l1.507,0.916c-0.76,1.225-1.485,3.314-1.714,5.637l0,0  c-0.048,0.371-0.069,0.733-0.082,1.104l0,0c0,0.096-0.005,0.182-0.005,0.251l0,0c-0.008,1.786,0.458,3.306,0.941,4.039l0,0  c0.35,0.553,0.63,0.717,0.717,0.752l0,0H128.533L128.533,226.019z M138.612,219.199L138.612,219.199L138.612,219.199  L138.612,219.199z M128.632,213.001v-0.01C128.632,212.992,128.632,212.992,128.632,213.001L128.632,213.001z"/>
<path fill="#4A5D75" d="M146.013,231.017c-2.901-0.018-5.252-1.675-6.876-3.79l0,0c-1.645-2.141-2.728-4.911-3.094-8.002l0,0  c-0.108-0.915-0.156-1.805-0.156-2.677l0,0c0.005-2.607,0.433-4.98,1.333-7l0,0c0.89-1.951,2.384-3.876,4.942-4.377l0,0  c0.316-0.052,0.636-0.086,0.955-0.086l0,0c2.787,0.086,4.674,1.743,6.236,3.65l0,0c1.559,1.96,2.797,4.489,3.63,7.381l0,0l0,0  c0.505,1.728,0.756,3.428,0.756,5.068l0,0c-0.008,2.184-0.439,4.256-1.454,6.042l0,0c-0.993,1.771-2.775,3.298-5.038,3.686l0,0  c-0.405,0.069-0.799,0.104-1.19,0.104l0,0C146.043,231.017,146.027,231.017,146.013,231.017L146.013,231.017z M143.177,211.015  c-0.141,0.139-0.384,0.45-0.609,0.958l0,0c-0.456,0.993-0.818,2.65-0.814,4.575l0,0c0,0.64,0.043,1.312,0.116,1.994l0,0  c0.246,2.115,1.028,3.946,1.921,5.102l0,0c0.916,1.175,1.788,1.52,2.223,1.503l0,0c0.077,0,0.15-0.01,0.208-0.018l0,0  c0.34-0.078,0.578-0.198,0.976-0.829l0,0c0.371-0.621,0.672-1.734,0.668-3.115l0,0c0-1.037-0.159-2.219-0.521-3.437l0,0l2.813-0.829  l-2.826,0.803c-0.55-1.95-1.368-3.659-2.215-4.867l0,0c-0.771-1.131-1.614-1.744-1.912-1.866l0,0  C143.196,210.999,143.187,211.007,143.177,211.015L143.177,211.015z"/>
<path fill="#4A5D75" d="M146.156,231.811h-0.033c-3.277-0.06-6.061-1.805-7.83-4.144l0,0c-1.804-2.349-2.828-5.274-3.216-8.383l0,0  l1.916-0.241c0-0.008,0-0.008,0-0.018l0,0l-1.924,0.199c-0.022-0.189-0.045-0.397-0.065-0.604l0,0l-0.008-0.052v-0.051  c-0.04-0.588-0.058-1.175-0.058-1.754l0,0c0.009-2.685,0.371-5.222,1.355-7.449l0,0c0.945-2.192,2.789-4.265,5.472-4.877l0,0  l0.053-0.018l0.039-0.008c0.346-0.087,0.699-0.122,1.069-0.13l0,0h0.1h0.07c2.969,0.155,5.309,1.89,6.979,3.996l0,0  c1.237,1.562,2.226,3.393,3.026,5.396l0,0l0.114-0.009l0.696,2.314c0.005,0.017,0.008,0.024,0.013,0.043l0,0l1.044,3.357  l-0.354,0.043c0.073,0.674,0.112,1.347,0.112,2.002l0,0c-0.005,2.219-0.414,4.386-1.545,6.295l0,0  c-1.109,1.915-3.104,3.443-5.508,3.944l0,0l-0.052,0.008l-0.068,0.018c-0.429,0.069-0.863,0.112-1.318,0.121l0,0H146.156  L146.156,231.811z M145.911,224.344l-0.006,0.009h0.006c0.004,0,0.013,0,0.017,0l0,0c0.069-0.069,0.195-0.208,0.328-0.44l0,0  c0.319-0.57,0.63-1.623,0.622-2.909l0,0c0-0.518-0.044-1.062-0.147-1.683l0,0c-0.069-0.432-0.169-0.89-0.294-1.339l0,0l-0.051-0.173  l-0.096-0.328c-0.591-1.994-1.515-3.712-2.356-4.765l0,0c-0.155-0.189-0.306-0.362-0.44-0.501l0,0  c-0.009,0.017-0.012,0.026-0.022,0.043l0,0c-0.409,0.89-0.78,2.418-0.776,4.161l0,0c0,0.5,0.031,1.019,0.092,1.588l0,0  c0.017,0.156,0.039,0.346,0.052,0.484l0,0c0.237,2.027,1.01,3.806,1.786,4.781l0,0C145.214,224.033,145.768,224.318,145.911,224.344  L145.911,224.344L145.911,224.344L145.911,224.344z"/>
<path fill="#4A5D75" d="M155.544,223.757c-1.805-1.77-3.285-4.118-4.273-6.907l0,0c-0.815-2.416-1.221-4.781-1.227-6.931l0,0  c0.006-1.623,0.22-3.125,0.795-4.524l0,0c0.558-1.354,1.619-2.771,3.345-3.384l0,0c0.57-0.198,1.153-0.293,1.718-0.293l0,0  c2.542,0.087,4.316,1.416,6.033,3.039l0,0c1.692,1.656,3.247,3.842,4.533,6.387l0,0l0,0c1.43,2.729,2.214,5.491,2.223,8.072l0,0  c0,1.451-0.249,2.884-0.932,4.204l0,0c-0.67,1.304-1.886,2.495-3.428,3.047l0,0c-0.738,0.269-1.497,0.371-2.219,0.371l0,0  C159.519,226.804,157.348,225.509,155.544,223.757L155.544,223.757z M155.919,209.919c-0.004,1.39,0.281,3.186,0.902,5.007l0,0  c0.681,1.942,1.756,3.592,2.836,4.653l0,0c1.078,1.069,2.11,1.424,2.455,1.39l0,0c0.126,0,0.191-0.019,0.216-0.026l0,0  c0.091-0.052,0.083-0.009,0.216-0.232l0,0c0.12-0.234,0.277-0.743,0.277-1.494l0,0c0.008-1.338-0.479-3.349-1.563-5.378l0,0  l2.594-1.372l-2.615,1.328c-1.54-3.228-3.983-5.593-5.002-6.077l0,0C156.075,208.106,155.911,208.909,155.919,209.919  L155.919,209.919z"/>
<path fill="#4A5D75" d="M162.32,227.633c-2.947-0.052-5.528-1.451-7.492-3.385l0,0c-1.985-1.941-3.466-4.453-4.477-7.276l0,0  c-0.372-1.062-0.634-2.115-0.837-3.168l0,0c-0.241-1.382-0.38-2.728-0.385-4.05l0,0c0.005-1.656,0.212-3.271,0.86-4.781l0,0  c0.633-1.502,1.886-2.97,3.624-3.643l0,0l0.079-0.043l0.034-0.01c0.622-0.232,1.273-0.336,1.946-0.336l0,0h0.057h0.042  c2.715,0.111,4.921,1.536,6.756,3.314l0,0c1.848,1.805,3.422,4.108,4.781,6.665l0,0l3.781,7.086l-1.559-0.63  c0.108,0.709,0.165,1.407,0.165,2.106l0,0c0.112,2.926-1.351,6.396-4.704,7.674l0,0l-0.034,0.009l-0.073,0.034  c-0.739,0.251-1.507,0.397-2.298,0.424l0,0l-0.098,0.009H162.32L162.32,227.633z M156.843,210.083c0,0.743,0.087,1.605,0.301,2.581  l0,0c0.145,0.7,0.343,1.416,0.604,2.176l0,0c0.881,2.832,3.083,4.869,3.925,5.274l0,0c0.076-0.232,0.154-0.639,0.15-1.147l0,0  c0-0.587-0.09-1.304-0.341-2.167l0,0c-0.167-0.622-0.405-1.296-0.711-1.994l0,0l-0.438-0.889c0-0.009,0-0.009-0.005-0.009l0,0  l-0.617-1.209c-0.884-1.519-1.998-2.771-2.821-3.548l0,0C156.86,209.436,156.843,209.747,156.843,210.083L156.843,210.083z"/>
<path fill="#4A5D75" d="M175.62,220.727c-2.311-0.043-4.287-1.062-6.135-2.494l0,0c-1.833-1.45-3.535-3.41-4.945-5.818l0,0  c-1.883-3.401-2.918-6.725-2.944-9.634l0,0c0.03-1.805,0.362-4.015,2.547-5.37l0,0c0.768-0.449,1.632-0.647,2.396-0.639l0,0  c2.322,0.095,3.962,1.183,5.714,2.556l0,0c1.714,1.38,3.418,3.228,4.995,5.403l0,0l0,0c2.468,3.332,4.021,6.655,4.074,9.927l0,0  c0.041,1.823-0.709,4.066-2.738,5.293l0,0c-0.931,0.535-1.979,0.776-2.947,0.776l0,0  C175.632,220.727,175.623,220.727,175.62,220.727L175.62,220.727z M169.636,209.505c1.028,1.761,2.304,3.193,3.479,4.117l0,0  c0.984,0.803,1.909,1.147,2.327,1.217l0,0c0.005-0.052,0.005-0.112,0.005-0.182l0,0c0.056-1.104-0.894-3.823-2.884-6.387l0,0  l2.343-1.771l-2.382,1.718c-1.238-1.718-2.572-3.159-3.737-4.151l0,0c-0.471-0.414-0.929-0.726-1.312-0.958l0,0  C167.547,204.567,168.259,207.07,169.636,209.505L169.636,209.505z"/>
<path fill="#4A5D75" d="M163.718,212.647l1.438-0.837c-0.005-0.009-0.011-0.009-0.013-0.019l0,0l-1.451,0.812  c-0.976-1.752-1.713-3.497-2.228-5.215l0,0c-0.453-1.64-0.765-3.236-0.772-4.824l0,0c-0.026-1.951,0.574-4.395,2.858-5.862l0,0  c0.824-0.483,1.729-0.699,2.628-0.716l0,0h0.061h0.086c2.474,0.112,4.502,1.294,6.384,2.797l0,0  c1.877,1.519,3.637,3.496,5.295,5.696l0,0c1.438,1.917,2.573,3.877,3.337,5.818l0,0c0.583,1.512,0.98,3.039,0.98,4.618l0,0  c0.061,1.978-0.85,4.378-2.971,5.672l0,0c-1.064,0.647-2.223,0.898-3.426,0.925l0,0C170.655,221.314,166.58,217.42,163.718,212.647  L163.718,212.647z M168.88,205.69c0.342,1.112,0.886,2.373,1.611,3.643l0,0c0.876,1.52,1.964,2.754,2.943,3.573l0,0  c0.322,0.285,0.647,0.518,0.927,0.69l0,0c-0.068-0.336-0.181-0.725-0.349-1.156l0,0c-0.337-0.889-0.872-1.934-1.566-2.995l0,0  l-0.661-0.941c0,0-0.005,0-0.005-0.009l0,0l-1.03-1.381c-0.69-0.847-1.425-1.57-2.086-2.167l0,0  C168.721,205.179,168.794,205.431,168.88,205.69L168.88,205.69z"/>
<path fill="#4A5D75" d="M186.796,213.079c-3.63-0.13-7.146-2.322-10.831-5.775l0,0c-1.923-1.968-3.483-4.005-4.624-5.948l0,0  c-1.114-1.984-1.896-3.72-1.946-5.757l0,0c0-0.752,0.134-1.684,0.741-2.59l0,0l0,0c0.868-1.354,2.496-1.855,3.54-1.812l0,0  c1.938,0.061,3.413,0.811,5.162,1.795l0,0c1.708,1.01,3.538,2.375,5.39,4.015l0,0h-0.002c2.092,1.761,3.856,3.625,5.175,5.464l0,0  c1.3,1.864,2.296,3.608,2.361,5.861l0,0c0,0.829-0.204,1.778-0.722,2.616l0,0l-0.039,0.061l-0.039,0.051  c-1.01,1.477-2.723,2.021-4.041,2.021l0,0C186.882,213.079,186.84,213.079,186.796,213.079L186.796,213.079z M180.112,203.142  c1.758,1.788,3.725,2.988,5.089,3.609l0,0c-0.159-0.276-0.355-0.57-0.569-0.863l0,0c-0.963-1.347-2.453-2.944-4.247-4.446l0,0  l1.898-2.244l-1.945,2.202c-1.345-1.227-2.738-2.245-3.912-2.996l0,0C177.275,199.854,178.575,201.572,180.112,203.142  L180.112,203.142z"/>
<path fill="#4A5D75" d="M186.323,214.201c-4.604-0.154-8.577-3.254-12.016-7.406l0,0c-1.778-2.305-3.121-4.671-3.988-6.897l0,0  c-0.566-1.536-1.02-3.013-1.033-4.653l0,0c-0.013-1.225,0.324-2.771,1.538-3.979l0,0c0.941-0.907,2.145-1.27,3.215-1.287l0,0h0.1  h0.057c2.265,0.113,4.107,1.132,5.97,2.409l0,0c1.847,1.32,3.68,3.013,5.502,4.929l0,0c2.218,2.296,3.967,4.652,5.103,6.958l0,0  c0.658,1.398,1.16,2.806,1.174,4.428l0,0c0.034,1.312-0.45,2.9-1.687,4.074l0,0c-1.072,0.968-2.38,1.364-3.627,1.425l0,0  l-0.081,0.009L186.323,214.201L186.323,214.201z M180.379,202.625c0.698,0.88,1.438,1.632,2.149,2.253l0,0  c-0.366-0.526-0.782-1.069-1.248-1.622l0,0l-1.155-1.287c-0.023-0.026-0.045-0.051-0.07-0.069l0,0l-0.832-0.88  C179.577,201.554,179.96,202.09,180.379,202.625L180.379,202.625z"/>
<path fill="#4A5D75" d="M57.518,234.107c-1.451-1.131-2.184-3.013-2.145-4.635l0,0c0.121-3.791,2.478-7.036,5.849-10.101l0,0  c1.878-1.718,3.872-3.168,5.822-4.238l0,0c1.977-1.044,3.855-1.777,5.914-1.813l0,0c1.01,0,2.175,0.216,3.16,0.906l0,0  c1.773,1.167,2.365,3.194,2.339,4.81l0,0c-0.069,3.4-1.834,6.904-4.757,10.341l0,0l-2.213-1.934l2.17,1.977  c-3.465,3.748-7.652,6.044-11.709,6.111l0,0c-0.004,0-0.013,0-0.018,0l0,0C60.449,235.531,58.887,235.168,57.518,234.107  L57.518,234.107z M61.947,229.67c1.523,0.068,4.89-1.382,7.363-4.195l0,0l0,0c2.145-2.418,3.211-5.103,3.271-6.25l0,0  c-0.583,0.104-1.614,0.448-2.732,1.07l0,0c-1.446,0.785-3.107,1.978-4.7,3.436l0,0c-2.784,2.357-4.032,5.075-3.911,5.741l0,0  c0,0.034,0.004,0.069,0.004,0.086l0,0C61.351,229.601,61.567,229.67,61.947,229.67L61.947,229.67z"/>
<path fill="#4A5D75" d="M61.567,236.333L61.567,236.333L61.567,236.333c-1.74,0-3.479-0.413-4.942-1.536l0,0l1.355-1.743  c0-0.009-0.004-0.009-0.009-0.009l0,0l-1.381,1.718c-1.566-1.243-2.374-3.228-2.326-4.998l0,0c0-1.441,0.397-2.814,1.006-4.092l0,0  c1.118-2.339,2.939-4.601,5.283-6.69l0,0c3.928-3.461,8.124-6.207,12.496-6.456l0,0c0.125-0.01,0.207,0,0.232,0l0,0  c1.178,0,2.469,0.224,3.656,1.053l0,0c1.851,1.26,2.568,3.453,2.524,5.214l0,0c-0.004,1.407-0.323,2.744-0.793,4.101l0,0  c-0.406,1.114-0.941,2.227-1.615,3.341l0,0l0.432,0.155l-2.982,3.306c-0.03,0.035-0.057,0.062-0.086,0.096l0,0l-1.169,1.329  l-0.121-0.035c-3.302,3.099-7.286,5.102-11.33,5.248l0,0l-0.164,0.01L61.567,236.333L61.567,236.333z M62.534,228.868  c1.006-0.052,3.815-1.227,5.943-3.678l0,0l0.073-0.077c1.295-1.493,2.197-3.039,2.641-4.229l0,0c0.074-0.183,0.13-0.372,0.177-0.527  l0,0c-0.375,0.146-0.811,0.354-1.269,0.613l0,0c-1.294,0.707-2.813,1.778-4.212,3.09l0,0l-1.001-1.079  c-0.009,0-0.013,0.01-0.021,0.018l0,0l0.984,1.097c-1.627,1.45-2.741,2.952-3.216,4.014l0,0c-0.146,0.311-0.225,0.569-0.268,0.751  l0,0C62.413,228.859,62.469,228.859,62.534,228.868L62.534,228.868z M71.546,219.113h0.004  C71.546,219.113,71.546,219.113,71.546,219.113L71.546,219.113L71.546,219.113L71.546,219.113z"/>
<path fill="#4A5D75" d="M72.729,243.25c-2.564-1.184-3.945-3.945-3.863-6.439l0,0c0.039-3.178,1.528-6.293,3.936-9.169l0,0  c1.757-2.176,3.764-4.005,5.832-5.344l0,0c2.08-1.337,4.195-2.261,6.53-2.296l0,0c0.798,0,1.67,0.13,2.473,0.467l0,0  c1.398,0.562,2.49,1.683,3.09,2.909l0,0c0.617,1.234,0.841,2.555,0.85,3.901l0,0c-0.017,2.737-0.945,5.697-2.689,8.624l0,0  l-2.516-1.502l2.486,1.554c-3.068,4.773-7.738,7.959-12.586,8.055l0,0C75.094,244.009,73.89,243.793,72.729,243.25L72.729,243.25z   M81.827,227.219c-1.467,0.949-3.082,2.399-4.506,4.151l0,0c-1.839,2.142-2.624,4.333-2.585,5.439l0,0  c0.086,0.906,0.134,0.87,0.522,1.139l0,0c0.242,0.121,0.57,0.198,1.014,0.198l0,0c1.874,0.104,5.538-1.907,7.58-5.257l0,0  c1.312-2.167,1.869-4.281,1.856-5.611l0,0c0.004-0.656-0.129-1.087-0.22-1.26l0,0c-0.052-0.146-0.069-0.096-0.112-0.13l0,0  c-0.009,0.008-0.021-0.017-0.211-0.017l0,0c-0.021,0-0.039,0-0.061,0l0,0C84.555,225.873,83.243,226.287,81.827,227.219  L81.827,227.219z"/>
<path fill="#4A5D75" d="M76.143,244.82c-0.047,0-0.091,0-0.134,0l0,0c-1.402,0-2.775-0.267-4.035-0.854l0,0l0.836-1.804  c-0.004,0-0.008-0.01-0.017-0.018l0,0l-0.885,1.796c-2.758-1.277-4.273-4.213-4.178-6.847l0,0c0-1.328,0.272-2.632,0.734-3.893l0,0  c0.725-2.003,1.912-3.987,3.479-5.845l0,0c3.673-4.35,8.162-7.838,13.255-8.148l0,0c0.039-0.009,0.112-0.009,0.225-0.009l0,0  c0.954,0,1.93,0.155,2.914,0.579l0,0c3.108,1.321,4.359,4.6,4.277,7.319l0,0c-0.004,1.218-0.172,2.409-0.475,3.644l0,0  c-0.134,0.553-0.307,1.123-0.509,1.684l0,0l0.47,0.086l-2.258,3.634l0,0l0,0l-1.022,1.701l-0.151-0.026  c-3.09,3.988-7.532,6.794-12.435,7.001l0,0h-0.048H76.143L76.143,244.82z M76.837,237.344c1.118-0.06,4.334-1.744,6.051-4.678l0,0  l0.083-0.139c0.687-1.148,1.143-2.253,1.403-3.255l0,0c0.194-0.69,0.276-1.32,0.276-1.804l0,0c0.004-0.312-0.035-0.57-0.078-0.751  l0,0c-0.401,0.112-1.338,0.458-2.305,1.122l0,0c-1.3,0.863-2.78,2.166-4.01,3.729l0,0l-1.32-1.044  c-0.005,0.009-0.013,0.017-0.022,0.025l0,0l1.299,1.071c-1.032,1.234-1.73,2.485-2.081,3.514l0,0  c-0.211,0.587-0.293,1.088-0.289,1.433l0,0c0.073,0.76,0.12,0.595,0.211,0.682l0,0c0.1,0.052,0.216,0.086,0.518,0.086l0,0  c0.018,0,0.039,0,0.056,0l0,0C76.687,237.335,76.756,237.344,76.837,237.344L76.837,237.344z M85.422,225.078L85.422,225.078  L85.422,225.078L85.422,225.078L85.422,225.078L85.422,225.078L85.422,225.078z"/>
<path fill="#4A5D75" d="M92.596,250.113c-4.01-0.925-6.306-4.783-6.177-8.436l0,0c0.005-2.365,0.717-4.824,2.016-7.139l0,0  c1.438-2.675,3.328-4.954,5.434-6.664l0,0c2.106-1.666,4.442-2.848,7.074-2.884l0,0c0.496,0,1.032,0.044,1.545,0.165l0,0  c2.089,0.432,3.759,1.855,4.718,3.564l0,0c0.98,1.701,1.398,3.669,1.403,5.775l0,0c0,1.771-0.311,3.643-0.941,5.542l0,0  l-2.788-0.915l2.771,0.959c-2.102,5.835-7.074,10.178-12.785,10.307l0,0c-0.013,0-0.025,0-0.034,0l0,0  C94.085,250.388,93.352,250.292,92.596,250.113L92.596,250.113z M97.542,232.458c-1.416,1.122-2.866,2.856-3.962,4.912l0,0  c-0.915,1.605-1.291,3.149-1.287,4.307l0,0c0.125,1.865,0.536,2.349,1.705,2.729l0,0c0.276,0.067,0.57,0.111,0.868,0.111l0,0  c2.271,0.121,5.957-2.513,7.23-6.327l0,0c0.449-1.347,0.643-2.625,0.643-3.695l0,0c0-1.287-0.29-2.287-0.617-2.84l0,0  c-0.35-0.578-0.579-0.69-0.92-0.77l0,0c-0.039-0.008-0.121-0.024-0.259-0.024l0,0c-0.017,0-0.035,0-0.052,0l0,0  C100.249,230.862,98.915,231.328,97.542,232.458L97.542,232.458z"/>
<path fill="#4A5D75" d="M94.836,251.191c-0.056,0-0.108,0-0.159,0l0,0c-0.898,0-1.77-0.112-2.607-0.32l0,0l0.41-1.709  c-0.009,0-0.017,0-0.026-0.008l0,0l-0.458,1.7c-4.398-1.045-6.885-5.127-6.725-8.935l0,0c0-1.027,0.129-2.054,0.371-3.091l0,0  c0.368-1.51,0.972-3.029,1.805-4.488l0,0c3-5.3,7.588-9.755,13.402-10.143l0,0c0.129-0.01,0.212-0.01,0.237-0.01l0,0  c0.574,0,1.204,0.053,1.904,0.216l0,0c2.301,0.544,4.174,2.08,5.218,3.945l0,0c1.065,1.865,1.467,3.979,1.467,6.155l0,0  c0,0.725-0.043,1.441-0.134,2.21l0,0c-0.147,1.122-0.406,2.262-0.807,3.461l0,0c-2.059,5.896-7.212,10.695-13.782,11.016l0,0h-0.047  H94.836L94.836,251.191z M94.612,237.508c-0.509,0.924-0.851,1.821-1.032,2.633l0,0c-0.116,0.501-0.164,0.949-0.164,1.338l0,0  c0.082,1.667,0.622,2.046,1.14,2.176l0,0c0.156,0.035,0.311,0.06,0.505,0.06l0,0l0,0c0.03,0,0.069,0,0.108,0l0,0  c0.008,0,0.021,0,0.03,0l0,0c0.427,0.036,1.727-0.388,2.905-1.414l0,0c1.209-1.002,2.335-2.504,2.922-4.23l0,0  c0.254-0.751,0.427-1.459,0.526-2.149l0,0c0.073-0.483,0.108-0.924,0.108-1.355l0,0c0.026-1.623-0.587-2.701-0.807-2.893l0,0  l-0.052,0.01l-0.185-0.018c-0.078,0.018-0.363,0.061-0.755,0.259l0,0c-0.466,0.224-1.07,0.595-1.692,1.113l0,0  c-1.256,1.027-2.586,2.581-3.522,4.403l0,0l-1.709-0.881c-0.004,0.009-0.009,0.017-0.013,0.025l0,0L94.612,237.508L94.612,237.508z"/>
<path fill="#4A5D75" d="M115.903,253.633c-5.61-0.336-9.116-5.387-8.977-10.557l0,0c0-1.304,0.186-2.643,0.552-3.944l0,0  c0.851-3.151,2.4-5.924,4.389-8.021l0,0c1.99-2.063,4.498-3.591,7.454-3.617l0,0c0.074,0,0.229,0,0.453,0.018l0,0  c2.862,0.173,5.197,1.925,6.634,4.144l0,0c1.468,2.253,2.24,5.067,2.25,8.149l0,0c0,0.405-0.014,0.803-0.039,1.191l0,0l-2.936-0.182  l2.932,0.198c-0.488,6.708-5.388,12.518-12.026,12.638l0,0C116.361,253.651,116.15,253.643,115.903,253.633L115.903,253.633z   M122.753,240.642L122.753,240.642c0.017-0.294,0.03-0.578,0.03-0.837l0,0c0.004-2.072-0.553-3.834-1.282-4.921l0,0  c-0.751-1.113-1.472-1.477-2.093-1.511l0,0l-0.078-0.009h-0.009v0.009c-0.695-0.034-1.964,0.483-3.207,1.795l0,0  c-1.239,1.296-2.374,3.255-2.974,5.526l0,0c-0.233,0.836-0.345,1.64-0.345,2.382l0,0c0.138,3.056,1.398,4.497,3.47,4.688l0,0  c0.125,0.008,0.233,0.017,0.324,0.008l0,0C119.266,247.894,122.477,244.802,122.753,240.642L122.753,240.642z"/>
<path fill="#4A5D75" d="M116.508,254.436c-0.341,0-0.579-0.008-0.708-0.017l0,0l0.056-1.615l-0.056,1.615h-0.095l-0.057-0.009  c-3.09-0.26-5.749-1.657-7.433-3.78l0,0c-1.692-2.106-2.435-4.74-2.43-7.398l0,0c0-0.519,0.025-1.036,0.082-1.562l0,0  c0.1-0.881,0.272-1.778,0.531-2.667l0,0c0.907-3.134,2.439-6.018,4.554-8.262l0,0c2.102-2.228,4.912-3.868,8.191-4.031l0,0  c0.035,0,0.109-0.01,0.229-0.01l0,0c0.16,0,0.346,0.01,0.609,0.026l0,0c3.22,0.259,5.892,2.149,7.442,4.602l0,0  c1.251,1.934,1.954,4.195,2.223,6.604l0,0l0.311,0.009l-0.225,3.107c-0.005,0.086-0.009,0.165-0.018,0.251l0,0l-0.159,2.485h-0.251  c-1.406,5.604-5.964,10.359-12.551,10.652l0,0c-0.03,0.01-0.064,0.01-0.095,0.01l0,0  C116.594,254.446,116.547,254.436,116.508,254.436L116.508,254.436z M118.942,234.194c-0.116,0.035-0.297,0.112-0.504,0.225l0,0  c-0.428,0.242-0.985,0.673-1.524,1.261l0,0c-1.097,1.174-2.149,2.952-2.646,4.989l0,0l-0.004,0.017l-0.022,0.077  c-0.138,0.51-0.225,0.976-0.276,1.495l0,0c-0.026,0.267-0.04,0.499-0.04,0.733l0,0c-0.004,1.354,0.415,2.425,0.937,3.072l0,0  c0.536,0.656,1.062,0.89,1.524,0.906l0,0c0.151,0,0.259,0.009,0.293,0.009l0,0c0,0,0.017,0,0.121,0l0,0h0.004  c0.008,0,0.018,0,0.026,0l0,0c0.004,0,0.017,0,0.026,0l0,0c0.548,0.01,1.774-0.5,2.788-1.648l0,0  c1.053-1.157,1.865-2.832,1.985-4.704l0,0l2.232,0.137v-0.008l0,0l-2.232-0.182c0.018-0.232,0.026-0.432,0.031-0.682l0,0  c0-0.086,0-0.19,0-0.294l0,0c0.004-1.648-0.411-3.038-0.945-4.005l0,0c-0.479-0.881-1.083-1.329-1.273-1.416l0,0l-0.052,0.018  l-0.333-0.026C119.042,234.167,119.011,234.176,118.942,234.194L118.942,234.194z"/>
<path fill="#4A5D75" d="M131.52,249.413c-1.934-2.314-3.043-5.37-3.043-8.685l0,0l0,0l0,0c0-0.009,0-0.025,0-0.033l0,0  c0.004-3.341,0.885-6.423,2.446-8.875l0,0c1.551-2.427,3.924-4.377,6.945-4.687l0,0c0.246-0.036,0.497-0.044,0.756-0.044l0,0  c2.882,0.008,5.355,1.527,7.207,3.574l0,0c1.861,2.08,3.212,4.8,3.854,7.915l0,0h0.006c0.206,1.011,0.306,2.029,0.306,3.013l0,0  c0.073,5.594-3.53,10.98-9.461,11.61l0,0c-0.358,0.036-0.704,0.053-1.022,0.053l0,0c-0.006,0-0.01,0-0.019,0l0,0  C136.297,253.254,133.441,251.7,131.52,249.413L131.52,249.413z M136.012,245.623c0.994,1.174,2.181,1.744,3.502,1.753l0,0  c0.159,0,0.306-0.009,0.436-0.018l0,0c2.321-0.224,4.109-2.365,4.177-5.767l0,0c0-0.578-0.06-1.182-0.186-1.805l0,0l2.871-0.595  l-2.879,0.578c-0.432-2.157-1.39-3.997-2.465-5.179l0,0c-1.084-1.21-2.166-1.642-2.844-1.623l0,0c-0.039,0-0.091,0-0.168,0.008l0,0  c-0.682,0.053-1.688,0.604-2.591,2.011l0,0c-0.862,1.33-1.493,3.324-1.52,5.533l0,0l0.069,0.544l-0.056,0.156  C134.459,243.007,135.11,244.561,136.012,245.623L136.012,245.623z"/>
<path fill="#4A5D75" d="M130.687,250.043c-2.124-2.426-3.233-5.586-3.333-8.874l0,0l2.25-0.062c0-0.008,0-0.008,0-0.018l0,0  l-2.254,0.026c0-0.061,0-0.146,0-0.259l0,0c0-0.034,0-0.104,0.004-0.225l0,0c0.078-3.349,0.911-6.543,2.577-9.167l0,0  c1.654-2.617,4.334-4.68,7.674-5.103l0,0l0.086-0.017h0.035c0.199-0.018,0.419-0.035,0.669-0.043l0,0h0.025h0.105  c3.266,0.043,6.116,1.632,8.141,3.866l0,0c1.51,1.667,2.645,3.687,3.423,5.888l0,0l0.197-0.018l0.509,2.486  c0.005,0.025,0.009,0.052,0.013,0.069l0,0l0.717,3.246l-0.396,0.025c0.064,5.638-3.691,11.36-10.398,12.12l0,0  c-0.35,0.026-0.664,0.034-1.044,0.043l0,0C136.012,254.031,132.797,252.459,130.687,250.043L130.687,250.043z M135.468,240.832  l0.006,0.053v0.06c0.055,1.848,0.75,3.437,1.561,4.352l0,0c0.907,0.992,1.763,1.285,2.448,1.285l0,0c0,0,0,0,0.009,0l0,0  c0.147-0.008,0.189-0.008,0.189-0.008l0,0l0.092-0.009l0.073-0.009c0.518-0.025,1.294-0.38,1.98-1.286l0,0  c0.679-0.889,1.184-2.219,1.179-3.738l0,0c0-0.302-0.018-0.621-0.065-0.958l0,0c-0.016-0.173-0.042-0.336-0.073-0.509l0,0  l-0.048-0.241c-0.392-2.056-1.333-3.799-2.312-4.853l0,0c-0.794-0.906-1.516-1.174-1.748-1.208l0,0h-0.107l0,0l-0.084,0.009  l-0.102,0.008c-0.009,0-0.031,0.01-0.062,0.018l0,0c-0.069,0.035-0.202,0.086-0.358,0.207l0,0c-0.323,0.226-0.746,0.657-1.144,1.269  l0,0c-0.803,1.218-1.441,3.065-1.438,5.138l0,0c0,0.103,0,0.163,0,0.198l0,0l0.01,0.095l-0.006,0.103  C135.468,240.815,135.468,240.824,135.468,240.832L135.468,240.832z"/>
<path fill="#4A5D75" d="M149.433,238.959c-0.43-1.572-0.636-3.125-0.636-4.628l0,0c0.009-2.296,0.483-4.463,1.498-6.318l0,0  c1.006-1.831,2.681-3.401,4.881-3.962l0,0c0.608-0.173,1.236-0.251,1.861-0.251l0,0c5.094,0.198,9.215,4.152,11.796,9.349l0,0l0,0  c1.044,2.123,1.585,4.334,1.588,6.458l0,0c0.097,3.971-2.191,8.062-6.461,9.253l0,0c-0.854,0.251-1.722,0.354-2.571,0.354l0,0  C155.764,249.119,151.089,244.751,149.433,238.959L149.433,238.959z M157.038,229.678c-0.143,0-0.255,0.018-0.385,0.044l0,0  c-0.358,0.103-0.771,0.354-1.222,1.14l0,0c-0.427,0.768-0.763,2.002-0.759,3.47l0,0c0,0.95,0.134,2.012,0.414,3.073l0,0  c0.983,3.669,4.147,6.043,6.303,5.938l0,0c0.345-0.008,0.664-0.051,0.957-0.129l0,0c1.391-0.449,2.115-1.424,2.201-3.607l0,0  c0.004-1.114-0.293-2.471-0.98-3.868l0,0l2.634-1.294l-2.654,1.259c-1.671-3.754-4.984-6.042-6.357-6.042l0,0  C157.136,229.662,157.084,229.67,157.038,229.678L157.038,229.678z"/>
<path fill="#4A5D75" d="M148.335,239.063l2.086-0.57c0-0.01,0-0.01,0-0.01l0,0l-2.09,0.544c-0.172-0.638-0.311-1.294-0.414-1.958  l0,0c-0.126-0.907-0.189-1.821-0.189-2.711l0,0c0.004-2.384,0.452-4.67,1.559-6.683l0,0c1.086-2.002,2.973-3.686,5.445-4.384l0,0  c0.66-0.173,1.33-0.259,2.08-0.277l0,0c5.901,0.182,10.396,4.671,13.058,9.988l0,0c0.53,1.07,0.936,2.166,1.229,3.271l0,0  c0.308,1.183,0.462,2.374,0.462,3.557l0,0c0.13,4.109-2.349,8.435-7.048,9.771l0,0c-0.894,0.242-1.826,0.389-2.84,0.406l0,0  C155,249.964,149.958,245.001,148.335,239.063L148.335,239.063z M156.933,230.568c-0.111,0.086-0.301,0.311-0.487,0.64l0,0  c-0.371,0.681-0.695,1.812-0.689,3.168l0,0c0,0.544,0.047,1.104,0.167,1.769l0,0c0.06,0.381,0.146,0.769,0.271,1.184l0,0  c0.45,1.656,1.395,3.047,2.422,3.962l0,0c1.02,0.932,2.129,1.294,2.504,1.27l0,0c0.004,0,0.064,0,0.185-0.01l0,0  c0.178,0,0.324-0.017,0.544-0.086l0,0c0.641-0.129,1.541-1.027,1.577-3.038l0,0c0-0.511-0.071-1.062-0.23-1.684l0,0  c-0.12-0.483-0.285-0.984-0.496-1.476l0,0l-0.198-0.424l-0.315-0.664c-1.216-2.306-3.099-3.988-4.26-4.498l0,0  c-0.298-0.146-0.501-0.189-0.587-0.207l0,0l0,0h-0.169c-0.06,0.008-0.039,0.008-0.052,0.008l0,0l-0.095,0.026h-0.017  C156.994,230.517,156.968,230.534,156.933,230.568L156.933,230.568z"/>
<path fill="#4A5D75" d="M180.214,242.119c-4.757-0.087-9.184-3.246-11.907-7.994l0,0c-1.464-2.728-2.214-5.481-2.22-8.046l0,0  c-0.025-2.849,1.028-5.974,4.015-7.354l0,0c0.898-0.422,1.852-0.596,2.775-0.596l0,0c4.447,0.155,8.438,3.186,11.707,7.373l0,0l0,0  c2.151,2.771,3.409,5.783,3.431,8.787l0,0c0.067,2.685-1.292,5.585-4.022,6.975l0,0c-1.192,0.597-2.494,0.855-3.755,0.855l0,0  C180.233,242.119,180.225,242.119,180.214,242.119L180.214,242.119z M172.877,224.008c-0.198,0-0.28,0.033-0.349,0.067l0,0  c-0.047,0.026-0.118,0.035-0.277,0.338l0,0c-0.146,0.293-0.298,0.88-0.293,1.665l0,0c-0.009,1.364,0.448,3.298,1.488,5.215l0,0  c1.729,3.194,4.989,5.05,6.768,4.954l0,0c0.481,0,0.839-0.086,1.093-0.216l0,0c0.565-0.353,0.771-0.604,0.837-1.743l0,0  c0.021-1.227-0.644-3.228-2.184-5.171l0,0l2.314-1.805l-2.349,1.752c-2.267-3.176-5.666-5.066-6.906-5.066l0,0  C172.968,223.999,172.916,223.999,172.877,224.008L172.877,224.008z"/>
<path fill="#4A5D75" d="M180.565,242.912c-5.639-0.06-10.516-3.686-13.259-8.589l0,0l1.695-0.949c0-0.009-0.003-0.009-0.003-0.017  l0,0l-1.705,0.939c-0.727-1.328-1.266-2.684-1.641-4.039l0,0c-0.394-1.459-0.617-2.901-0.617-4.334l0,0  c-0.057-2.979,1.173-6.379,4.415-7.916l0,0c0.968-0.44,2.003-0.656,3.091-0.664l0,0c5.145,0.138,9.561,3.6,12.971,7.933l0,0  l1.36,1.762l-0.076,0.096c0.588,0.957,1.075,1.924,1.459,2.909l0,0c0.562,1.467,0.89,2.977,0.89,4.488l0,0  c0.078,2.823-1.415,5.887-4.347,7.389l0,0c-1.3,0.664-2.72,0.959-4.199,0.992l0,0H180.565L180.565,242.912z M173.02,226.251  c0,0.656,0.104,1.459,0.38,2.383l0,0c0.232,0.785,0.588,1.641,1.048,2.478l0,0c1.559,2.979,4.655,4.472,5.432,4.342l0,0  c0,0,0.034-0.009,0.16-0.009l0,0c0.235,0,0.353-0.043,0.496-0.104l0,0c0.201-0.12,0.445-0.259,0.492-1.285l0,0  c0-0.501-0.11-1.149-0.396-1.899l0,0c-0.295-0.794-0.75-1.649-1.367-2.504l0,0l-0.173-0.233c-0.016-0.026-0.039-0.052-0.055-0.077  l0,0l-0.479-0.622c-1.002-1.234-2.134-2.236-3.151-2.917l0,0c-0.985-0.69-1.903-0.976-2.149-1.019l0,0  C173.146,225.027,173.012,225.544,173.02,226.251L173.02,226.251z"/>
<path fill="#4A5D75" d="M194.795,233.002c-3.985-0.061-7.949-2.331-11.161-6.044l0,0c-2.63-3.271-4.173-6.698-4.223-9.96l0,0  c-0.016-1.735,0.557-3.825,2.327-5.059l0,0c1.08-0.777,2.322-1.045,3.437-1.045l0,0c3.87,0.12,7.583,2.469,11.113,5.74l0,0l0,0  c3.151,2.987,5.257,6.259,5.343,9.885l0,0c0.037,1.734-0.69,3.659-2.252,4.972l0,0c-1.347,1.087-2.996,1.511-4.55,1.511l0,0  C194.817,233.002,194.809,233.002,194.795,233.002L194.795,233.002z M185.291,216.999c-0.05,1.147,0.881,3.841,2.853,6.215l0,0  c2.188,2.641,5.212,3.987,6.652,3.91l0,0c0.573-0.009,0.803-0.139,0.832-0.155l0,0c0.084-0.104,0.104-0.034,0.136-0.448l0,0  c0.086-0.872-1.001-3.376-3.449-5.569l0,0l1.99-2.157l-2.037,2.114c-2.581-2.605-5.897-4.151-6.967-4.151l0,0  C185.291,216.817,185.288,216.903,185.291,216.999L185.291,216.999z"/>
<path fill="#4A5D75" d="M195.175,233.789v0.008c-4.652-0.061-9.104-2.668-12.388-6.534l0,0l1.292-1.088  c-0.006-0.009-0.011-0.009-0.014-0.009l0,0l-1.308,1.07c-1.472-1.813-2.591-3.704-3.347-5.603l0,0  c-0.606-1.597-1.012-3.211-1.018-4.869l0,0c-0.034-1.864,0.67-4.117,2.547-5.472l0,0c1.138-0.829,2.435-1.148,3.659-1.184l0,0  c0.047,0,0.097,0,0.151,0l0,0c4.087,0.086,7.908,2.365,11.398,5.413l0,0h0.032l0.85,0.768c1.933,1.813,3.452,3.765,4.472,5.775l0,0  c0.742,1.493,1.229,3.064,1.234,4.73l0,0c0.039,1.864-0.756,3.911-2.403,5.292l0,0c-1.457,1.174-3.235,1.675-5.073,1.709l0,0  C195.233,233.796,195.196,233.796,195.175,233.789L195.175,233.789z M186.859,219.441c0.435,1.062,1.177,2.331,2.157,3.504l0,0  c1.998,2.453,4.684,3.488,5.39,3.402l0,0h0.023c0.026,0,0.063,0,0.121,0l0,0c0.041-0.01,0.078-0.01,0.106-0.018l0,0  c0.006-0.025,0.006-0.052,0.006-0.104l0,0c0.002-0.259-0.097-0.803-0.444-1.519l0,0c-0.416-0.854-1.136-1.882-2.108-2.884l0,0  l-0.591-0.587c-0.039-0.034-0.078-0.069-0.115-0.104l0,0l-0.303-0.285c-1.136-1.044-2.344-1.891-3.384-2.468l0,0  c-0.5-0.285-0.983-0.484-1.36-0.621l0,0C186.427,218.198,186.582,218.785,186.859,219.441L186.859,219.441z M185.512,217.55  L185.512,217.55C185.507,217.55,185.507,217.55,185.512,217.55L185.512,217.55z"/>
<path fill="#FFFFFF" d="M80.036,207.2c-4.73,4.368-9.699,6.173-10.907,4.316c-1.114-1.855,2.054-6.275,6.988-10.281  c4.688-4.023,9.124-6.319,10.043-4.808C87.162,197.928,84.516,202.85,80.036,207.2z"/>
<path fill="#FFFFFF" d="M69.491,212.898c-0.967-0.907-0.794-2.47-0.012-4.229l0,0c0.966-2.15,2.865-4.731,5.348-7.261l0,0  c3.668-3.833,7.19-6.655,9.707-6.845l0,0c0.491-0.01,0.945,0.146,1.243,0.438l0,0c0.88,0.898,0.656,2.548,0.004,4.524l0,0  c-0.751,2.157-2.219,4.791-4.277,7.372l0,0l-0.704-0.285l0.704,0.294c-3.263,3.885-7.058,6.474-10.07,6.596l0,0  c-0.009,0-0.017,0-0.021,0l0,0C70.635,213.519,69.949,213.32,69.491,212.898L69.491,212.898z M76.018,202.107  c-2.284,2.365-3.976,4.73-4.757,6.525l0,0c-0.647,1.503-0.617,2.538-0.116,2.979l0,0c0.242,0.207,0.548,0.303,0.954,0.285l0,0  c1.52,0.052,5.02-1.96,8.002-5.576l0,0h-0.004c1.938-2.392,3.336-4.853,4.027-6.768l0,0c0.647-1.762,0.6-2.97,0.233-3.247l0,0  c-0.108-0.094-0.216-0.129-0.415-0.137l0,0c-0.025,0-0.056,0-0.086,0l0,0C82.75,196.193,79.263,198.558,76.018,202.107  L76.018,202.107z"/>
<path fill="#FFFFFF" d="M90.852,212.474c-3.207,5.119-8.006,8.114-10.445,6.777c-2.356-1.339-0.992-6.173,2.784-10.964  c3.612-4.791,7.8-7.976,9.604-6.94C94.664,202.366,93.899,207.365,90.852,212.474z"/>
<path fill="#FFFFFF" d="M79.673,219.951c-1.709-1.02-1.74-3.187-0.859-5.655l0,0c0.69-1.941,1.942-4.117,3.651-6.284l0,0  c3.315-4.265,6.85-7.467,9.725-7.665l0,0c0.431-0.01,0.854,0.086,1.191,0.275l0,0c1.571,0.958,1.549,3.298,0.855,6.12l0,0  c-0.467,1.805-1.321,3.868-2.564,5.94l0,0c-2.767,4.394-6.604,7.527-10.108,7.682l0,0c-0.009,0.009-0.018,0.009-0.022,0.009l0,0  C80.843,220.382,80.2,220.244,79.673,219.951L79.673,219.951z M83.92,208.564c-1.545,1.985-2.659,3.988-3.246,5.688l0,0  c-0.772,2.219-0.51,3.799,0.445,4.309l0,0c0.289,0.154,0.596,0.216,0.962,0.216l0,0c1.73,0.06,5.412-2.409,7.955-6.519l0,0l0,0  c1.17-1.934,1.994-3.841,2.439-5.48l0,0c0.747-2.6,0.418-4.446-0.285-4.731l0,0c-0.129-0.078-0.272-0.104-0.458-0.104l0,0  c-0.03,0-0.065-0.008-0.104,0l0,0C90.326,201.96,86.808,204.619,83.92,208.564L83.92,208.564z"/>
<path fill="#FFFFFF" d="M103.758,216.876c-2.192,5.439-6.694,9.116-9.793,8.114c-3.03-1.001-2.871-6.008,0.095-11.16  c2.818-5.172,6.776-8.764,9.072-8.028C105.467,206.527,105.838,211.456,103.758,216.876z"/>
<path fill="#FFFFFF" d="M93.408,225.734c-2.681-0.967-3.112-3.824-2.275-7.156l0,0c0.401-1.562,1.101-3.246,2.073-4.946l0,0  c2.744-4.8,6.159-8.495,9.396-8.719l0,0c0.324-0.018,0.652,0.025,0.955,0.12l0,0c2.382,0.898,2.797,4.023,2.261,7.77l0,0  c-0.211,1.338-0.591,2.763-1.143,4.213l0,0l-0.916-0.139l0.916,0.139c-2.025,4.93-5.694,8.719-9.733,8.935l0,0  C94.405,225.958,93.887,225.889,93.408,225.734L93.408,225.734z M94.897,214.02c-0.872,1.57-1.494,3.115-1.834,4.522l0,0  c-0.777,3.057-0.021,5.283,1.441,5.698l0,0c0.25,0.086,0.509,0.12,0.781,0.112l0,0c1.973,0.104,5.723-2.962,7.558-7.597l0,0l0,0  c0.54-1.363,0.911-2.693,1.123-3.92l0,0c0.668-3.521-0.194-6.085-1.274-6.274l0,0c-0.125-0.053-0.254-0.069-0.401-0.062l0,0  c-0.035,0-0.073-0.008-0.116-0.008l0,0C100.706,206.518,97.228,209.565,94.897,214.02L94.897,214.02z"/>
<path fill="#FFFFFF" d="M118.77,219.277c-0.971,5.594-4.774,9.91-8.356,9.409c-3.53-0.518-4.696-5.481-2.792-10.946  c1.804-5.455,5.278-9.505,7.911-9.15C118.191,208.961,119.685,213.674,118.77,219.277z"/>
<path fill="#FFFFFF" d="M110.12,229.472c-3.733-0.666-4.838-4.316-4.26-8.521l0,0c0.159-1.069,0.431-2.184,0.833-3.314l0,0  c1.895-5.335,4.942-9.591,8.525-9.858l0,0c0.172,0,0.358,0.009,0.535,0.035l0,0c3.211,0.63,4.368,4.592,4.213,9.349l0,0  c-0.035,0.707-0.112,1.424-0.237,2.159l0,0l-0.958-0.044l0.958,0.052c-0.985,5.396-4.187,9.919-8.745,10.194l0,0  C110.69,229.523,110.401,229.506,110.12,229.472L110.12,229.472z M108.553,217.861c-0.358,1.045-0.596,2.071-0.734,3.056l0,0  c-0.583,3.938,0.958,6.828,2.884,6.976l0,0c0.155,0.018,0.302,0.034,0.449,0.025l0,0c2.236,0.121,5.81-3.564,6.651-8.701l0,0  c0.121-0.69,0.199-1.364,0.242-2.02l0,0c0.38-4.533-1.32-7.813-2.753-7.813l0,0c-0.065-0.017-0.134-0.017-0.216-0.017l0,0  c-0.043-0.008-0.091-0.008-0.138-0.008l0,0C113.335,209.392,110.055,212.915,108.553,217.861L108.553,217.861z"/>
<path fill="#FFFFFF" d="M134.701,219.294c0.342,5.584-2.404,10.401-6.146,10.463c-3.746,0.067-6.197-4.628-5.542-10.239  c0.609-5.61,3.311-10.073,6.086-10.126C131.873,209.341,134.368,213.692,134.701,219.294z"/>
<path fill="#FFFFFF" d="M128.563,230.56c-4.648-0.112-6.75-4.541-6.639-9.617l0,0c0.018-0.483,0.057-0.968,0.121-1.459l0,0  c0.337-2.9,1.226-5.507,2.421-7.45l0,0c1.161-1.934,2.642-3.365,4.615-3.444l0,0c1.98,0,3.457,1.416,4.527,3.29l0,0  c1.114,1.925,1.873,4.496,2.067,7.397l0,0l-0.976,0.018l0.976-0.018c0.004,0.044,0.004,0.068,0.004,0.077l0,0  c0.225,4.878-1.48,9.375-5.109,10.774l0,0l0.544,0.389L128.563,230.56L128.563,230.56z M126.107,212.707  c-1.028,1.711-1.839,4.127-2.124,6.854l0,0c-0.048,0.45-0.078,0.898-0.091,1.347l0,0c-0.052,2.384,0.488,4.507,1.398,5.948l0,0  c0.915,1.433,2.062,2.099,3.15,2.106l0,0c0.035,0,0.069,0,0.104-0.008l0,0c1.222,0.008,2.643-0.882,3.708-2.66l0,0  c1.023-1.752,1.609-4.238,1.472-6.906l0,0c0-0.043,0.004-0.067,0.004-0.077l0,0c-0.138-2.702-0.836-5.102-1.781-6.75l0,0  c-0.933-1.692-2.056-2.435-2.837-2.383l0,0c-0.018,0-0.038,0.008-0.056,0.008l0,0C128.26,210.195,127.083,211.034,126.107,212.707  L126.107,212.707z"/>
<path fill="#FFFFFF" d="M150.157,216.919c1.598,5.404,0.146,10.463-3.413,11.094c-3.596,0.656-7.126-3.54-7.783-9.124  c-0.643-5.586,1.059-10.359,3.729-10.826C145.34,207.597,148.625,211.516,150.157,216.919z"/>
<path fill="#FFFFFF" d="M137.986,218.923c-0.022-0.19-0.038-0.389-0.061-0.588l0,0c-0.333-5.49,1.031-10.221,4.51-11.05l0,0  c0.169-0.033,0.354-0.051,0.54-0.06l0,0c3.618,0.163,6.495,4.342,8.123,9.6l0,0l-0.941,0.094l-0.941,0.096  c-0.694-2.486-1.799-4.637-2.965-6.086l0,0c-1.161-1.493-2.344-2.15-3.067-2.106l0,0c-0.087,0-0.16,0.009-0.243,0.025l0,0  c-1.674,0.069-3.664,4.257-3.077,9.444l0,0c0.018,0.189,0.038,0.371,0.061,0.562l0,0c0.311,2.521,1.223,4.721,2.399,6.24l0,0  c1.205,1.528,2.581,2.245,3.665,2.202l0,0c0.143,0,0.294-0.018,0.445-0.043l0,0c2.205-0.269,3.991-3.919,3.193-8.399l0,0  c-0.1-0.604-0.233-1.209-0.411-1.839l0,0l0.941-0.096l0.941-0.094c0.207,0.682,0.358,1.338,0.475,1.994l0,0  c0.781,4.781-0.453,9.09-4.522,9.979l0,0c-0.285,0.043-0.566,0.069-0.854,0.069l0,0  C141.593,228.773,138.659,224.292,137.986,218.923L137.986,218.923z"/>
<path fill="#FFFFFF" d="M163.852,212.466c2.677,5.058,2.555,10.108-0.509,11.23c-3.142,1.122-7.397-2.426-9.288-7.786  c-1.817-5.361-1.238-10.3,1.121-11.127C157.49,203.962,161.29,207.399,163.852,212.466z"/>
<path fill="#FFFFFF" d="M162.377,224.689c-4.072-0.069-7.511-3.806-9.251-8.666l0,0c-0.315-0.933-0.553-1.84-0.721-2.729l0,0  c-0.772-4.394-0.306-8.185,2.317-9.254l0,0c0.294-0.112,0.617-0.172,0.95-0.172l0,0c3.268,0.12,6.539,3.712,9.047,8.424l0,0h-0.005  c0.669,1.253,1.17,2.513,1.519,3.712l0,0c1.072,3.824,0.631,7.244-2.329,8.426l0,0c-0.471,0.165-0.981,0.251-1.499,0.259l0,0  C162.398,224.689,162.39,224.689,162.377,224.689L162.377,224.689z M156.036,205.448c-0.139,0.017-0.271,0.034-0.41,0.086l0,0  c-1.303,0.285-2.274,3.6-1.35,7.727l0,0c0.162,0.819,0.4,1.675,0.703,2.538l0,0c1.584,4.592,5.114,7.501,7.005,7.32l0,0  c0.271-0.009,0.53-0.052,0.793-0.147l0,0c1.728-0.544,2.556-3.384,1.546-6.932l0,0c-0.302-1.104-0.751-2.245-1.342-3.41l0,0  l0.867-0.163l-0.867,0.163c-2.107-4.358-5.407-7.216-6.825-7.19l0,0C156.114,205.439,156.075,205.448,156.036,205.448  L156.036,205.448z"/>
<path fill="#FFFFFF" d="M174.903,206.5c3.507,4.644,4.595,9.461,2.199,10.911c-2.481,1.451-7.077-1.424-10-6.431  c-2.8-4.998-3.357-9.962-1.453-11.05C167.491,198.843,171.541,201.839,174.903,206.5z"/>
<path fill="#FFFFFF" d="M166.252,211.18c-0.876-1.58-1.528-3.125-1.96-4.585l0,0c-0.939-3.366-1.023-6.224,0.747-7.354l0,0  c0.337-0.198,0.742-0.319,1.187-0.328l0,0c2.893,0.104,6.329,3.186,9.431,7.329l0,0l0,0c1.31,1.734,2.309,3.496,2.952,5.128l0,0  c1.127,2.909,1.161,5.48-0.771,6.717l0,0c-0.525,0.31-1.18,0.482-1.872,0.491l0,0C172.429,218.535,168.774,215.479,166.252,211.18  L166.252,211.18z M166.752,200.501c-0.181,0.009-0.34,0.043-0.496,0.129l0,0c-0.88,0.38-1.196,2.814-0.182,5.932l0,0  c0.416,1.337,1.041,2.787,1.87,4.221l0,0c2.316,4.04,5.8,6.353,7.458,6.216l0,0c0.358-0.01,0.669-0.087,0.97-0.259l0,0  c1.146-0.648,1.404-2.703,0.385-5.336l0,0c-0.557-1.458-1.441-3.073-2.619-4.652l0,0l0.765-0.259l-0.765,0.259  c-2.677-3.832-6.026-6.276-7.289-6.259l0,0C166.814,200.493,166.784,200.501,166.752,200.501L166.752,200.501z"/>
<path fill="#FFFFFF" d="M182.283,199.198c4.618,3.901,7.466,8.296,6.269,10.194c-1.311,1.891-6.096,0.139-10.486-4.151  c-4.189-4.273-6.551-9.115-5.473-10.618C173.59,193.111,177.872,195.287,182.283,199.198z"/>
<path fill="#FFFFFF" d="M186.349,211.274c-3.018-0.024-6.682-2.503-9.72-6.284l0,0c-1.624-2.097-2.832-4.238-3.562-6.12l0,0  c-0.906-2.408-1.248-4.445-0.203-5.49l0,0c0.302-0.293,0.733-0.448,1.23-0.458l0,0c2.534,0.087,5.978,2.763,9.456,6.423l0,0l0,0  c2.05,2.133,3.643,4.299,4.576,6.224l0,0c1.01,2.09,1.281,3.946,0.165,5.033l0,0c-0.471,0.433-1.146,0.656-1.923,0.673l0,0  C186.362,211.274,186.357,211.274,186.349,211.274L186.349,211.274z M174.759,194.494c-0.198,0.008-0.327,0.051-0.462,0.18l0,0  c-0.487,0.338-0.471,1.978,0.441,4.162l0,0c0.683,1.7,1.83,3.686,3.35,5.628l0,0c2.779,3.479,6.09,5.353,7.547,5.231l0,0  c0.402-0.008,0.714-0.112,0.976-0.336l0,0c0.641-0.58,0.614-1.943-0.249-3.756l0,0c-0.787-1.666-2.201-3.661-4.048-5.603l0,0  l0.617-0.328L182.309,200c-3.057-3.376-6.381-5.533-7.469-5.517l0,0C174.817,194.484,174.78,194.484,174.759,194.494  L174.759,194.494z"/>
<path fill="#FFFFFF" d="M71.486,227.452c-4.053,4.472-9.595,6.337-12.116,4.386c-2.382-1.943-0.604-6.372,3.841-10.308  c4.273-3.92,9.259-6.259,11.283-4.852C76.617,218.077,75.366,222.998,71.486,227.452z"/>
<path fill="#FFFFFF" d="M58.438,232.475c-1.549-1.251-1.567-3.323-0.513-5.541l0,0c0.88-1.856,2.468-3.877,4.601-5.768l0,0  c3.591-3.254,7.605-5.594,10.67-5.706l0,0c0.798-0.017,1.532,0.156,2.067,0.536l0,0c1.572,1.088,1.546,3.341,0.644,5.905l0,0  c-0.665,1.838-1.869,3.866-3.583,5.826l0,0l-0.837-0.276l0.837,0.285c-3.082,3.41-7.135,5.576-10.601,5.671l0,0  c-0.004-0.008-0.012-0.008-0.017-0.008l0,0C60.401,233.426,59.253,233.115,58.438,232.475L58.438,232.475z M63.889,221.91  c-1.861,1.665-3.216,3.419-3.933,4.981l0,0c-0.854,1.891-0.733,3.427,0.345,4.299l0,0c0.562,0.448,1.265,0.621,2.106,0.612l0,0  c2.154-0.018,5.49-1.597,8.244-4.636l0,0h0.004c1.558-1.769,2.672-3.616,3.281-5.231l0,0c0.872-2.278,0.668-4.04-0.229-4.584l0,0  c-0.303-0.206-0.669-0.293-1.148-0.293l0,0c-0.025,0-0.056,0-0.082,0l0,0C70.666,217.092,67.044,218.966,63.889,221.91  L63.889,221.91z"/>
<path fill="#FFFFFF" d="M86.372,234.401c-3.168,5.058-8.853,7.856-12.357,6.215c-3.384-1.656-2.771-6.586,1.071-11.127  c3.686-4.575,8.702-7.44,11.442-6.293C89.346,224.344,89.394,229.36,86.372,234.401z"/>
<path fill="#FFFFFF" d="M73.208,241.306c-2.629-1.312-3.078-4.064-1.986-7.104l0,0c0.583-1.605,1.593-3.324,2.986-4.989l0,0  c3.302-3.988,7.507-6.924,11.102-7.071l0,0c0.656-0.017,1.3,0.096,1.848,0.32l0,0c2.512,1.104,2.974,4.108,2.136,7.57l0,0  c-0.367,1.459-1.01,3.004-1.938,4.549l0,0l-0.984-0.181l0.984,0.181c-2.62,4.205-6.966,7.165-11.214,7.304l0,0  C75.068,241.903,74.058,241.704,73.208,241.306L73.208,241.306z M75.957,229.739c-1.226,1.477-2.102,3.014-2.594,4.421l0,0  c-0.949,2.685-0.367,4.894,1.446,5.749l0,0c0.565,0.275,1.183,0.389,1.834,0.379l0,0c2.503,0.01,6.336-2.227,8.745-6.077l0,0v0.009  c0.867-1.424,1.471-2.849,1.816-4.152l0,0c0.877-3.168,0.147-5.628-1.32-6.146l0,0c-0.319-0.139-0.656-0.19-1.045-0.182l0,0  c-0.034,0-0.073,0-0.107,0l0,0C82.677,223.774,78.84,226.115,75.957,229.739L75.957,229.739z"/>
<path fill="#FFFFFF" d="M104.884,239.123c-1.903,5.464-7.204,9.22-11.567,8.148c-4.273-1.086-5.167-6.224-2.296-11.343  c2.75-5.128,7.498-8.632,10.843-7.906C105.264,228.763,106.701,233.659,104.884,239.123z"/>
<path fill="#FFFFFF" d="M92.756,248.023c-3.976-1.062-5.175-4.575-4.251-8.503l0,0c0.293-1.217,0.79-2.486,1.506-3.755l0,0  c2.654-4.792,6.837-8.442,10.989-8.65l0,0c0.432,0,0.864,0.043,1.286,0.147l0,0c3.569,0.88,4.869,4.652,4.347,9.071l0,0  c-0.121,0.925-0.345,1.891-0.668,2.885l0,0c-1.723,4.954-6.056,8.831-11.128,9.028l0,0C94.12,248.265,93.421,248.186,92.756,248.023  L92.756,248.023z M92.039,236.101c-0.63,1.141-1.07,2.288-1.316,3.376l0,0c-0.833,3.573,0.579,6.439,3.146,7.026l0,0  c0.419,0.104,0.842,0.146,1.273,0.146l0,0c2.905,0.043,7.07-3.013,8.659-7.631l0,0c0.311-0.897,0.531-1.796,0.651-2.65l0,0  c0.643-4.117-0.984-7.251-3.017-7.579l0,0c-0.233-0.043-0.471-0.069-0.721-0.061l0,0c-0.039,0-0.082,0-0.133,0l0,0  C98.281,228.773,94.314,231.699,92.039,236.101L92.039,236.101z"/>
<path fill="#FFFFFF" d="M125.684,240.815c-0.388,5.629-4.713,10.203-9.573,9.875c-4.826-0.318-7.337-5.291-5.792-10.808  c1.476-5.499,5.551-9.643,9.258-9.435C123.297,230.654,126.056,235.186,125.684,240.815z"/>
<path fill="#FFFFFF" d="M115.903,251.484c-5.283-0.466-7.609-4.704-7.117-9.495l0,0c0.082-0.699,0.225-1.433,0.432-2.166l0,0  c1.579-5.491,5.386-9.945,10.043-10.178l0,0c0.146-0.01,0.302,0,0.449,0l0,0c4.575,0.422,7.057,4.91,7.117,10.28l0,0  c0,0.312-0.009,0.613-0.025,0.898l0,0l-1.118-0.009l1.118,0.017c-0.406,5.551-4.265,10.42-10.118,10.67l0,0  C116.417,251.519,116.167,251.501,115.903,251.484L115.903,251.484z M124.558,240.805c0.025-0.285,0.039-0.552,0.039-0.846l0,0  c0.142-5.059-2.689-8.744-5.18-8.727l0,0c-0.06,0-0.146-0.009-0.232,0l0,0c-2.529-0.112-6.492,3.557-7.765,8.727l0,0  c-0.19,0.683-0.312,1.347-0.376,1.986l0,0c-0.475,4.455,2.124,7.847,5.244,7.949l0,0c0.168,0.01,0.341,0.019,0.493,0.01l0,0  C120.151,249.94,124.229,246.012,124.558,240.805L124.558,240.805z"/>
<path fill="#FFFFFF" d="M146.812,239.192c1.148,5.481-1.726,10.593-6.565,11.084c-4.872,0.491-8.839-3.944-8.831-9.564  c-0.003-5.62,3.03-10.281,6.752-10.652C141.875,229.705,145.699,233.693,146.812,239.192z"/>
<path fill="#FFFFFF" d="M130.29,241.09c0-0.129-0.004-0.267,0-0.371l0,0c0.121-5.8,2.956-10.815,7.709-11.463l0,0  c0.155-0.009,0.315-0.018,0.479-0.026l0,0c4.687,0.086,8.229,4.429,9.436,9.893l0,0l-1.106,0.069l-1.104,0.069  c-0.502-2.563-1.637-4.766-3.01-6.25l0,0c-1.354-1.512-2.854-2.219-4.095-2.176l0,0c-0.083,0-0.169,0-0.26,0.01l0,0  c-2.686,0.094-5.931,4.402-5.801,9.874l0,0c-0.004,0.104,0,0.208,0.009,0.32l0,0c0.077,2.503,0.979,4.712,2.313,6.231l0,0  c1.39,1.528,3.081,2.288,4.727,2.254l0,0c0.151-0.009,0.298-0.009,0.452-0.035l0,0c3.441-0.225,6.462-4.376,5.814-9.271l0,0  c-0.039-0.327-0.09-0.647-0.15-0.957l0,0l1.104-0.069l1.106-0.069c0.073,0.346,0.137,0.7,0.188,1.053l0,0  c0.635,5.267-1.989,10.187-7.646,10.895l0,0c-0.257,0.018-0.502,0.035-0.752,0.035l0,0C133.928,251.07,130.451,246.46,130.29,241.09  L130.29,241.09z"/>
<path fill="#FFFFFF" d="M166.201,234.445c2.508,5.083,1.278,10.35-3.039,11.592c-4.398,1.244-9.379-2.392-10.895-7.837  c-1.463-5.439,0.246-10.429,3.661-11.318C159.279,226.009,163.784,229.35,166.201,234.445z"/>
<path fill="#FFFFFF" d="M151.167,238.286c-0.146-0.562-0.254-1.088-0.336-1.632l0,0c-0.694-4.972,0.799-9.392,4.648-10.522l0,0  c0.418-0.122,0.858-0.173,1.308-0.182l0,0c4.145,0.043,8.114,3.6,10.454,8.347l0,0l0,0c0.439,0.908,0.771,1.813,1.015,2.711l0,0  c1.109,4.352-0.221,8.452-4.529,9.772l0,0c-0.658,0.173-1.341,0.275-2.045,0.294l0,0C156.58,247.055,152.54,243.214,151.167,238.286  L151.167,238.286z M157.111,227.529c-0.251,0.01-0.497,0.043-0.743,0.112l0,0c-2.3,0.467-4.187,4.333-3.345,8.978l0,0  c0.081,0.493,0.191,0.984,0.34,1.493l0,0c1.273,4.61,5.186,7.537,7.986,7.373l0,0c0.413-0.009,0.833-0.06,1.248-0.182l0,0  c2.86-0.75,4.488-4.272,3.451-8.261l0,0c-0.201-0.812-0.495-1.632-0.884-2.451l0,0l1.036-0.146l-1.036,0.146  c-2.003-4.369-5.702-7.105-7.929-7.062l0,0C157.193,227.529,157.154,227.529,157.111,227.529L157.111,227.529z"/>
<path fill="#FFFFFF" d="M182.275,227.313c3.518,4.481,3.823,9.531,0.393,11.318c-3.549,1.795-8.965-0.898-11.779-5.897  c-2.703-5.014-2.396-10.082,0.444-11.351C174.095,220.114,178.891,222.798,182.275,227.313z"/>
<path fill="#FFFFFF" d="M169.87,232.899c-0.617-1.14-1.075-2.288-1.381-3.4l0,0c-1.058-3.954-0.554-7.494,2.188-8.814l0,0  c0.552-0.259,1.186-0.397,1.855-0.406l0,0c3.578,0.009,7.621,2.858,10.652,6.786l0,0h-0.005c1.032,1.337,1.817,2.701,2.335,4.021  l0,0c1.312,3.427,0.86,6.656-2.037,8.227l0,0c-0.845,0.424-1.833,0.64-2.879,0.656l0,0  C176.336,239.978,172.183,237.069,169.87,232.899L169.87,232.899z M173.05,221.866c-0.389,0.01-0.726,0.069-1.065,0.226l0,0  c-1.688,0.664-2.5,3.729-1.399,7.371l0,0c0.299,1.011,0.729,2.055,1.308,3.092l0,0c2.146,3.832,5.784,5.947,8.175,5.843l0,0  c0.617-0.017,1.219-0.146,1.797-0.439l0,0c2.055-1.019,2.688-3.755,1.519-6.829l0,0c-0.444-1.182-1.113-2.399-2.023-3.582l0,0  l0.915-0.233l-0.915,0.233c-2.642-3.574-6.237-5.724-8.214-5.688l0,0C173.115,221.866,173.081,221.866,173.05,221.866  L173.05,221.866z"/>
<path fill="#FFFFFF" d="M194.304,218.793c4.143,3.824,5.661,8.34,3.237,10.401c-2.568,2.072-7.893,0.328-11.635-4.082  c-3.582-4.395-4.578-9.298-2.429-10.8C185.526,212.802,190.311,214.943,194.304,218.793z"/>
<path fill="#FFFFFF" d="M185.031,225.379c-1.302-1.605-2.257-3.237-2.879-4.799l0,0c-1.135-2.952-1.221-5.646,0.523-6.923l0,0  c0.552-0.397,1.273-0.597,2.071-0.605l0,0c3.038-0.017,6.916,2.219,10.282,5.396l0,0h0.005c1.718,1.605,3.025,3.305,3.844,4.937l0,0  c1.279,2.538,1.321,4.956-0.399,6.432l0,0c-0.811,0.664-1.938,1.019-3.217,1.045l0,0  C191.796,230.896,187.872,228.763,185.031,225.379L185.031,225.379z M185.434,214.615c-0.466,0.009-0.842,0.121-1.169,0.347l0,0  c-1.072,0.69-1.239,2.917-0.126,5.584l0,0c0.56,1.39,1.46,2.883,2.637,4.29l0,0c2.567,3.031,5.731,4.507,7.769,4.438l0,0  c0.787-0.017,1.478-0.216,2.051-0.673l0,0c1.244-1.062,1.344-2.986,0.264-5.18l0,0c-0.69-1.398-1.812-2.901-3.29-4.281l0,0  l0.73-0.346l-0.738,0.346c-2.926-2.857-6.314-4.559-8.054-4.532l0,0C185.486,214.615,185.462,214.607,185.434,214.615  L185.434,214.615z"/>
<path fill="#4A5D75" d="M221.728,134.196c0.06,3.159-2.809,5.774-6.399,5.844l0,0c-3.596,0.069-6.548-2.442-6.613-5.611  l-0.648-35.116c-0.055-3.16,2.806-5.775,6.401-5.845l0,0c3.591-0.068,6.549,2.448,6.614,5.611L221.728,134.196z"/>
<path fill="#4A5D75" d="M48.165,101.159c0.013,3.462-1.999,6.276-4.498,6.285l-34.784,0.125c-2.504,0.013-4.541-2.784-4.55-6.25l0,0  c-0.017-3.461,2.002-6.28,4.506-6.289L43.62,94.9C46.119,94.892,48.152,97.693,48.165,101.159L48.165,101.159z"/>
<path fill="#4A5D75" d="M40.495,112.869c-1.269-3.238-1.312-6.125-1.317-6.746l0,0c0-0.073,0-0.125,0-0.156l0,0l3.941,0.156  c-0.008,0.336,0.056,2.81,1.045,5.304l0,0c0.854,2.106,2.209,4.144,4.744,5.356c0.492,0.233,0.526,4.394,0.526,4.394  C44.415,119.784,41.726,116.085,40.495,112.869L40.495,112.869z M43.119,106.123h-0.039H43.119L43.119,106.123L43.119,106.123z"/>
<path fill="#231F20" d="M66.094,145.685c0,13.751,11.149,24.904,24.896,24.904c13.751,0,24.896-11.153,24.896-24.904  c0-4.532-1.217-8.778-3.34-12.439H69.439C67.316,136.907,66.094,141.153,66.094,145.685z"/>
<path fill="#231F20" d="M185.439,133.246h-43.111c-2.119,3.661-3.341,7.907-3.341,12.439c0,13.751,11.145,24.904,24.896,24.904  c13.75,0,24.896-11.153,24.896-24.904C188.779,145.685,188.154,139.806,185.439,133.246z"/>
</svg>